<?xml version="1.0" standalone="no"?>
<!DOCTYPE svg PUBLIC "-//W3C//DTD SVG 20010904//EN"
 "http://www.w3.org/TR/2001/REC-SVG-20010904/DTD/svg10.dtd">
<svg version="1.0" xmlns="http://www.w3.org/2000/svg"
 width="360.000000pt" height="360.000000pt" viewBox="0 0 360.000000 360.000000"
 preserveAspectRatio="xMidYMid meet">
<metadata>
Created by potrace 1.11, written by Peter Selinger 2001-2013
</metadata>
<g transform="translate(0.000000,360.000000) scale(0.100000,-0.100000)"
fill="#000000" stroke="none">
<path d="M1880 3595 c0 -2 21 -19 48 -37 141 -97 199 -204 220 -408 10 -97 8
-2325 -2 -2410 -33 -277 -126 -455 -283 -537 -159 -83 -383 -74 -528 22 -51
34 -68 51 -116 115 -139 185 -164 526 -54 723 47 84 154 155 233 156 44 1 38
16 -24 64 -154 117 -457 136 -645 39 -95 -49 -185 -135 -224 -217 -58 -120
-69 -309 -25 -450 96 -309 445 -534 920 -594 76 -10 424 -7 470 3 14 3 45 9
70 12 125 17 303 73 424 135 339 173 507 427 541 820 2 24 5 499 5 1054 0 574
5 1042 10 1085 23 177 81 284 203 374 37 26 67 50 67 52 0 2 -295 4 -655 4
-360 0 -655 -2 -655 -5z"/>
</g>
</svg>
