<?xml version="1.0" standalone="no"?>
<!DOCTYPE svg PUBLIC "-//W3C//DTD SVG 20010904//EN"
 "http://www.w3.org/TR/2001/REC-SVG-20010904/DTD/svg10.dtd">
<svg version="1.0" xmlns="http://www.w3.org/2000/svg"
 width="1000.000000pt" height="1000.000000pt" viewBox="0 0 1000.000000 1000.000000"
 preserveAspectRatio="xMidYMid meet">
<metadata>
Created by potrace 1.11, written by Peter Selinger 2001-2013
</metadata>
<g transform="translate(0.000000,1000.000000) scale(0.100000,-0.100000)"
fill="#000000" stroke="none">
<path d="M4454 8068 c17 -46 438 -1125 473 -1215 3 -9 28 -13 73 -13 45 0 70
4 73 13 18 45 454 1164 473 1215 l24 62 -570 0 -570 0 24 -62z"/>
<path d="M2110 8066 c-140 -29 -254 -57 -253 -62 1 -5 202 -477 447 -1049
l446 -1040 0 -177 0 -178 2250 0 2250 0 0 178 0 177 449 1048 c280 654 445
1050 438 1052 -7 2 -124 26 -262 54 l-250 50 -700 -699 c-385 -384 -714 -705
-732 -714 -67 -34 -158 -11 -198 50 -15 22 -53 175 -126 503 -57 259 -107 471
-110 471 -3 0 -96 -233 -206 -517 l-201 -516 40 -58 c169 -248 81 -578 -188
-706 -78 -38 -80 -38 -205 -38 l-125 0 -80 39 c-268 133 -354 458 -185 705
l39 58 -201 516 c-110 285 -204 517 -207 517 -3 0 -53 -212 -110 -472 -71
-320 -112 -482 -125 -503 -38 -56 -123 -80 -192 -54 -16 5 -341 323 -733 715
-388 387 -707 704 -710 703 -3 -1 -120 -25 -260 -53z"/>
<path d="M8181 7284 c-121 -283 -159 -380 -149 -385 7 -4 125 -79 262 -167
l250 -160 53 36 c43 28 53 40 49 56 -13 50 -296 990 -300 993 -2 2 -76 -166
-165 -373z"/>
<path d="M1659 7639 c0 -2 -71 -263 -158 -579 l-158 -575 60 -38 59 -38 293
171 292 172 -189 441 c-176 411 -197 457 -199 446z"/>
<path d="M4934 6511 c-57 -26 -87 -72 -92 -140 -3 -46 0 -62 20 -91 25 -38 97
-80 138 -80 40 0 113 42 137 79 17 24 23 49 23 86 0 66 -29 112 -90 143 -54
27 -82 27 -136 3z"/>
<path d="M8809 6360 c-46 -13 -78 -41 -99 -84 -25 -54 -25 -96 0 -147 50 -98
181 -116 257 -37 80 84 55 211 -51 259 -44 20 -66 22 -107 9z"/>
<path d="M1095 6195 c-108 -39 -145 -176 -68 -257 79 -85 204 -71 260 27 72
128 -55 280 -192 230z"/>
<path d="M2750 5160 l0 -80 2250 0 2250 0 0 80 0 80 -2250 0 -2250 0 0 -80z"/>
<path d="M2750 4381 c0 -408 7 -517 46 -711 47 -236 162 -528 284 -725 82
-131 214 -298 319 -405 345 -346 752 -558 1241 -645 128 -23 445 -31 591 -16
1062 111 1905 961 2008 2025 6 60 11 277 11 483 l0 373 -2250 0 -2250 0 0
-379z"/>
</g>
</svg>
