<?xml version="1.0" encoding="utf-8"?>
<!-- Generator: Adobe Illustrator 23.0.3, SVG Export Plug-In . SVG Version: 6.00 Build 0)  -->
<svg version="1.1" id="Layer_1" xmlns="http://www.w3.org/2000/svg" xmlns:xlink="http://www.w3.org/1999/xlink" x="0px" y="0px"
	 viewBox="0 0 360 360" style="enable-background:new 0 0 360 360;" xml:space="preserve">
<style type="text/css">
	.st0{fill:#353866;}
	.st1{fill:#FAF9F9;}
</style>
<rect x="95.9" y="171" class="st0" width="168.2" height="6"/>
<path class="st0" d="M95.9,213c0,46.4,37.7,84.1,84.1,84.1s84.1-37.7,84.1-84.1v-24H95.9V213z"/>
<path class="st0" d="M47.5,127.2l21.9-12.8L55.1,81.1l-11.9,43.5C44.8,125.2,46.2,126.2,47.5,127.2z"/>
<ellipse class="st0" cx="324.2" cy="134.9" rx="6" ry="6"/>
<ellipse class="st0" cx="35.8" cy="140.9" rx="6" ry="6"/>
<path class="st0" d="M305.2,80.4l-12.1,28.2l19.6,12.5c1.2-1,2.5-1.8,3.9-2.5L305.2,80.4z"/>
<path class="st0" d="M180,110.9c0.8,0,1.7,0.1,2.5,0.2l18.8-48.2h-42.5l18.8,48.2C178.3,111,179.2,110.9,180,110.9z"/>
<path class="st0" d="M177.3,123.6c-0.2,0.1-0.5,0.3-0.7,0.4c-1.6,1.1-2.6,2.9-2.6,5c0,3.3,2.7,6,6,6s6-2.7,6-6c0-2.1-1.1-3.9-2.7-5
	c-0.2-0.1-0.5-0.2-0.7-0.4c-0.8-0.4-1.7-0.6-2.7-0.6C179,122.9,178.1,123.2,177.3,123.6z"/>
<path class="st0" d="M226.3,115.2c0,0-0.1,0.1-0.1,0.1c-0.1,0.1-0.2,0.2-0.3,0.3c-0.1,0-0.1,0.1-0.2,0.1c-0.1,0.1-0.2,0.2-0.3,0.2
	c-0.1,0-0.1,0.1-0.2,0.1c-0.1,0.1-0.2,0.1-0.3,0.2c-0.1,0-0.1,0.1-0.2,0.1c-0.1,0.1-0.2,0.1-0.3,0.2c-0.1,0-0.1,0-0.2,0.1
	c-0.1,0-0.2,0.1-0.4,0.1c-0.1,0-0.1,0-0.2,0.1c-0.1,0-0.2,0.1-0.3,0.1c0,0-0.1,0-0.1,0c-0.1,0-0.2,0-0.4,0.1c-0.1,0-0.1,0-0.2,0
	c-0.2,0-0.4,0-0.6,0c0,0,0,0,0,0c0,0,0,0,0,0c-0.2,0-0.4,0-0.5,0c0,0-0.1,0-0.1,0c-0.1,0-0.3,0-0.4-0.1c-0.1,0-0.1,0-0.2,0
	c-0.1,0-0.2,0-0.3-0.1c-0.1,0-0.2,0-0.2-0.1c-0.1,0-0.2-0.1-0.3-0.1c-0.1,0-0.2-0.1-0.3-0.1c-0.1,0-0.2-0.1-0.3-0.1
	c-0.1,0-0.2-0.1-0.2-0.1c-0.1-0.1-0.2-0.1-0.3-0.2c-0.1,0-0.1-0.1-0.2-0.1c-0.2-0.1-0.3-0.2-0.4-0.3c0,0,0,0-0.1-0.1
	c-0.1-0.1-0.3-0.2-0.4-0.3c0,0,0,0,0,0c0,0,0,0,0,0c-0.1-0.1-0.2-0.2-0.3-0.4c0,0,0,0-0.1-0.1c-0.1-0.1-0.2-0.3-0.3-0.4c0,0,0,0,0,0
	c-0.3-0.5-0.6-1-0.7-1.6c0,0,0,0,0-0.1c0-0.1-0.1-0.2-0.1-0.4l-7.7-34.8l-15.3,39.2c3,3.2,4.8,7.5,4.8,12.3c0,9.9-8.1,18-18,18
	s-18-8.1-18-18c0-4.7,1.8-9,4.8-12.3l-15.3-39.2l-7.7,34.6c0,0,0,0,0,0l0,0.1c0,0,0,0.1,0,0.1c0,0.1-0.1,0.2-0.1,0.4
	c0,0.1,0,0.1-0.1,0.2c0,0.1-0.1,0.2-0.1,0.3c-0.1,0.2-0.1,0.3-0.2,0.5c0,0,0,0,0,0.1c-0.1,0.1-0.2,0.3-0.3,0.4c0,0,0,0.1-0.1,0.1
	c-0.1,0.1-0.2,0.2-0.3,0.4c0,0-0.1,0.1-0.1,0.1c-0.1,0.1-0.2,0.2-0.3,0.3c0,0,0,0-0.1,0.1c0,0,0,0,0,0c-0.1,0.1-0.2,0.2-0.3,0.3
	c0,0-0.1,0.1-0.1,0.1c-0.1,0.1-0.3,0.2-0.4,0.3c-0.1,0-0.1,0.1-0.2,0.1c-0.1,0.1-0.2,0.1-0.3,0.2c-0.1,0-0.2,0.1-0.2,0.1
	c-0.1,0-0.2,0.1-0.3,0.1c-0.1,0-0.2,0.1-0.3,0.1c-0.1,0-0.2,0.1-0.3,0.1c-0.1,0-0.2,0-0.2,0.1c-0.1,0-0.2,0.1-0.3,0.1
	c-0.1,0-0.1,0-0.2,0c-0.1,0-0.3,0-0.4,0.1c0,0-0.1,0-0.1,0c-0.2,0-0.4,0-0.5,0c0,0,0,0,0,0c0,0,0,0,0,0c-0.2,0-0.4,0-0.6,0
	c-0.1,0-0.2,0-0.2,0c-0.1,0-0.2,0-0.3,0c0,0-0.1,0-0.1,0c-0.1,0-0.2-0.1-0.3-0.1c0,0-0.1,0-0.1,0c-0.1,0-0.3-0.1-0.4-0.2
	c0,0-0.1,0-0.1,0c-0.1-0.1-0.3-0.1-0.4-0.2c0,0-0.1,0-0.1,0c-0.1-0.1-0.3-0.2-0.4-0.3c0,0,0,0-0.1,0c-0.1-0.1-0.3-0.2-0.4-0.3
	c0,0,0,0,0,0c-0.1-0.1-0.3-0.3-0.4-0.4c0,0,0,0,0,0l0,0c0,0-0.1-0.1-0.1-0.1L81.9,63.4l-19.6,3.9l33.1,77.3c0.2,0.4,0.3,0.8,0.4,1.2
	c0.1,0.4,0.1,0.8,0.1,1.2l0,0v12h168.2v-12c0-0.4,0-0.8,0.1-1.2c0.1-0.4,0.2-0.8,0.4-1.2l33.1-77.3l-19.6-3.9L226.3,115.2z"/>
<path class="st1" d="M270.1,219.1c-3.3,0-6-2.7-6-6c0,46.4-37.7,84.1-84.1,84.1S95.9,259.4,95.9,213c0,3.3-2.7,6-6,6
	c-3.3,0-6-2.7-6-6c0,28.6,12.5,54.2,32.4,71.8l6.1-4.6c2.6-2,6.4-1.5,8.4,1.2c2,2.6,1.5,6.4-1.2,8.4l-3.5,2.6
	c15.4,10.5,34,16.6,54,16.6s38.6-6.1,54-16.6l-3.5-2.6c-2.7-2-3.2-5.8-1.2-8.4c2-2.7,5.8-3.2,8.4-1.2l6.1,4.6
	c19.8-17.6,32.4-43.3,32.4-71.9C276.1,216.4,273.4,219.1,270.1,219.1z"/>
<polygon class="st1" points="83.9,165 83.9,165 83.9,165 "/>
<path class="st1" d="M89.9,177h6v-6h-6c-3.3,0-6-2.7-6-6v18C83.9,179.7,86.6,177,89.9,177z"/>
<path class="st1" d="M89.9,207c3.3,0,6,2.7,6,6v-24h-6c-3.3,0-6-2.7-6-6v30C83.9,209.7,86.6,207,89.9,207z"/>
<ellipse class="st1" cx="89.9" cy="213" rx="6" ry="6"/>
<path class="st1" d="M270.1,189h-6v24c0-3.3,2.7-6,6-6c3.3,0,6,2.7,6,6v-30C276.1,186.3,273.4,189,270.1,189z"/>
<path class="st1" d="M270.1,171h-6v6h6c3.3,0,6,2.7,6,6v-18C276.1,168.3,273.4,171,270.1,171z"/>
<ellipse class="st1" cx="270.1" cy="213.1" rx="6" ry="6"/>
<rect x="95.9" y="177" class="st1" width="168.2" height="12"/>
<path class="st1" d="M89.9,189h6v-12h-6c-3.3,0-6,2.7-6,6C83.9,186.3,86.6,189,89.9,189z"/>
<path class="st1" d="M270.1,177h-6v12h6c3.3,0,6-2.7,6-6C276.1,179.7,273.4,177,270.1,177z"/>
<polygon class="st1" points="95.9,165 95.9,171 264.1,171 264.1,165 264.1,159 95.9,159 "/>
<path class="st1" d="M89.9,171h6v-6C95.9,168.3,93.2,171,89.9,171c-3.3,0-6-2.7-6-6v0C83.9,168.3,86.6,171,89.9,171z"/>
<path class="st1" d="M270.1,171c-3.3,0-6-2.7-6-6v6H270.1z"/>
<path class="st1" d="M177.3,123.6c0.8-0.4,1.7-0.6,2.7-0.6c1,0,1.9,0.2,2.7,0.6c-2.3-1.5-3.3-4.5-2.3-7.2l2.1-5.3
	c-0.8-0.1-1.6-0.2-2.5-0.2c-0.8,0-1.7,0.1-2.5,0.2l2.1,5.3C180.6,119.1,179.6,122,177.3,123.6z"/>
<path class="st1" d="M186,124.6c-0.7,0-1.5-0.1-2.2-0.4c-0.2-0.1-0.3-0.1-0.5-0.2c1.6,1.1,2.7,2.9,2.7,5c0,3.3-2.7,6-6,6s-6-2.7-6-6
	c0-2.1,1-3.9,2.6-5c-0.1,0.1-0.3,0.1-0.5,0.2c-0.7,0.3-1.4,0.4-2.2,0.4c-2.4,0-4.7-1.5-5.6-3.8l-1.6-4.1c-3,3.2-4.8,7.5-4.8,12.3
	c0,9.9,8.1,18,18,18c9.9,0,18-8.1,18-18c0-4.7-1.8-9-4.8-12.3l-1.6,4.1C190.7,123.1,188.4,124.6,186,124.6z"/>
<path class="st1" d="M328.8,117.5l1.1,3.7c0.9,3.2-0.9,6.5-4,7.5c-0.6,0.2-1.2,0.3-1.7,0.3c3.3,0,6,2.7,6,6s-2.7,6-6,6
	c-3.3,0-6-2.7-6-6s2.7-6,6-6c-2.1,0-4.1-1.1-5.1-2.9c1,1.9,1,4.2-0.2,6.1c-1.1,1.8-3.1,2.8-5.1,2.8c-1.1,0-2.2-0.3-3.2-0.9l-4-2.6
	c-0.2,1.1-0.3,2.3-0.3,3.5c0,9.9,8.1,18,18,18s18-8.1,18-18C342.2,126.6,336.5,119.6,328.8,117.5z"/>
<path class="st1" d="M316.6,118.6c-1.4,0.7-2.8,1.5-3.9,2.5l4.3,2.8c0.9,0.6,1.5,1.3,2,2.1c-0.2-0.4-0.4-0.9-0.6-1.3L316.6,118.6z"
	/>
<path class="st1" d="M133.7,115.2c0.1,0.1,0.3,0.3,0.4,0.4C134,115.4,133.9,115.3,133.7,115.2z"/>
<path class="st1" d="M142.2,115.2c-0.1,0.1-0.2,0.2-0.3,0.3C141.9,115.4,142,115.3,142.2,115.2z"/>
<path class="st1" d="M135.2,116.3c0.1,0.1,0.3,0.1,0.4,0.2C135.5,116.4,135.4,116.3,135.2,116.3z"/>
<path class="st1" d="M134.7,116c0.1,0.1,0.3,0.2,0.4,0.3C135,116.1,134.8,116.1,134.7,116z"/>
<path class="st1" d="M134.2,115.6c0.1,0.1,0.3,0.2,0.4,0.3C134.5,115.8,134.3,115.7,134.2,115.6z"/>
<path class="st1" d="M144.5,54.3c0,0,0,0.1-0.1,0.2C144.5,54.4,144.5,54.4,144.5,54.3C144.5,54.3,144.5,54.3,144.5,54.3z"/>
<path class="st1" d="M144.3,54.9C144.3,54.8,144.3,54.8,144.3,54.9c0,0,0,0.1-0.1,0.2c0,0,0,0,0,0C144.3,55,144.3,54.9,144.3,54.9z"
	/>
<path class="st1" d="M136.8,116.8c-0.1,0-0.3-0.1-0.4-0.1c0.1,0,0.2,0.1,0.3,0.1C136.7,116.8,136.7,116.8,136.8,116.8z"/>
<path class="st1" d="M143.8,112.1l7.7-34.6l-7.1-18.2c0,0,0,0,0-0.1l0-0.1c0,0,0,0,0-0.1c-0.1-0.1-0.1-0.3-0.1-0.5
	c0-0.1,0-0.1,0-0.2c0-0.1-0.1-0.3-0.1-0.4c0-0.1,0-0.2,0-0.3c0-0.1,0-0.2,0-0.3c0-0.1,0-0.2,0-0.4c0-0.1,0-0.1,0-0.2c0,0,0,0,0-0.1
	c0-0.1,0-0.2,0-0.4c0-0.1,0-0.2,0-0.2c0-0.1,0-0.2,0-0.3c0-0.1,0-0.2,0-0.3c0-0.1,0-0.1,0.1-0.2c0,0,0-0.1,0-0.1
	c0,0.1-0.1,0.2-0.1,0.3l-9.6,43.4l7.7,7.7C143.7,108.1,144.2,110.2,143.8,112.1z"/>
<path class="st1" d="M140.8,116.2c0.1,0,0.2-0.1,0.3-0.2C141,116.1,140.9,116.1,140.8,116.2z"/>
<path class="st1" d="M135.8,116.5c0.1,0.1,0.3,0.1,0.4,0.2C136.1,116.6,135.9,116.6,135.8,116.5z"/>
<path class="st1" d="M143.8,112.1c0,0.1,0,0.2-0.1,0.3c0,0,0-0.1,0-0.1L143.8,112.1z"/>
<path class="st1" d="M133.7,115.1l-0.1-0.1C133.6,115.1,133.6,115.1,133.7,115.1z"/>
<path class="st1" d="M138.5,116.9c-0.2,0-0.4,0-0.6,0c0,0,0,0,0,0C138.1,116.9,138.3,116.9,138.5,116.9z"/>
<path class="st1" d="M144.7,53.9C144.8,53.9,144.8,53.9,144.7,53.9C144.8,53.8,144.8,53.9,144.7,53.9z"/>
<path class="st1" d="M139.3,116.8c0.1,0,0.2,0,0.3-0.1C139.5,116.7,139.4,116.8,139.3,116.8z"/>
<path class="st1" d="M143.6,112.9c0-0.1,0-0.1,0.1-0.2C143.7,112.8,143.6,112.8,143.6,112.9z"/>
<path class="st1" d="M140.3,116.4c0.1,0,0.2-0.1,0.3-0.1C140.5,116.4,140.4,116.4,140.3,116.4z"/>
<path class="st1" d="M142.3,115.1c0.1-0.1,0.2-0.2,0.3-0.3C142.5,114.9,142.4,115,142.3,115.1z"/>
<path class="st1" d="M143.3,113.7c0.1-0.2,0.2-0.3,0.2-0.5C143.4,113.4,143.4,113.5,143.3,113.7z"/>
<path class="st1" d="M141.3,115.9c0.1-0.1,0.3-0.2,0.4-0.3C141.6,115.7,141.4,115.8,141.3,115.9z"/>
<path class="st1" d="M142.6,114.7c0.1-0.1,0.2-0.2,0.3-0.4C142.8,114.4,142.7,114.5,142.6,114.7z"/>
<path class="st1" d="M139.8,116.6c0.1,0,0.2-0.1,0.3-0.1C140,116.6,139.9,116.6,139.8,116.6z"/>
<path class="st1" d="M137.1,116.9c0.1,0,0.2,0,0.2,0C137.2,116.9,137.2,116.9,137.1,116.9z"/>
<path class="st1" d="M143,114.2c0.1-0.1,0.2-0.3,0.3-0.4C143.2,113.9,143.1,114.1,143,114.2z"/>
<path class="st1" d="M138.7,116.9c0.1,0,0.3,0,0.4-0.1C138.9,116.8,138.8,116.9,138.7,116.9z"/>
<path class="st1" d="M218.9,116c0.1,0.1,0.2,0.1,0.3,0.2C219.1,116.1,219,116.1,218.9,116z"/>
<path class="st1" d="M219.4,116.3c0.1,0,0.2,0.1,0.3,0.1C219.6,116.4,219.5,116.4,219.4,116.3z"/>
<path class="st1" d="M223.6,116.7c-0.1,0-0.3,0.1-0.4,0.1c0,0,0.1,0,0.1,0C223.4,116.8,223.5,116.7,223.6,116.7z"/>
<path class="st1" d="M218.2,115.5c-0.1-0.1-0.3-0.2-0.4-0.3C218,115.3,218.1,115.4,218.2,115.5z"/>
<path class="st1" d="M222,116.9c-0.2,0-0.4,0-0.6,0C221.7,116.9,221.9,116.9,222,116.9C222,116.9,222,116.9,222,116.9z"/>
<path class="st1" d="M222.7,116.9c0.1,0,0.1,0,0.2,0C222.8,116.9,222.7,116.9,222.7,116.9z"/>
<path class="st1" d="M224.9,116.2c0.1-0.1,0.2-0.1,0.3-0.2C225.1,116.1,225,116.1,224.9,116.2z"/>
<path class="st1" d="M225.4,115.9c0.1-0.1,0.2-0.1,0.3-0.2C225.6,115.7,225.5,115.8,225.4,115.9z"/>
<path class="st1" d="M224.4,116.5c0.1,0,0.2-0.1,0.3-0.2C224.6,116.4,224.5,116.4,224.4,116.5z"/>
<path class="st1" d="M219.9,116.5c0.1,0,0.2,0.1,0.3,0.1C220.1,116.6,220,116.6,219.9,116.5z"/>
<path class="st1" d="M225.9,115.5c0.1-0.1,0.2-0.2,0.3-0.3C226.1,115.4,226,115.4,225.9,115.5z"/>
<path class="st1" d="M221,116.8c0.1,0,0.3,0,0.4,0.1C221.2,116.9,221.1,116.8,221,116.8z"/>
<path class="st1" d="M223.8,116.7c0.1,0,0.2-0.1,0.4-0.1C224.1,116.6,223.9,116.6,223.8,116.7z"/>
<path class="st1" d="M220.4,116.7c0.1,0,0.2,0.1,0.3,0.1C220.6,116.8,220.5,116.7,220.4,116.7z"/>
<path class="st1" d="M218.3,115.6c0.1,0.1,0.3,0.2,0.4,0.3C218.6,115.8,218.4,115.7,218.3,115.6z"/>
<path class="st1" d="M216,56.3c0,0.2,0,0.4,0,0.6c0,0,0,0,0,0c0,0,0,0,0,0c0,0.2,0,0.4,0,0.5c0,0,0,0.1,0,0.1c0,0.1,0,0.3-0.1,0.4
	c0,0.1,0,0.2-0.1,0.3c0,0.1,0,0.2-0.1,0.3c0,0.1-0.1,0.2-0.1,0.4c0,0,0,0.1,0,0.1l-7.2,18.4l7.7,34.8c0,0.1,0.1,0.2,0.1,0.4
	c-0.6-2-0.1-4.3,1.5-5.9l7.7-7.7l-9.6-43.2C216,55.9,216,56,216,56.3C216,56.2,216,56.3,216,56.3z"/>
<path class="st1" d="M217.4,114.7c0.1,0.1,0.2,0.3,0.3,0.4C217.6,115,217.5,114.9,217.4,114.7z"/>
<path class="st1" d="M216.3,112.6c0.2,0.6,0.4,1.1,0.7,1.6C216.7,113.7,216.5,113.2,216.3,112.6z"/>
<path class="st1" d="M217,114.2c0.1,0.2,0.2,0.3,0.3,0.4C217.3,114.5,217.1,114.4,217,114.2z"/>
<path class="st1" d="M220.2,116.6c0.1,0,0.2,0,0.2,0.1C220.4,116.7,220.3,116.7,220.2,116.6z"/>
<path class="st1" d="M221.3,116.9c0,0,0.1,0,0.1,0C221.4,116.9,221.4,116.9,221.3,116.9z"/>
<path class="st1" d="M225.7,115.7c0.1,0,0.1-0.1,0.2-0.1C225.8,115.6,225.8,115.6,225.7,115.7z"/>
<path class="st1" d="M217.8,115.2C217.8,115.2,217.8,115.1,217.8,115.2C217.8,115.1,217.8,115.2,217.8,115.2
	C217.8,115.2,217.8,115.2,217.8,115.2z"/>
<path class="st1" d="M220.7,116.8c0.1,0,0.1,0,0.2,0C220.9,116.8,220.8,116.8,220.7,116.8z"/>
<path class="st1" d="M216.3,112.6C216.3,112.6,216.3,112.6,216.3,112.6C216.3,112.6,216.3,112.6,216.3,112.6z"/>
<path class="st1" d="M224.7,116.3c0.1,0,0.1-0.1,0.2-0.1C224.8,116.2,224.8,116.3,224.7,116.3z"/>
<path class="st1" d="M217,114.2C217,114.2,217,114.2,217,114.2C217,114.2,217,114.2,217,114.2z"/>
<path class="st1" d="M223.6,116.7c0.1,0,0.1,0,0.2-0.1C223.8,116.7,223.7,116.7,223.6,116.7z"/>
<path class="st1" d="M222.9,116.9c0.1,0,0.2,0,0.4-0.1C223.1,116.8,223,116.8,222.9,116.9z"/>
<path class="st1" d="M219.2,116.2c0.1,0,0.2,0.1,0.2,0.1C219.3,116.3,219.3,116.2,219.2,116.2z"/>
<path class="st1" d="M224.2,116.5c0.1,0,0.1,0,0.2-0.1C224.3,116.5,224.2,116.5,224.2,116.5z"/>
<path class="st1" d="M217.4,114.7C217.4,114.7,217.4,114.7,217.4,114.7C217.4,114.7,217.4,114.7,217.4,114.7z"/>
<path class="st1" d="M218.2,115.5C218.2,115.6,218.2,115.6,218.2,115.5C218.2,115.6,218.2,115.6,218.2,115.5z"/>
<path class="st1" d="M222.7,116.9c-0.2,0-0.4,0-0.6,0c0,0,0,0,0,0C222.3,116.9,222.5,116.9,222.7,116.9z"/>
<path class="st1" d="M218.7,115.9c0,0,0.1,0.1,0.2,0.1C218.8,116,218.8,116,218.7,115.9z"/>
<path class="st1" d="M219.7,116.4c0.1,0,0.2,0.1,0.3,0.1C219.8,116.5,219.8,116.5,219.7,116.4z"/>
<path class="st1" d="M225.2,116c0.1,0,0.1-0.1,0.2-0.1C225.4,115.9,225.3,116,225.2,116z"/>
<path class="st1" d="M226.2,115.3c0,0,0.1-0.1,0.1-0.1l51.8-51.8l-3.2-0.6c-3.3-0.6-5.4-3.8-4.7-7.1c0.2-1.1,0.8-2.1,1.5-2.9
	l-46.2,46.2l2.4,10.7C228.4,111.8,227.6,113.9,226.2,115.3z"/>
<path class="st1" d="M216.3,112.6C216.3,112.6,216.3,112.6,216.3,112.6c0.2,0.6,0.4,1.1,0.7,1.6c0,0,0,0,0,0
	c0.1,0.1,0.2,0.3,0.3,0.4c0,0,0,0,0.1,0.1c0.1,0.1,0.2,0.3,0.3,0.4c0,0,0,0,0.1,0.1c0.1,0.1,0.2,0.2,0.4,0.3c0,0,0,0,0.1,0.1
	c0.1,0.1,0.3,0.2,0.4,0.3c0,0,0.1,0.1,0.2,0.1c0.1,0.1,0.2,0.1,0.3,0.2c0.1,0,0.2,0.1,0.2,0.1c0.1,0,0.2,0.1,0.3,0.1
	c0.1,0,0.2,0.1,0.3,0.1c0.1,0,0.2,0.1,0.3,0.1c0.1,0,0.2,0,0.2,0.1c0.1,0,0.2,0.1,0.3,0.1c0.1,0,0.1,0,0.2,0c0.1,0,0.3,0,0.4,0.1
	c0,0,0.1,0,0.1,0c0.2,0,0.4,0,0.6,0c0.2,0,0.4,0,0.6,0c0.1,0,0.1,0,0.2,0c0.1,0,0.2,0,0.4-0.1c0.1,0,0.3-0.1,0.4-0.1
	c0.1,0,0.1,0,0.2-0.1c0.1,0,0.2-0.1,0.4-0.1c0.1,0,0.1,0,0.2-0.1c0.1,0,0.2-0.1,0.3-0.2c0.1,0,0.1-0.1,0.2-0.1
	c0.1-0.1,0.2-0.1,0.3-0.2c0.1,0,0.1-0.1,0.2-0.1c0.1-0.1,0.2-0.1,0.3-0.2c0.1,0,0.1-0.1,0.2-0.1c0.1-0.1,0.2-0.2,0.3-0.3
	c1.5-1.4,2.2-3.5,1.7-5.7l-2.4-10.7l-7.7,7.7C216.2,108.3,215.7,110.5,216.3,112.6z"/>
<path class="st1" d="M264.1,147L264.1,147c0-0.4,0-0.8,0.1-1.2C264.1,146.2,264.1,146.6,264.1,147z"/>
<path class="st1" d="M307.3,57c0.1,0,0.2,0,0.3,0.1C307.5,57,307.4,57,307.3,57z"/>
<path class="st1" d="M280.5,107.7c1.8-2.8,5.5-3.6,8.3-1.8l4.3,2.7l12.1-28.2L301.4,68l-3.7-0.7l-33.1,77.3c0.9-2.1,3-3.6,5.5-3.6
	c3.3,0,6,2.7,6,6v1.2l12.2-28.4l-6-3.8C279.5,114.2,278.7,110.5,280.5,107.7z"/>
<path class="st1" d="M312.2,62.9C312.2,62.9,312.2,62.9,312.2,62.9c0,0.3,0,0.4,0,0.6c0,0.1,0,0.1,0,0.2c0,0.1,0,0.2,0,0.4
	c0,0,0,0,0,0c0,0,0,0,0,0c0,0.2-0.1,0.4-0.1,0.5c0,0,0,0,0,0c-0.1,0.2-0.1,0.4-0.2,0.5c0,0,0,0,0,0l-6.5,15.2l11.5,38.2
	c2.3-1.1,4.9-1.7,7.6-1.7c1.6,0,3.2,0.2,4.7,0.6l-16.9-56.3C312.1,61.8,312.2,62.3,312.2,62.9z"/>
<path class="st1" d="M316.6,118.6l1.8,6.1c0.1,0.5,0.3,0.9,0.6,1.3c0,0,0,0,0,0c1.1,1.8,3,2.9,5.1,2.9c0.6,0,1.1-0.1,1.7-0.3
	c3.2-1,5-4.3,4-7.5l-1.1-3.7c-1.5-0.4-3-0.6-4.7-0.6C321.5,116.9,318.9,117.5,316.6,118.6z"/>
<path class="st1" d="M312,64.1C312,64.1,312,64.1,312,64.1C312,64.1,312,64.1,312,64.1z"/>
<path class="st1" d="M311.9,64.6C311.9,64.7,311.9,64.7,311.9,64.6C311.9,64.7,311.9,64.7,311.9,64.6z"/>
<path class="st1" d="M312.1,63.5c0,0.1,0,0.1,0,0.2C312.1,63.6,312.1,63.5,312.1,63.5z"/>
<path class="st1" d="M312.2,62.9C312.2,62.9,312.2,62.9,312.2,62.9C312.2,62.9,312.2,62.9,312.2,62.9z"/>
<path class="st1" d="M311.7,65.2c-0.9,2.2-3.1,3.7-5.5,3.7c-0.4,0-0.8,0-1.2-0.1l-3.5-0.7l3.7,12.4L311.7,65.2
	C311.7,65.2,311.7,65.2,311.7,65.2z"/>
<path class="st1" d="M312.7,121.1l-19.6-12.5l-4.8,11.2l18.2,11.6C307.3,127.3,309.5,123.7,312.7,121.1z"/>
<path class="st1" d="M313.8,134.9c2,0,3.9-1,5.1-2.8c1.2-1.9,1.2-4.3,0.2-6.1c0,0,0,0,0,0c-0.5-0.8-1.1-1.6-2-2.1l-4.3-2.8
	c-3.1,2.6-5.3,6.2-6.2,10.3l4,2.6C311.5,134.6,312.6,134.9,313.8,134.9z"/>
<path class="st1" d="M288.8,105.9c-2.8-1.8-6.5-1-8.3,1.8c-1.8,2.8-1,6.5,1.8,8.3l6,3.8l4.8-11.2L288.8,105.9z"/>
<path class="st1" d="M319,126C319,126,319,126,319,126C319,126,319,126,319,126z"/>
<path class="st1" d="M308.5,57.3C308.5,57.3,308.5,57.3,308.5,57.3c0.1,0,0.1,0.1,0.2,0.1c0.1,0.1,0.3,0.1,0.4,0.2
	c0.1,0,0.1,0.1,0.2,0.1c0.1,0.1,0.2,0.1,0.3,0.2c0.1,0,0.1,0.1,0.2,0.2c0.1,0.1,0.2,0.1,0.3,0.2c0.1,0.1,0.1,0.1,0.2,0.2
	c0.1,0.1,0.2,0.1,0.3,0.2c0,0,0.1,0.1,0.1,0.2c0.1,0.1,0.2,0.2,0.2,0.3c0,0,0.1,0.1,0.1,0.1c0.1,0.1,0.2,0.2,0.2,0.3
	c0,0,0.1,0.1,0.1,0.2c0.1,0.1,0.1,0.2,0.2,0.3c0,0.1,0.1,0.1,0.1,0.2c0,0.1,0.1,0.2,0.1,0.3c0,0.1,0.1,0.2,0.1,0.4
	c0,0.1,0,0.1,0.1,0.2l0,0v0l0,0c-0.6-2-2.2-3.6-4.3-4.2c0.2,0.1,0.4,0.1,0.7,0.2C308.3,57.3,308.4,57.3,308.5,57.3z"/>
<path class="st1" d="M280.4,52.6c2.3,2.3,2.3,6.1,0,8.5l-2.3,2.3l19.6,3.9l2.9-6.8c0-0.1,0.1-0.2,0.2-0.4c0,0,0-0.1,0.1-0.1
	c0.1-0.1,0.2-0.3,0.2-0.4c0,0,0-0.1,0.1-0.1c0.1-0.1,0.2-0.3,0.3-0.4c0,0,0-0.1,0.1-0.1c0.1-0.1,0.2-0.2,0.3-0.3
	c0,0,0.1-0.1,0.1-0.1c0.1-0.1,0.2-0.2,0.3-0.3c0,0,0.1-0.1,0.1-0.1c0.1-0.1,0.2-0.2,0.3-0.2c0.1,0,0.1-0.1,0.2-0.1
	c0.1-0.1,0.2-0.1,0.3-0.2c0.1,0,0.1-0.1,0.2-0.1c0.1-0.1,0.3-0.1,0.4-0.2c0,0,0.1,0,0.1-0.1c1.1-0.4,2.3-0.6,3.5-0.3c0,0,0,0,0,0
	l-30-6c-2.1-0.4-4.2,0.3-5.6,1.8l0.1-0.1C274.2,50.3,278,50.3,280.4,52.6z"/>
<path class="st1" d="M274.9,62.7l3.2,0.6l2.3-2.3c2.3-2.3,2.3-6.1,0-8.5c-2.3-2.3-6.1-2.3-8.5,0l-0.1,0.1c-0.7,0.8-1.3,1.8-1.5,2.9
	C269.6,58.9,271.7,62.1,274.9,62.7z"/>
<path class="st1" d="M310.8,59.1c0,0,0.1,0.1,0.1,0.1C310.9,59.2,310.9,59.2,310.8,59.1z"/>
<path class="st1" d="M309,57.6c0.1,0,0.1,0.1,0.2,0.1C309.2,57.7,309.1,57.6,309,57.6z"/>
<path class="st1" d="M311.9,61.2L311.9,61.2L311.9,61.2z"/>
<path class="st1" d="M302.8,57.9c0.1-0.1,0.2-0.1,0.3-0.2C303.1,57.7,302.9,57.8,302.8,57.9z"/>
<path class="st1" d="M310.4,58.7c0,0,0.1,0.1,0.1,0.2C310.5,58.8,310.5,58.7,310.4,58.7z"/>
<path class="st1" d="M309.5,57.9c0.1,0,0.1,0.1,0.2,0.2C309.7,58,309.6,58,309.5,57.9z"/>
<path class="st1" d="M303.3,57.6c0.1-0.1,0.3-0.1,0.4-0.2C303.6,57.4,303.5,57.5,303.3,57.6z"/>
<path class="st1" d="M302.4,58.2c0.1-0.1,0.2-0.2,0.3-0.2C302.6,58.1,302.5,58.1,302.4,58.2z"/>
<path class="st1" d="M303.9,57.3c0.2-0.1,0.4-0.1,0.6-0.2c1.3-0.4,2.6-0.3,3.8,0.1c-0.2-0.1-0.4-0.1-0.7-0.2c-0.1,0-0.2,0-0.3-0.1
	C306.2,56.7,304.9,56.9,303.9,57.3z"/>
<path class="st1" d="M310,58.3c0.1,0.1,0.1,0.1,0.2,0.2C310.1,58.4,310.1,58.3,310,58.3z"/>
<path class="st1" d="M311.2,59.6c0,0,0.1,0.1,0.1,0.2C311.2,59.7,311.2,59.6,311.2,59.6z"/>
<path class="st1" d="M308.5,57.3C308.5,57.3,308.5,57.3,308.5,57.3c0,0,0.1,0.1,0.2,0.1C308.6,57.4,308.6,57.4,308.5,57.3z"/>
<path class="st1" d="M311.7,60.6c0,0.1,0.1,0.2,0.1,0.4C311.8,60.8,311.8,60.7,311.7,60.6z"/>
<path class="st1" d="M301.2,59.5c0.1-0.1,0.2-0.3,0.3-0.4C301.4,59.3,301.3,59.4,301.2,59.5z"/>
<path class="st1" d="M300.9,60c0.1-0.1,0.2-0.3,0.2-0.4C301,59.7,300.9,59.9,300.9,60z"/>
<path class="st1" d="M300.8,60.1c-0.1,0.1-0.1,0.2-0.2,0.4l-2.9,6.8l3.7,0.7l-1-3.5C299.9,63,300.1,61.5,300.8,60.1z"/>
<path class="st1" d="M311.5,60.1c0,0.1,0.1,0.1,0.1,0.2C311.5,60.2,311.5,60.1,311.5,60.1z"/>
<path class="st1" d="M301.9,58.6c0.1-0.1,0.2-0.2,0.3-0.3C302.1,58.4,302,58.5,301.9,58.6z"/>
<path class="st1" d="M301.5,59c0.1-0.1,0.2-0.2,0.3-0.3C301.7,58.8,301.6,58.9,301.5,59z"/>
<path class="st1" d="M303.2,57.7c0.1,0,0.1-0.1,0.2-0.1C303.3,57.6,303.2,57.6,303.2,57.7z"/>
<path class="st1" d="M301.4,59.1C301.5,59.1,301.5,59.1,301.4,59.1C301.5,59.1,301.5,59.1,301.4,59.1z"/>
<path class="st1" d="M303.7,57.4c0,0,0.1,0,0.1-0.1C303.8,57.3,303.8,57.3,303.7,57.4z"/>
<path class="st1" d="M308.3,57.3c0.1,0,0.2,0.1,0.2,0.1C308.4,57.3,308.3,57.3,308.3,57.3z"/>
<path class="st1" d="M308.7,57.4c0.1,0.1,0.3,0.1,0.4,0.2C308.9,57.5,308.8,57.5,308.7,57.4z"/>
<path class="st1" d="M309.3,57.7c0.1,0.1,0.2,0.1,0.3,0.2C309.4,57.8,309.3,57.8,309.3,57.7z"/>
<path class="st1" d="M302.2,58.3c0,0,0.1-0.1,0.1-0.1C302.3,58.2,302.3,58.3,302.2,58.3z"/>
<path class="st1" d="M312,64.1c0,0.2-0.1,0.4-0.1,0.5C311.9,64.5,312,64.3,312,64.1z"/>
<path class="st1" d="M312,64c0-0.1,0-0.2,0-0.4C312.1,63.8,312.1,63.9,312,64C312,64.1,312,64.1,312,64z"/>
<path class="st1" d="M312.2,63c0,0.2,0,0.3,0,0.5C312.1,63.3,312.2,63.1,312.2,63z"/>
<path class="st1" d="M300.8,60.1c0,0,0-0.1,0.1-0.1C300.8,60,300.8,60.1,300.8,60.1z"/>
<path class="st1" d="M301.1,59.6c0,0,0-0.1,0.1-0.1C301.1,59.5,301.1,59.6,301.1,59.6z"/>
<path class="st1" d="M312.2,62.9c0-0.6-0.1-1.1-0.2-1.7l0,0C312.1,61.7,312.2,62.3,312.2,62.9z"/>
<path class="st1" d="M311.9,64.7c-0.1,0.2-0.1,0.4-0.2,0.5C311.7,65,311.8,64.9,311.9,64.7z"/>
<path class="st1" d="M302.7,58c0.1,0,0.1-0.1,0.2-0.1C302.8,57.9,302.7,57.9,302.7,58z"/>
<path class="st1" d="M311.6,60.3c0,0.1,0.1,0.2,0.1,0.3C311.7,60.5,311.6,60.4,311.6,60.3z"/>
<path class="st1" d="M310.2,58.4c0.1,0.1,0.2,0.2,0.3,0.2C310.4,58.6,310.3,58.5,310.2,58.4z"/>
<path class="st1" d="M311,59.3c0.1,0.1,0.2,0.2,0.2,0.3C311.1,59.5,311,59.4,311,59.3z"/>
<path class="st1" d="M310.6,58.8c0.1,0.1,0.2,0.2,0.2,0.3C310.8,59,310.7,58.9,310.6,58.8z"/>
<path class="st1" d="M309.8,58.1c0.1,0.1,0.2,0.1,0.3,0.2C309.9,58.2,309.8,58.1,309.8,58.1z"/>
<path class="st1" d="M301.8,58.7c0,0,0.1-0.1,0.1-0.1C301.9,58.6,301.9,58.7,301.8,58.7z"/>
<path class="st1" d="M311.9,61.1c0-0.1,0-0.1-0.1-0.2C311.9,61,311.9,61.1,311.9,61.1L311.9,61.1z"/>
<path class="st1" d="M311.3,59.7c0.1,0.1,0.1,0.2,0.2,0.3C311.4,60,311.3,59.9,311.3,59.7z"/>
<path class="st1" d="M306.2,68.9c2.4,0,4.6-1.4,5.5-3.7c0.1-0.2,0.1-0.4,0.2-0.5c0,0,0,0,0,0c0.1-0.2,0.1-0.4,0.1-0.5c0,0,0,0,0,0
	c0-0.1,0-0.3,0.1-0.4c0-0.1,0-0.1,0-0.2c0-0.2,0-0.3,0-0.5c0,0,0-0.1,0-0.1c0-0.6-0.1-1.2-0.2-1.7v0c0-0.1,0-0.1-0.1-0.2
	c0-0.1-0.1-0.2-0.1-0.4c0-0.1-0.1-0.2-0.1-0.3c0-0.1-0.1-0.1-0.1-0.2c-0.1-0.1-0.1-0.2-0.2-0.3c0,0-0.1-0.1-0.1-0.2
	c-0.1-0.1-0.1-0.2-0.2-0.3c0,0-0.1-0.1-0.1-0.1c-0.1-0.1-0.2-0.2-0.2-0.3c0-0.1-0.1-0.1-0.1-0.2c-0.1-0.1-0.2-0.2-0.3-0.2
	c-0.1-0.1-0.1-0.1-0.2-0.2c-0.1-0.1-0.2-0.1-0.3-0.2c-0.1-0.1-0.1-0.1-0.2-0.2c-0.1-0.1-0.2-0.1-0.3-0.2c-0.1,0-0.1-0.1-0.2-0.1
	c-0.1-0.1-0.2-0.1-0.4-0.2c-0.1,0-0.1-0.1-0.2-0.1c-0.1,0-0.2-0.1-0.2-0.1c-1.2-0.5-2.5-0.5-3.8-0.1c-0.2,0.1-0.4,0.1-0.6,0.2
	c0,0-0.1,0-0.1,0.1c-0.1,0.1-0.3,0.1-0.4,0.2c-0.1,0-0.1,0.1-0.2,0.1c-0.1,0.1-0.2,0.1-0.3,0.2c-0.1,0-0.1,0.1-0.2,0.1
	c-0.1,0.1-0.2,0.1-0.3,0.2c0,0-0.1,0.1-0.1,0.1c-0.1,0.1-0.2,0.2-0.3,0.3c0,0-0.1,0.1-0.1,0.1c-0.1,0.1-0.2,0.2-0.3,0.3
	c0,0,0,0.1-0.1,0.1c-0.1,0.1-0.2,0.2-0.3,0.4c0,0,0,0.1-0.1,0.1c-0.1,0.1-0.2,0.3-0.2,0.4c0,0,0,0.1-0.1,0.1
	c-0.7,1.3-0.9,2.9-0.4,4.4l1,3.5l3.5,0.7C305.4,68.8,305.8,68.9,306.2,68.9z"/>
<path class="st1" d="M46.2,141c-2.1,0-4.1-1.1-5.2-3c-1.7-2.9-0.7-6.5,2.2-8.2l4.3-2.5c-1.3-1.1-2.7-2-4.3-2.7l-1.6,6
	c-0.7,2.7-3.2,4.4-5.8,4.4c-0.5,0-1.1-0.1-1.6-0.2c-3.2-0.9-5.1-4.2-4.2-7.4l1-3.8c-7.6,2.1-13.3,9.1-13.3,17.4c0,9.9,8.1,18,18,18
	s18-8.1,18-18c0-1.1-0.1-2.2-0.3-3.3l-4.3,2.5C48.3,140.7,47.3,141,46.2,141z M35.8,147c-3.3,0-6-2.7-6-6c0-3.3,2.7-6,6-6
	c3.3,0,6,2.7,6,6C41.8,144.3,39.1,147,35.8,147z"/>
<path class="st1" d="M143.2,113.8C143.3,113.7,143.3,113.7,143.2,113.8C143.3,113.7,143.3,113.7,143.2,113.8z"/>
<path class="st1" d="M133.7,115.2C133.7,115.2,133.7,115.2,133.7,115.2L133.7,115.2C133.7,115.2,133.7,115.2,133.7,115.2z"/>
<path class="st1" d="M139,116.8c0.1,0,0.1,0,0.2,0C139.2,116.8,139.1,116.8,139,116.8z"/>
<path class="st1" d="M142.9,114.3c0,0,0-0.1,0.1-0.1C143,114.2,142.9,114.3,142.9,114.3z"/>
<path class="st1" d="M138,116.9c-0.2,0-0.4,0-0.6,0C137.5,116.9,137.7,116.9,138,116.9L138,116.9z"/>
<path class="st1" d="M135.7,116.5c0,0,0.1,0,0.1,0C135.7,116.5,135.7,116.5,135.7,116.5z"/>
<path class="st1" d="M142.3,115.1c0,0-0.1,0.1-0.1,0.1C142.2,115.2,142.2,115.2,142.3,115.1C142.2,115.1,142.2,115.1,142.3,115.1z"
	/>
<path class="st1" d="M136.2,116.7c0,0,0.1,0,0.1,0C136.3,116.7,136.2,116.7,136.2,116.7z"/>
<path class="st1" d="M138.5,116.9c0,0,0.1,0,0.1,0C138.6,116.9,138.6,116.9,138.5,116.9z"/>
<path class="st1" d="M134.6,115.9C134.6,115.9,134.7,115.9,134.6,115.9C134.7,115.9,134.6,115.9,134.6,115.9z"/>
<path class="st1" d="M135.1,116.2C135.2,116.2,135.2,116.2,135.1,116.2C135.2,116.2,135.2,116.2,135.1,116.2z"/>
<path class="st1" d="M142.6,114.8c0,0,0.1-0.1,0.1-0.1C142.6,114.7,142.6,114.7,142.6,114.8z"/>
<path class="st1" d="M141.7,115.6c0,0,0.1-0.1,0.1-0.1C141.8,115.5,141.8,115.6,141.7,115.6z"/>
<path class="st1" d="M139.6,116.7c0.1,0,0.2,0,0.2-0.1C139.7,116.7,139.6,116.7,139.6,116.7z"/>
<path class="st1" d="M82.7,51C82.8,51,82.8,50.9,82.7,51C82.8,51,82.8,51,82.7,51z"/>
<path class="st1" d="M140.1,116.5c0.1,0,0.2-0.1,0.3-0.1C140.2,116.5,140.2,116.5,140.1,116.5z"/>
<path class="st1" d="M136.8,116.8c0.1,0,0.2,0,0.3,0C137,116.8,136.9,116.8,136.8,116.8z"/>
<path class="st1" d="M140.6,116.3c0.1,0,0.2-0.1,0.2-0.1C140.7,116.2,140.7,116.3,140.6,116.3z"/>
<path class="st1" d="M143.8,112.1C143.8,112.1,143.8,112.1,143.8,112.1L143.8,112.1z"/>
<path class="st1" d="M134.1,115.6C134.2,115.6,134.2,115.6,134.1,115.6C134.2,115.6,134.2,115.6,134.1,115.6z"/>
<path class="st1" d="M141.1,116c0.1,0,0.1-0.1,0.2-0.1C141.2,116,141.2,116,141.1,116z"/>
<path class="st1" d="M143.7,112.7c0-0.1,0.1-0.2,0.1-0.4C143.7,112.5,143.7,112.6,143.7,112.7z"/>
<path class="st1" d="M85.1,62.7l-3.2,0.6l51.7,51.7c-1.3-1.4-1.9-3.4-1.5-5.4l2.4-10.7L88.4,52.9c0.7,0.8,1.2,1.7,1.4,2.8
	C90.4,58.9,88.3,62.1,85.1,62.7z"/>
<path class="st1" d="M143.5,113.2c0-0.1,0.1-0.2,0.1-0.3C143.6,113,143.5,113.1,143.5,113.2z"/>
<path class="st1" d="M133.6,115l0.1,0.1c0,0,0,0,0,0c0.1,0.1,0.3,0.3,0.4,0.4c0,0,0,0,0,0c0.1,0.1,0.3,0.2,0.4,0.3c0,0,0,0,0.1,0
	c0.1,0.1,0.3,0.2,0.4,0.3c0,0,0.1,0,0.1,0c0.1,0.1,0.3,0.1,0.4,0.2c0,0,0.1,0,0.1,0c0.1,0.1,0.3,0.1,0.4,0.2c0,0,0.1,0,0.1,0
	c0.1,0,0.3,0.1,0.4,0.1c0.1,0,0.2,0,0.3,0c0.1,0,0.2,0,0.2,0c0.2,0,0.4,0,0.6,0c0.2,0,0.4,0,0.6,0c0,0,0.1,0,0.1,0
	c0.1,0,0.3,0,0.4-0.1c0.1,0,0.1,0,0.2,0c0.1,0,0.2,0,0.3-0.1c0.1,0,0.2,0,0.2-0.1c0.1,0,0.2-0.1,0.3-0.1c0.1,0,0.2-0.1,0.3-0.1
	s0.2-0.1,0.3-0.1c0.1,0,0.2-0.1,0.2-0.1c0.1,0,0.2-0.1,0.3-0.2c0.1,0,0.1-0.1,0.2-0.1c0.1-0.1,0.3-0.2,0.4-0.3c0,0,0.1-0.1,0.1-0.1
	c0.1-0.1,0.2-0.2,0.3-0.3c0,0,0.1-0.1,0.1-0.1c0.1-0.1,0.2-0.2,0.3-0.3c0,0,0.1-0.1,0.1-0.1c0.1-0.1,0.2-0.2,0.3-0.4
	c0,0,0-0.1,0.1-0.1c0.1-0.1,0.2-0.3,0.3-0.4c0,0,0,0,0-0.1c0.1-0.2,0.2-0.3,0.2-0.5c0-0.1,0.1-0.2,0.1-0.3c0-0.1,0-0.1,0.1-0.2
	c0-0.1,0.1-0.2,0.1-0.4c0-0.1,0-0.2,0.1-0.3l0,0c0.4-1.9-0.2-3.9-1.7-5.4l-7.7-7.7l-2.4,10.7C131.6,111.6,132.3,113.6,133.6,115z"/>
<path class="st1" d="M48.3,60.6C48.3,60.6,48.3,60.6,48.3,60.6C48.3,60.6,48.3,60.6,48.3,60.6z"/>
<path class="st1" d="M50.4,57.9C50.4,57.9,50.4,57.9,50.4,57.9C50.4,57.9,50.4,57.9,50.4,57.9C50.4,57.9,50.4,57.9,50.4,57.9z"/>
<path class="st1" d="M50,58.3C50,58.3,50,58.3,50,58.3C50,58.3,50,58.3,50,58.3C50,58.3,50,58.3,50,58.3z"/>
<path class="st1" d="M50.9,57.6C50.9,57.6,50.9,57.6,50.9,57.6L50.9,57.6C50.9,57.6,50.9,57.6,50.9,57.6z"/>
<path class="st1" d="M89.9,141c2.5,0,4.6,1.5,5.5,3.6L62.3,67.3L58.7,68l-3.6,13l14.3,33.4l4.6-2.7c2.8-1.7,6.5-0.7,8.2,2.1
	c1.7,2.9,0.7,6.5-2.2,8.2l-5.9,3.4l9.7,22.6V147C83.9,143.6,86.6,141,89.9,141z"/>
<path class="st1" d="M52.7,57L52.7,57c0,0-0.1,0-0.1,0C52.6,57,52.6,57,52.7,57C52.6,57,52.7,57,52.7,57z"/>
<path class="st1" d="M95.8,145.8c0.1,0.4,0.1,0.8,0.1,1.2C95.9,146.6,95.9,146.2,95.8,145.8z"/>
<path class="st1" d="M52.2,57.1C52.2,57.1,52.2,57.1,52.2,57.1c0,0-0.1,0-0.2,0.1c0,0,0,0,0,0C52.1,57.1,52.1,57.1,52.2,57.1z"/>
<path class="st1" d="M48.1,61.1C48.1,61.1,48.1,61.2,48.1,61.1C48.1,61.2,48.1,61.2,48.1,61.1C48.1,61.1,48.1,61.1,48.1,61.1z"/>
<path class="st1" d="M50.4,57.9c-0.1,0-0.1,0.1-0.2,0.1c0,0,0,0,0.1,0C50.3,58,50.4,58,50.4,57.9z"/>
<path class="st1" d="M48.3,60.6c0,0.1-0.1,0.2-0.1,0.4c0,0,0,0,0,0C48.2,60.8,48.2,60.7,48.3,60.6z"/>
<path class="st1" d="M43.3,124.5l11.9-43.5l-6.8-15.8c0,0,0,0,0-0.1c0-0.1-0.1-0.2-0.1-0.3c0-0.1-0.1-0.2-0.1-0.3c0,0,0-0.1,0-0.1
	c-0.2-0.7-0.3-1.5-0.2-2.2c0,0,0,0,0,0c0-0.2,0-0.4,0.1-0.5c0,0,0-0.1,0-0.1c0-0.1,0-0.2,0.1-0.3c0,0,0,0,0,0.1l-17,62.3
	c1.5-0.4,3.1-0.6,4.8-0.6C38.5,122.9,41,123.5,43.3,124.5z"/>
<path class="st1" d="M48.5,60.1C48.5,60.1,48.5,60,48.5,60.1c-0.1,0.1-0.1,0.3-0.2,0.4c0,0,0-0.1,0-0.1
	C48.4,60.3,48.5,60.2,48.5,60.1z"/>
<path class="st1" d="M48.3,60.6C48.3,60.6,48.3,60.6,48.3,60.6C48.3,60.6,48.3,60.6,48.3,60.6L48.3,60.6z"/>
<path class="st1" d="M52.3,57.1c0.1,0,0.2,0,0.3-0.1C52.5,57,52.4,57,52.3,57.1z"/>
<path class="st1" d="M51.2,57.5c0.1,0,0.2-0.1,0.3-0.1C51.4,57.4,51.3,57.4,51.2,57.5z"/>
<path class="st1" d="M48.8,59.6C48.8,59.6,48.8,59.5,48.8,59.6c-0.1,0.1-0.2,0.3-0.3,0.4c0,0,0-0.1,0.1-0.1
	C48.7,59.8,48.8,59.7,48.8,59.6z"/>
<path class="st1" d="M52,57.1c-0.1,0-0.2,0.1-0.3,0.1c0,0,0.1,0,0.1,0C51.9,57.2,51.9,57.2,52,57.1z"/>
<path class="st1" d="M49.9,58.3c-0.1,0.1-0.1,0.1-0.2,0.2c0,0,0,0,0,0C49.8,58.4,49.9,58.4,49.9,58.3z"/>
<path class="st1" d="M50.9,57.6c-0.1,0-0.1,0.1-0.2,0.1C50.8,57.7,50.8,57.7,50.9,57.6C50.9,57.6,50.9,57.6,50.9,57.6z"/>
<path class="st1" d="M49.2,59.1C49.2,59.1,49.2,59.1,49.2,59.1c-0.1,0.1-0.2,0.3-0.3,0.4c0,0,0-0.1,0.1-0.1
	C49,59.3,49.1,59.2,49.2,59.1z"/>
<path class="st1" d="M49.6,58.7C49.6,58.7,49.6,58.7,49.6,58.7c-0.1,0.1-0.2,0.2-0.3,0.3c0,0,0,0,0.1-0.1
	C49.4,58.8,49.5,58.7,49.6,58.7z"/>
<path class="st1" d="M34.2,134.7c0.5,0.1,1.1,0.2,1.6,0.2c2.6,0,5.1-1.8,5.8-4.4l1.6-6c-2.3-1-4.8-1.6-7.4-1.6
	c-1.7,0-3.2,0.2-4.8,0.6l-1,3.8C29.2,130.6,31,133.9,34.2,134.7z"/>
<path class="st1" d="M50,58.3C50,58.3,50,58.3,50,58.3c-0.1,0.1-0.1,0.1-0.2,0.2C49.8,58.4,49.9,58.3,50,58.3z"/>
<path class="st1" d="M49,59.4c0.1-0.1,0.1-0.2,0.2-0.3C49.1,59.2,49,59.3,49,59.4z"/>
<path class="st1" d="M49.3,58.9c0.1-0.1,0.1-0.2,0.2-0.3C49.5,58.7,49.4,58.8,49.3,58.9z"/>
<path class="st1" d="M48.1,61.1C48.1,61.2,48.1,61.2,48.1,61.1C48,61.3,48,61.4,48,61.5C48,61.4,48.1,61.3,48.1,61.1z"/>
<path class="st1" d="M48.6,59.9c0.1-0.1,0.1-0.2,0.2-0.3C48.8,59.7,48.7,59.8,48.6,59.9z"/>
<path class="st1" d="M48.2,64.8c0-0.1-0.1-0.2-0.1-0.3C48.1,64.7,48.2,64.8,48.2,64.8z"/>
<path class="st1" d="M47.9,62.2c0-0.2,0-0.4,0.1-0.5C47.9,61.9,47.9,62,47.9,62.2z"/>
<path class="st1" d="M48.4,60.4c0-0.1,0.1-0.2,0.2-0.3C48.5,60.2,48.4,60.3,48.4,60.4z"/>
<path class="st1" d="M48.3,60.6C48.3,60.6,48.3,60.6,48.3,60.6C48.3,60.6,48.3,60.6,48.3,60.6c-0.1,0.2-0.1,0.3-0.1,0.4
	C48.2,60.8,48.2,60.7,48.3,60.6z"/>
<path class="st1" d="M50.4,57.9C50.4,57.9,50.4,57.9,50.4,57.9c-0.1,0-0.1,0.1-0.1,0.1C50.3,58,50.4,58,50.4,57.9z"/>
<path class="st1" d="M52,57.1C52,57.1,52,57.1,52,57.1c-0.1,0-0.1,0-0.2,0.1C51.9,57.2,52,57.2,52,57.1z"/>
<path class="st1" d="M53.8,68.9c-2.4,0-4.6-1.5-5.5-3.7c0,0,0,0,0,0.1l6.8,15.8l3.6-13L55,68.8C54.6,68.8,54.2,68.9,53.8,68.9z"/>
<path class="st1" d="M52.6,57C52.6,57,52.6,57,52.6,57c-0.2,0-0.3,0.1-0.4,0.1c0,0-0.1,0-0.1,0C52.3,57,52.5,57,52.6,57z"/>
<path class="st1" d="M50.9,57.6C50.9,57.6,50.9,57.6,50.9,57.6C50.9,57.6,50.9,57.6,50.9,57.6C50.9,57.6,50.9,57.6,50.9,57.6z"/>
<path class="st1" d="M47.9,62.2c-0.1,0.7,0,1.5,0.2,2.2c0-0.1-0.1-0.3-0.1-0.4C47.8,63.4,47.8,62.8,47.9,62.2z"/>
<path class="st1" d="M47.5,127.2c3.1,2.6,5.3,6.3,6,10.4l20.6-12.1l-4.8-11.1L47.5,127.2z"/>
<path class="st1" d="M47.5,127.2l-4.3,2.5c-2.9,1.7-3.8,5.4-2.2,8.2c1.1,1.9,3.1,3,5.2,3c1,0,2.1-0.3,3-0.8l4.3-2.5
	C52.8,133.5,50.6,129.9,47.5,127.2z"/>
<path class="st1" d="M82.2,113.9c-1.7-2.9-5.4-3.8-8.2-2.2l-4.6,2.7l4.8,11.1l5.9-3.4C82.9,120.4,83.9,116.8,82.2,113.9z"/>
<path class="st1" d="M48.1,61c0,0,0,0.1,0,0.1C48.1,61.1,48.1,61.1,48.1,61C48.1,61,48.1,61,48.1,61z"/>
<path class="st1" d="M48.6,60C48.6,60,48.6,60,48.6,60C48.6,60,48.6,60,48.6,60z"/>
<path class="st1" d="M48.9,59.5C48.9,59.5,48.9,59.5,48.9,59.5C48.9,59.5,48.9,59.5,48.9,59.5z"/>
<path class="st1" d="M50.2,58.1c-0.1,0.1-0.2,0.1-0.3,0.2c0,0,0.1,0,0.1-0.1C50.1,58.2,50.2,58.1,50.2,58.1z"/>
<path class="st1" d="M49.6,58.7c0.1-0.1,0.1-0.1,0.2-0.2C49.7,58.6,49.6,58.6,49.6,58.7z"/>
<path class="st1" d="M49.2,59.1C49.2,59,49.2,59,49.2,59.1C49.2,59,49.2,59,49.2,59.1z"/>
<path class="st1" d="M50.7,57.7c-0.1,0.1-0.2,0.1-0.3,0.2c0,0,0.1,0,0.1-0.1C50.6,57.8,50.7,57.8,50.7,57.7z"/>
<path class="st1" d="M48.3,60.6c0,0,0-0.1,0-0.1C48.3,60.5,48.3,60.5,48.3,60.6z"/>
<path class="st1" d="M53.1,56.9c0.1,0,0.2,0,0.4,0c0.1,0,0.1,0,0.2,0c0.1,0,0.3,0,0.4,0c0.1,0,0.1,0,0.2,0c0.1,0,0.3,0,0.4,0
	c0,0,0.1,0,0.1,0c0.2,0,0.4,0.1,0.6,0.1c0,0,0,0,0,0l0,0c0.2,0.1,0.4,0.1,0.6,0.2c0,0,0,0,0,0c0.2,0.1,0.4,0.1,0.5,0.2c0,0,0,0,0,0
	c0.1,0.1,0.3,0.2,0.4,0.3c0,0,0,0,0.1,0c0.1,0.1,0.2,0.2,0.4,0.3c0,0,0.1,0.1,0.1,0.1c0.1,0.1,0.1,0.1,0.2,0.2
	c0.1,0.1,0.1,0.1,0.2,0.2c0,0,0.1,0.1,0.1,0.1c0.1,0.1,0.2,0.2,0.3,0.3c0,0,0.1,0.1,0.1,0.1c0.1,0.1,0.2,0.2,0.3,0.4
	c0,0,0,0.1,0.1,0.1c0.1,0.1,0.2,0.3,0.3,0.4c0,0,0,0,0,0.1c0.1,0.2,0.2,0.3,0.2,0.5c0,0,0,0,0,0l2.9,6.8l19.6-3.9l-2.3-2.3
	c-2.3-2.3-2.3-6.1,0-8.5c0.9-0.9,2-1.4,3.1-1.7c0,0,0,0,0,0l-30,6c0.1,0,0.1,0,0.2,0C53,56.9,53,56.9,53.1,56.9z"/>
<path class="st1" d="M88.1,52.6l0.3,0.3c-1.3-1.5-3.4-2.3-5.6-1.9C84.7,50.6,86.7,51.2,88.1,52.6z"/>
<path class="st1" d="M51.5,57.3C51.5,57.3,51.5,57.3,51.5,57.3c0.1,0,0.2-0.1,0.2-0.1C51.6,57.3,51.5,57.3,51.5,57.3
	C51.5,57.4,51.5,57.4,51.5,57.3C51.5,57.3,51.5,57.3,51.5,57.3z"/>
<path class="st1" d="M51.2,57.5c-0.1,0-0.2,0.1-0.3,0.1c0,0,0.1,0,0.1,0C51.1,57.5,51.1,57.5,51.2,57.5z"/>
<path class="st1" d="M79.6,61.1l2.3,2.3l3.2-0.6c3.3-0.7,5.4-3.8,4.7-7.1c-0.2-1.1-0.7-2-1.4-2.8l-0.3-0.3c-1.4-1.4-3.4-2-5.3-1.7
	c0,0-0.1,0-0.1,0c-1.1,0.2-2.2,0.8-3.1,1.7C77.3,55,77.3,58.8,79.6,61.1z"/>
<path class="st1" d="M59.4,60.5c0.5,1.2,0.7,2.6,0.3,4l-1,3.6l3.6-0.7L59.4,60.5C59.4,60.5,59.4,60.5,59.4,60.5z"/>
<path class="st1" d="M59.1,59.9C59.1,59.9,59.1,60,59.1,59.9C59.1,60,59.1,60,59.1,59.9z"/>
<path class="st1" d="M53.7,56.9c0.1,0,0.3,0,0.4,0C54,56.9,53.8,56.9,53.7,56.9z"/>
<path class="st1" d="M55.4,57.1c0.2,0.1,0.4,0.1,0.6,0.2C55.8,57.2,55.6,57.1,55.4,57.1z"/>
<path class="st1" d="M57.6,58.1c0.1,0.1,0.1,0.1,0.2,0.2C57.7,58.3,57.6,58.2,57.6,58.1z"/>
<path class="st1" d="M54.3,56.9c0.1,0,0.3,0,0.4,0C54.6,56.9,54.4,56.9,54.3,56.9z"/>
<path class="st1" d="M56.6,57.5c0.2,0.1,0.3,0.2,0.4,0.3C56.9,57.7,56.7,57.6,56.6,57.5z"/>
<path class="st1" d="M57.1,57.8c0.1,0.1,0.2,0.2,0.4,0.3C57.3,58,57.2,57.9,57.1,57.8z"/>
<path class="st1" d="M54.9,56.9c0.2,0,0.4,0.1,0.6,0.1C55.2,57,55.1,57,54.9,56.9z"/>
<path class="st1" d="M51,57.6C51,57.6,51,57.6,51,57.6C50.9,57.6,50.9,57.6,51,57.6C51,57.6,51,57.6,51,57.6z"/>
<path class="st1" d="M50.5,57.9c0,0-0.1,0-0.1,0.1c0,0,0,0,0,0C50.5,57.9,50.5,57.9,50.5,57.9z"/>
<path class="st1" d="M48.1,61C48.1,61.1,48.1,61.1,48.1,61C48.1,61.1,48.1,61.1,48.1,61C48.1,61.1,48.1,61.1,48.1,61z"/>
<path class="st1" d="M52.6,57c0.1,0,0.2,0,0.3,0c-0.1,0-0.1,0-0.2,0L52.6,57C52.7,57,52.6,57,52.6,57z"/>
<path class="st1" d="M56,57.3c0.2,0.1,0.4,0.1,0.5,0.2C56.4,57.4,56.2,57.3,56,57.3z"/>
<path class="st1" d="M50.1,58.2C50,58.2,50,58.2,50.1,58.2L50.1,58.2C50,58.2,50,58.2,50.1,58.2z"/>
<path class="st1" d="M51.5,57.3C51.5,57.3,51.5,57.3,51.5,57.3C51.5,57.3,51.5,57.3,51.5,57.3C51.5,57.3,51.5,57.3,51.5,57.3z"/>
<path class="st1" d="M58,58.5c0,0,0.1,0.1,0.1,0.1C58.1,58.6,58.1,58.6,58,58.5z"/>
<path class="st1" d="M53.1,56.9c0.1,0,0.2,0,0.4,0C53.4,56.9,53.2,56.9,53.1,56.9z"/>
<path class="st1" d="M58.8,59.4C58.8,59.4,58.8,59.5,58.8,59.4C58.8,59.5,58.8,59.4,58.8,59.4z"/>
<path class="st1" d="M58.4,59c0,0,0.1,0.1,0.1,0.1C58.5,59,58.4,59,58.4,59z"/>
<path class="st1" d="M52,57.1c0.1,0,0.1,0,0.2,0C52.1,57.1,52.1,57.1,52,57.1z"/>
<path class="st1" d="M48.2,60.9C48.2,61,48.2,61,48.2,60.9C48.1,61,48.1,61,48.2,60.9C48.1,61,48.2,61,48.2,60.9z"/>
<path class="st1" d="M48.6,59.9c0,0,0,0.1-0.1,0.1c0,0,0,0,0,0.1c0,0,0,0,0,0C48.6,60,48.6,59.9,48.6,59.9z"/>
<path class="st1" d="M48.4,60.4C48.4,60.4,48.4,60.4,48.4,60.4c-0.1,0.1-0.1,0.1-0.1,0.2v0C48.3,60.5,48.4,60.5,48.4,60.4z"/>
<path class="st1" d="M48.1,64.6c0,0,0-0.1,0-0.1C48.1,64.5,48.1,64.5,48.1,64.6z"/>
<path class="st1" d="M49.8,58.5C49.8,58.5,49.7,58.5,49.8,58.5c-0.1,0.1-0.1,0.1-0.2,0.2c0,0,0,0,0,0C49.6,58.6,49.7,58.5,49.8,58.5
	z"/>
<path class="st1" d="M48.3,65.2c0-0.1-0.1-0.2-0.1-0.3C48.2,64.9,48.3,65.1,48.3,65.2z"/>
<path class="st1" d="M49.3,58.9C49.3,58.9,49.3,59,49.3,58.9c-0.1,0.1-0.1,0.1-0.1,0.2c0,0,0,0,0,0C49.2,59,49.3,59,49.3,58.9z"/>
<path class="st1" d="M49,59.4C48.9,59.4,48.9,59.4,49,59.4c-0.1,0.1-0.1,0.1-0.1,0.1c0,0,0,0,0,0C48.9,59.5,48.9,59.4,49,59.4z"/>
<path class="st1" d="M55.4,57.1C55.4,57.1,55.4,57.1,55.4,57.1C55.4,57.1,55.4,57.1,55.4,57.1C55.4,57.1,55.4,57.1,55.4,57.1z"/>
<path class="st1" d="M54.1,56.9c0.1,0,0.1,0,0.2,0C54.2,56.9,54.2,56.9,54.1,56.9z"/>
<path class="st1" d="M52.9,56.9c0.1,0,0.1,0,0.2,0C53,56.9,53,56.9,52.9,56.9z"/>
<path class="st1" d="M54.7,56.9c0,0,0.1,0,0.1,0C54.8,56.9,54.8,56.9,54.7,56.9z"/>
<path class="st1" d="M56.5,57.5C56.5,57.5,56.6,57.5,56.5,57.5C56.6,57.5,56.5,57.5,56.5,57.5z"/>
<path class="st1" d="M53.5,56.9c0.1,0,0.1,0,0.2,0C53.6,56.9,53.6,56.9,53.5,56.9z"/>
<path class="st1" d="M48,61.7c0,0,0-0.1,0-0.1C48,61.6,48,61.6,48,61.7z"/>
<path class="st1" d="M47.9,62.2C47.9,62.2,47.9,62.2,47.9,62.2C47.9,62.2,47.9,62.2,47.9,62.2z"/>
<path class="st1" d="M56,57.3L56,57.3L56,57.3z"/>
<path class="st1" d="M57.8,58.3c0.1,0.1,0.1,0.1,0.2,0.2C57.9,58.5,57.9,58.4,57.8,58.3z"/>
<path class="st1" d="M59.1,60c0.1,0.2,0.2,0.3,0.2,0.5C59.3,60.3,59.2,60.2,59.1,60z"/>
<path class="st1" d="M58.1,58.7c0.1,0.1,0.2,0.2,0.3,0.3C58.3,58.9,58.2,58.8,58.1,58.7z"/>
<path class="st1" d="M57,57.8C57,57.8,57.1,57.8,57,57.8C57.1,57.8,57,57.8,57,57.8z"/>
<path class="st1" d="M51.8,57.2c0,0-0.1,0-0.1,0c0,0-0.1,0-0.1,0C51.7,57.3,51.7,57.2,51.8,57.2z"/>
<path class="st1" d="M58.8,59.5c0.1,0.1,0.2,0.3,0.3,0.4C59,59.8,58.9,59.6,58.8,59.5z"/>
<path class="st1" d="M57.4,58.1c0,0,0.1,0.1,0.1,0.1C57.5,58.1,57.5,58.1,57.4,58.1z"/>
<path class="st1" d="M50.9,57.6c-0.1,0-0.1,0.1-0.2,0.1c-0.1,0-0.1,0.1-0.2,0.1C50.7,57.8,50.8,57.7,50.9,57.6z"/>
<path class="st1" d="M58.5,59.1c0.1,0.1,0.2,0.2,0.3,0.4C58.7,59.3,58.6,59.2,58.5,59.1z"/>
<path class="st1" d="M50.3,58C50.3,58,50.3,58.1,50.3,58c-0.1,0.1-0.2,0.1-0.2,0.2C50.1,58.1,50.2,58.1,50.3,58z"/>
<path class="st1" d="M51.5,57.4C51.5,57.4,51.5,57.4,51.5,57.4c-0.1,0-0.2,0.1-0.3,0.1c-0.1,0-0.1,0.1-0.2,0.1
	C51.2,57.5,51.3,57.4,51.5,57.4z"/>
<path class="st1" d="M59.4,60.5c-0.1-0.2-0.2-0.3-0.2-0.5c0,0,0,0,0-0.1c-0.1-0.1-0.2-0.3-0.3-0.4c0,0,0-0.1-0.1-0.1
	c-0.1-0.1-0.2-0.2-0.3-0.4c0,0-0.1-0.1-0.1-0.1c-0.1-0.1-0.2-0.2-0.3-0.3c0,0-0.1-0.1-0.1-0.1c-0.1-0.1-0.1-0.1-0.2-0.2
	c-0.1-0.1-0.1-0.1-0.2-0.2c0,0-0.1-0.1-0.1-0.1c-0.1-0.1-0.2-0.2-0.4-0.3c0,0,0,0-0.1,0c-0.1-0.1-0.3-0.2-0.4-0.3c0,0,0,0,0,0
	c-0.2-0.1-0.3-0.2-0.5-0.2c0,0,0,0,0,0c-0.2-0.1-0.4-0.1-0.6-0.2c0,0,0,0,0,0c-0.2,0-0.4-0.1-0.6-0.1c0,0-0.1,0-0.1,0
	c-0.1,0-0.3,0-0.4,0c-0.1,0-0.1,0-0.2,0c-0.1,0-0.3,0-0.4,0c-0.1,0-0.1,0-0.2,0c-0.1,0-0.3,0-0.4,0c-0.1,0-0.1,0-0.2,0
	c-0.1,0-0.2,0-0.3,0c-0.1,0-0.3,0.1-0.4,0.1c-0.1,0-0.1,0-0.2,0c-0.1,0-0.1,0-0.2,0.1c-0.1,0-0.2,0.1-0.2,0.1c0,0-0.1,0-0.1,0
	c-0.2,0.1-0.3,0.1-0.5,0.2c0,0-0.1,0-0.1,0c0,0,0,0,0,0c-0.1,0.1-0.3,0.1-0.4,0.2c0,0-0.1,0-0.1,0.1c0,0-0.1,0.1-0.1,0.1
	c-0.1,0.1-0.1,0.1-0.2,0.2c0,0-0.1,0-0.1,0.1c-0.1,0.1-0.1,0.1-0.2,0.2c-0.1,0.1-0.1,0.1-0.2,0.2c-0.1,0.1-0.2,0.2-0.2,0.3
	c0,0.1-0.1,0.1-0.1,0.2c-0.1,0.1-0.1,0.2-0.2,0.3c0,0.1-0.1,0.1-0.1,0.2c-0.1,0.1-0.1,0.2-0.2,0.3c0,0.1-0.1,0.1-0.1,0.2
	c-0.1,0.1-0.1,0.2-0.2,0.3c0,0.1-0.1,0.1-0.1,0.2c0,0.1-0.1,0.2-0.1,0.4c0,0,0,0.1,0,0.1c0,0,0,0.1,0,0.1c0,0.1-0.1,0.3-0.1,0.4
	c0,0,0,0.1,0,0.1c0,0.2-0.1,0.4-0.1,0.5c0,0,0,0,0,0c-0.1,0.6,0,1.2,0.1,1.8c0,0.1,0.1,0.3,0.1,0.4c0,0,0,0.1,0,0.1
	c0,0.1,0.1,0.2,0.1,0.3c0,0.1,0.1,0.2,0.1,0.3c0.9,2.2,3.1,3.7,5.5,3.7c0.4,0,0.8,0,1.2-0.1l3.6-0.7l1-3.6
	C60,63.1,59.9,61.7,59.4,60.5z"/>
<path class="st1" d="M144.8,53.8C144.8,53.8,144.8,53.8,144.8,53.8C144.8,53.8,144.8,53.8,144.8,53.8
	C144.8,53.8,144.8,53.8,144.8,53.8z"/>
<path class="st1" d="M145.7,52.6c0.1-0.1,0.2-0.1,0.2-0.2C145.9,52.4,145.8,52.5,145.7,52.6z"/>
<path class="st1" d="M150.2,50.8c-0.3,0-0.5,0-0.8,0c0.2,0,0.4,0,0.6,0H150.2z"/>
<path class="st1" d="M144.7,53.9C144.7,53.9,144.7,53.9,144.7,53.9C144.7,53.9,144.7,53.9,144.7,53.9
	C144.7,53.9,144.7,53.9,144.7,53.9z"/>
<path class="st1" d="M145.4,53c0.1-0.1,0.1-0.1,0.2-0.2C145.5,52.9,145.4,52.9,145.4,53z"/>
<path class="st1" d="M145,53.5c0-0.1,0.1-0.1,0.1-0.2C145.1,53.3,145.1,53.4,145,53.5z"/>
<path class="st1" d="M176.6,124c0.3-0.1,0.5-0.3,0.7-0.4C177.1,123.7,176.9,123.8,176.6,124z"/>
<path class="st1" d="M148.3,51.1c0.1,0,0.2-0.1,0.4-0.1C148.5,51,148.4,51.1,148.3,51.1z"/>
<path class="st1" d="M148.8,51c0.2,0,0.3-0.1,0.5-0.1C149.1,50.9,149,50.9,148.8,51z"/>
<path class="st1" d="M147.8,51.3C147.8,51.3,147.7,51.3,147.8,51.3c0,0,0.1,0,0.2-0.1C147.9,51.2,147.8,51.2,147.8,51.3z"/>
<path class="st1" d="M146.2,52.2c0.1-0.1,0.2-0.1,0.2-0.2C146.3,52.1,146.3,52.1,146.2,52.2z"/>
<path class="st1" d="M177.5,111.1l-18.8-48.2h-4l-3.2,14.6l15.3,39.2C169.6,113.7,173.3,111.7,177.5,111.1z"/>
<path class="st1" d="M144.5,54.4C144.5,54.4,144.5,54.4,144.5,54.4C144.5,54.5,144.5,54.5,144.5,54.4
	C144.5,54.4,144.5,54.4,144.5,54.4z"/>
<path class="st1" d="M146.7,51.8c0.1,0,0.1-0.1,0.2-0.1C146.8,51.8,146.7,51.8,146.7,51.8z"/>
<path class="st1" d="M147.2,51.5c0.1,0,0.1-0.1,0.2-0.1C147.3,51.5,147.2,51.5,147.2,51.5z"/>
<path class="st1" d="M174,124.6c0.7,0,1.5-0.1,2.2-0.4c0.2-0.1,0.3-0.1,0.5-0.2c0.2-0.1,0.5-0.3,0.7-0.4c2.3-1.5,3.3-4.5,2.2-7.2
	l-2.1-5.3c-4.2,0.6-8,2.6-10.7,5.6l1.6,4.1C169.3,123.1,171.6,124.6,174,124.6z"/>
<path class="st1" d="M144.4,59l0,0.1C144.4,59.1,144.4,59,144.4,59C144.4,59,144.4,59,144.4,59z"/>
<path class="st1" d="M144.2,58.5c0-0.1,0-0.1,0-0.2C144.2,58.4,144.2,58.4,144.2,58.5z"/>
<path class="st1" d="M144,56.8c0-0.1,0-0.2,0-0.4C144,56.5,144,56.7,144,56.8z"/>
<path class="st1" d="M144,56.2c0-0.1,0-0.2,0-0.3C144,56,144,56.1,144,56.2z"/>
<path class="st1" d="M144,57.4c0-0.1,0-0.2,0-0.4C144,57.1,144,57.3,144,57.4z"/>
<path class="st1" d="M150,62.9c-2.5,0-4.6-1.5-5.5-3.7l7.1,18.2l3.2-14.6L150,62.9L150,62.9L150,62.9z"/>
<path class="st1" d="M144.1,57.9c0-0.1,0-0.2,0-0.3C144,57.8,144,57.9,144.1,57.9z"/>
<path class="st1" d="M144.8,53.8C144.8,53.8,144.8,53.8,144.8,53.8C144.8,53.8,144.8,53.9,144.8,53.8
	C144.7,53.9,144.7,53.9,144.8,53.8C144.8,53.9,144.8,53.8,144.8,53.8z"/>
<path class="st1" d="M144.5,54.3C144.5,54.4,144.5,54.4,144.5,54.3c0,0.1,0,0.1,0,0.1C144.5,54.4,144.5,54.4,144.5,54.3z"/>
<path class="st1" d="M144.1,55.6c0-0.1,0-0.1,0.1-0.2C144.1,55.4,144.1,55.5,144.1,55.6z"/>
<path class="st1" d="M144.3,55c0,0,0-0.1,0-0.1C144.3,54.9,144.3,55,144.3,55z"/>
<path class="st1" d="M182.7,123.6c0.2,0.1,0.4,0.3,0.7,0.4C183.1,123.8,182.9,123.7,182.7,123.6z"/>
<path class="st1" d="M213.7,52.1c0,0,0.1,0.1,0.1,0.1C213.8,52.1,213.7,52.1,213.7,52.1z"/>
<path class="st1" d="M210.8,50.9c0.1,0,0.2,0,0.3,0C211,50.9,210.9,50.9,210.8,50.9z"/>
<path class="st1" d="M209.9,50.8L209.9,50.8C209.9,50.9,209.9,50.8,209.9,50.8z"/>
<path class="st1" d="M211.5,51c0,0,0.1,0,0.1,0C211.6,51.1,211.6,51.1,211.5,51z"/>
<path class="st1" d="M210.1,50.9c0.1,0,0.3,0,0.5,0C210.4,50.9,210.3,50.9,210.1,50.9z"/>
<path class="st1" d="M213.3,51.8C213.3,51.8,213.3,51.8,213.3,51.8C213.3,51.8,213.3,51.8,213.3,51.8z"/>
<path class="st1" d="M214.4,52.8c0.1,0.1,0.2,0.2,0.2,0.3C214.6,52.9,214.5,52.8,214.4,52.8z"/>
<path class="st1" d="M215.4,54.1c0.1,0.1,0.1,0.3,0.2,0.4C215.5,54.4,215.4,54.2,215.4,54.1z"/>
<path class="st1" d="M193.2,116.7l15.3-39.2l-3.2-14.6h-4l-18.8,48.2C186.7,111.7,190.4,113.7,193.2,116.7z"/>
<path class="st1" d="M215.1,53.6c0.1,0.1,0.1,0.2,0.2,0.4C215.2,53.9,215.2,53.7,215.1,53.6z"/>
<path class="st1" d="M215.9,55.7C215.9,55.7,215.9,55.7,215.9,55.7C215.9,55.7,215.9,55.7,215.9,55.7L215.9,55.7z"/>
<path class="st1" d="M214.1,52.4c0.1,0.1,0.1,0.1,0.2,0.2C214.2,52.5,214.1,52.5,214.1,52.4z"/>
<path class="st1" d="M215.6,54.6c0.1,0.1,0.1,0.3,0.2,0.4C215.7,54.9,215.7,54.8,215.6,54.6z"/>
<path class="st1" d="M214.8,53.2c0.1,0.1,0.2,0.2,0.2,0.3C214.9,53.4,214.9,53.3,214.8,53.2z"/>
<path class="st1" d="M215.8,55.1c0,0.2,0.1,0.3,0.1,0.5C215.9,55.5,215.8,55.3,215.8,55.1z"/>
<path class="st1" d="M182.5,111.1l-2.1,5.3c-1,2.7,0,5.7,2.3,7.2c0.2,0.1,0.5,0.2,0.7,0.4c0.2,0.1,0.3,0.1,0.5,0.2
	c0.7,0.3,1.4,0.4,2.2,0.4c2.4,0,4.7-1.5,5.6-3.8l1.6-4.1C190.4,113.7,186.7,111.7,182.5,111.1z"/>
<path class="st1" d="M216,56.2c0-0.2,0-0.4-0.1-0.5v0C216,55.9,216,56.1,216,56.2z"/>
<path class="st1" d="M210,62.9h-4.8l3.2,14.6l7.2-18.4c0,0,0-0.1,0-0.1C214.9,61.2,212.6,62.9,210,62.9z"/>
<path class="st1" d="M216,56.3c0,0.2,0,0.4,0,0.6C216,56.6,216,56.5,216,56.3z"/>
<path class="st1" d="M215.9,58.2c0,0.1,0,0.2-0.1,0.3C215.8,58.4,215.9,58.3,215.9,58.2z"/>
<path class="st1" d="M216,57.6c0,0.1,0,0.3-0.1,0.4C216,57.8,216,57.7,216,57.6z"/>
<path class="st1" d="M216,56.9c0,0.2,0,0.4,0,0.5C216,57.3,216,57.1,216,56.9z"/>
<path class="st1" d="M144.8,53.8c0.1-0.1,0.1-0.2,0.2-0.4C144.9,53.6,144.9,53.7,144.8,53.8z"/>
<path class="st1" d="M144.2,55.3c0-0.1,0-0.2,0.1-0.3C144.2,55.1,144.2,55.2,144.2,55.3z"/>
<path class="st1" d="M215.9,55.6C215.9,55.6,215.9,55.7,215.9,55.6C215.9,55.7,215.9,55.7,215.9,55.6z"/>
<path class="st1" d="M146.4,52c0.1-0.1,0.2-0.1,0.2-0.2C146.6,51.9,146.5,52,146.4,52z"/>
<path class="st1" d="M146,52.4c0.1-0.1,0.1-0.1,0.2-0.2C146.1,52.2,146,52.3,146,52.4z"/>
<path class="st1" d="M145.1,53.3c0.1-0.1,0.1-0.2,0.2-0.3C145.3,53.1,145.2,53.2,145.1,53.3z"/>
<path class="st1" d="M215.6,54.5c0,0,0,0.1,0,0.1C215.6,54.6,215.6,54.5,215.6,54.5z"/>
<path class="st1" d="M145.6,52.8c0.1-0.1,0.1-0.1,0.2-0.2C145.7,52.6,145.6,52.7,145.6,52.8z"/>
<path class="st1" d="M215.8,55.1C215.8,55.1,215.8,55.1,215.8,55.1C215.8,55.1,215.8,55.1,215.8,55.1z"/>
<path class="st1" d="M215.3,54c0,0,0,0.1,0.1,0.1C215.4,54.1,215.3,54,215.3,54z"/>
<path class="st1" d="M210.6,50.9c0.1,0,0.1,0,0.2,0C210.7,50.9,210.7,50.9,210.6,50.9z"/>
<path class="st1" d="M149.3,50.9C149.3,50.9,149.3,50.9,149.3,50.9C149.3,50.9,149.3,50.9,149.3,50.9z"/>
<path class="st1" d="M213.3,51.8c0.1,0.1,0.2,0.2,0.4,0.3C213.6,52,213.4,51.9,213.3,51.8z"/>
<path class="st1" d="M210,50.8h-0.1C210,50.8,210.1,50.8,210,50.8C210.1,50.9,210.1,50.8,210,50.8z"/>
<path class="st1" d="M146.9,51.7c0.1-0.1,0.2-0.1,0.3-0.2C147.1,51.6,147,51.7,146.9,51.7z"/>
<path class="st1" d="M213.8,52.2c0.1,0.1,0.2,0.1,0.3,0.2C214,52.3,213.9,52.3,213.8,52.2z"/>
<path class="st1" d="M211.1,51c0.1,0,0.3,0.1,0.4,0.1C211.4,51,211.3,51,211.1,51z"/>
<path class="st1" d="M147.4,51.4c0.1-0.1,0.2-0.1,0.4-0.2C147.6,51.3,147.5,51.4,147.4,51.4z"/>
<path class="st1" d="M214.3,52.6c0.1,0.1,0.1,0.1,0.2,0.2C214.4,52.7,214.3,52.6,214.3,52.6z"/>
<path class="st1" d="M215,53.5c0,0,0.1,0.1,0.1,0.1C215.1,53.6,215,53.5,215,53.5z"/>
<path class="st1" d="M214.7,53c0,0,0.1,0.1,0.1,0.1C214.7,53.1,214.7,53.1,214.7,53z"/>
<path class="st1" d="M147.9,51.2c0.1,0,0.2-0.1,0.3-0.1C148.2,51.1,148,51.2,147.9,51.2z"/>
<path class="st1" d="M148.6,51c0.1,0,0.1,0,0.2,0C148.7,51,148.7,51,148.6,51z"/>
<path class="st1" d="M144.5,54.4c0,0.1-0.1,0.2-0.1,0.3C144.4,54.7,144.4,54.6,144.5,54.4C144.4,54.5,144.5,54.5,144.5,54.4z"/>
<path class="st1" d="M144.7,53.9c-0.1,0.1-0.1,0.2-0.2,0.3c0,0,0,0,0-0.1C144.6,54.1,144.7,54,144.7,53.9z"/>
<path class="st1" d="M155.5,54.5c0,0.1,0.1,0.1,0.1,0.2c0,0,0,0,0,0l3.2,8.2h42.5l3.1-8c0.3-0.8,0.7-1.5,1.3-2.2c0,0,0,0,0,0
	c0.1-0.1,0.3-0.3,0.4-0.4c0,0,0,0,0,0c0.1-0.1,0.3-0.2,0.4-0.3c0,0,0,0,0,0c0.1-0.1,0.3-0.2,0.4-0.3c0,0,0.1,0,0.1-0.1
	c0.1-0.1,0.3-0.1,0.4-0.2c0.1-0.1,0.3-0.1,0.5-0.2c0,0,0,0,0.1,0c0.6-0.2,1.1-0.3,1.7-0.3h-59.7C152.4,50.9,154.5,52.3,155.5,54.5z"
	/>
<path class="st1" d="M213.3,51.8c-0.5-0.3-1-0.6-1.6-0.7c0.2,0,0.4,0.1,0.5,0.2C212.6,51.4,212.9,51.6,213.3,51.8z"/>
<path class="st1" d="M144.3,55C144.3,55,144.2,55,144.3,55c0,0.1-0.1,0.2-0.1,0.3c0,0,0,0.1,0,0.1C144.2,55.2,144.2,55.1,144.3,55z"
	/>
<path class="st1" d="M144.4,54.5c0,0.1-0.1,0.2-0.1,0.3c0,0,0,0.1,0,0.1C144.3,54.7,144.4,54.6,144.4,54.5z"/>
<path class="st1" d="M144.4,59.2L144.4,59.2C144.4,59.2,144.4,59.2,144.4,59.2z"/>
<path class="st1" d="M144.6,54.2C144.6,54.2,144.6,54.2,144.6,54.2c0,0.1-0.1,0.1-0.1,0.1C144.5,54.3,144.6,54.2,144.6,54.2z"/>
<path class="st1" d="M144.3,59c-0.1-0.1-0.1-0.3-0.1-0.5C144.2,58.7,144.3,58.8,144.3,59z"/>
<path class="st1" d="M144,56.9c0,0.1,0,0.1,0,0.2C144,56.9,144,56.9,144,56.9C144,56.8,144,56.8,144,56.9z"/>
<path class="st1" d="M155.5,54.5c0,0.1,0.1,0.1,0.1,0.2C155.5,54.6,155.5,54.5,155.5,54.5z"/>
<path class="st1" d="M144.1,58.3c0-0.1-0.1-0.3-0.1-0.4C144.1,58.1,144.1,58.2,144.1,58.3z"/>
<path class="st1" d="M144,57.7c0-0.1,0-0.2,0-0.3C144,57.5,144,57.6,144,57.7z"/>
<path class="st1" d="M144,56.4c0-0.1,0-0.2,0-0.2C144,56.3,144,56.3,144,56.4z"/>
<path class="st1" d="M144,55.9c0-0.1,0-0.2,0-0.3C144.1,55.7,144.1,55.8,144,55.9z"/>
<path class="st1" d="M215.9,58c0,0.1,0,0.2-0.1,0.3C215.9,58.2,215.9,58.1,215.9,58z"/>
<path class="st1" d="M216,57.4c0,0,0,0.1,0,0.1C216,57.5,216,57.5,216,57.4z"/>
<path class="st1" d="M215.8,58.5c0,0.1-0.1,0.2-0.1,0.4C215.7,58.8,215.8,58.7,215.8,58.5z"/>
<path class="st1" d="M216,56.9C216,56.9,216,56.8,216,56.9C216,56.9,216,56.9,216,56.9C216,56.9,216,56.9,216,56.9z"/>
<path class="st1" d="M205.7,52.7c-0.6,0.6-1.1,1.4-1.3,2.2l0.1-0.1C204.7,53.9,205.2,53.2,205.7,52.7z"/>
<path class="st1" d="M205.7,52.7c0.1-0.1,0.3-0.3,0.4-0.4C206,52.4,205.9,52.5,205.7,52.7z"/>
<path class="st1" d="M206.7,51.9c0.1-0.1,0.3-0.2,0.4-0.3C206.9,51.7,206.8,51.8,206.7,51.9z"/>
<path class="st1" d="M206.2,52.2c0.1-0.1,0.3-0.2,0.4-0.3C206.5,52,206.3,52.1,206.2,52.2z"/>
<path class="st1" d="M207.2,51.6c0.1-0.1,0.3-0.1,0.4-0.2C207.5,51.4,207.3,51.5,207.2,51.6z"/>
<path class="st1" d="M216,56.2C216,56.2,216,56.3,216,56.2C216,56.3,216,56.2,216,56.2z"/>
<path class="st1" d="M208.1,51.2C208.1,51.2,208.1,51.2,208.1,51.2C208.1,51.2,208.1,51.2,208.1,51.2z"/>
<path class="st1" d="M155.8,58.2l-1,4.7h4l-3.2-8.2c0,0,0,0,0,0C156,55.7,156.1,56.9,155.8,58.2z"/>
<path class="st1" d="M144.5,54.4L144.5,54.4C144.5,54.5,144.5,54.5,144.5,54.4C144.5,54.5,144.5,54.5,144.5,54.4z"/>
<path class="st1" d="M144.7,53.9C144.7,53.9,144.7,53.9,144.7,53.9c-0.1,0.1-0.1,0.2-0.1,0.3C144.6,54.1,144.7,54,144.7,53.9z"/>
<path class="st1" d="M151.3,51c1.9,0.4,3.5,1.8,4.2,3.5c-0.9-2.2-3-3.5-5.3-3.6H150c-0.2,0-0.4,0-0.6,0c0,0,0,0-0.1,0
	c-0.2,0-0.3,0-0.5,0.1c-0.1,0-0.1,0-0.2,0c-0.1,0-0.2,0.1-0.4,0.1c-0.1,0-0.2,0.1-0.3,0.1c-0.1,0-0.1,0-0.2,0.1
	c-0.1,0-0.2,0.1-0.4,0.2c-0.1,0-0.1,0.1-0.2,0.1c-0.1,0.1-0.2,0.1-0.3,0.2c-0.1,0-0.1,0.1-0.2,0.1c-0.1,0.1-0.2,0.1-0.2,0.2
	c-0.1,0.1-0.2,0.1-0.2,0.2c-0.1,0.1-0.1,0.1-0.2,0.2c-0.1,0.1-0.2,0.1-0.2,0.2c-0.1,0.1-0.1,0.1-0.2,0.2c-0.1,0.1-0.1,0.1-0.2,0.2
	c-0.1,0.1-0.1,0.2-0.2,0.3c0,0.1-0.1,0.1-0.1,0.2c-0.1,0.1-0.1,0.2-0.2,0.4c0,0,0,0,0,0C146.1,51.6,148.7,50.4,151.3,51z"/>
<path class="st1" d="M150,62.9h4.8l1-4.7c0.3-1.2,0.1-2.4-0.3-3.5c0-0.1-0.1-0.1-0.1-0.2c-0.7-1.7-2.2-3-4.2-3.5
	c-2.6-0.5-5.2,0.7-6.5,2.8c0,0,0,0,0,0.1c-0.1,0.1-0.1,0.2-0.1,0.3c0,0,0,0.1-0.1,0.1c0,0,0,0.1,0,0.1c0,0,0,0,0,0
	c0,0.1-0.1,0.2-0.1,0.4c0,0,0,0.1,0,0.1c0,0.1-0.1,0.2-0.1,0.4c0,0.1,0,0.1-0.1,0.2c0,0.1,0,0.2,0,0.3c0,0.1,0,0.2,0,0.3
	c0,0.1,0,0.2,0,0.2c0,0.1,0,0.2,0,0.4c0,0.1,0,0.2,0,0.2c0,0.1,0,0.2,0,0.4c0,0.1,0,0.2,0,0.3c0,0.1,0,0.2,0,0.3
	c0,0.1,0.1,0.3,0.1,0.4c0,0.1,0,0.1,0,0.2c0,0.1,0.1,0.3,0.1,0.5c0,0.1,0,0.1,0.1,0.2l0,0.1C145.4,61.4,147.5,62.9,150,62.9z"/>
<path class="st1" d="M206.2,52.3C206.2,52.3,206.2,52.3,206.2,52.3C206.2,52.3,206.2,52.3,206.2,52.3z"/>
<path class="st1" d="M205.7,52.7C205.7,52.7,205.7,52.7,205.7,52.7C205.7,52.7,205.7,52.7,205.7,52.7z"/>
<path class="st1" d="M204.2,58.2c-0.3-1.2-0.2-2.3,0.2-3.3l-3.1,8h4L204.2,58.2z"/>
<path class="st1" d="M206.6,51.9C206.6,51.9,206.6,51.9,206.6,51.9C206.6,51.9,206.6,51.9,206.6,51.9z"/>
<path class="st1" d="M207.1,51.6c0,0,0.1,0,0.1-0.1C207.2,51.6,207.1,51.6,207.1,51.6z"/>
<path class="st1" d="M207.6,51.4c0.1-0.1,0.3-0.1,0.5-0.2C207.9,51.2,207.8,51.3,207.6,51.4z"/>
<path class="st1" d="M208.7,51c3.2-0.7,6.4,1.3,7.2,4.6l0,0.1v0c0,0,0,0,0,0c0-0.2-0.1-0.3-0.1-0.5c0,0,0-0.1,0-0.1
	c0-0.1-0.1-0.3-0.2-0.4c0,0,0-0.1,0-0.1c-0.1-0.1-0.1-0.3-0.2-0.4c0,0,0-0.1-0.1-0.1c-0.1-0.1-0.1-0.2-0.2-0.4c0,0-0.1-0.1-0.1-0.1
	c-0.1-0.1-0.2-0.2-0.2-0.3c0,0-0.1-0.1-0.1-0.1c-0.1-0.1-0.2-0.2-0.2-0.3c-0.1-0.1-0.1-0.1-0.2-0.2c-0.1-0.1-0.1-0.1-0.2-0.2
	c-0.1-0.1-0.2-0.1-0.3-0.2c0,0-0.1-0.1-0.1-0.1c-0.1-0.1-0.2-0.2-0.4-0.3c0,0,0,0-0.1,0c-0.3-0.2-0.7-0.4-1-0.5
	c-0.2-0.1-0.4-0.1-0.5-0.2c0,0-0.1,0-0.1,0c-0.1,0-0.3-0.1-0.4-0.1c-0.1,0-0.2,0-0.3,0c-0.1,0-0.1,0-0.2,0c-0.1,0-0.3,0-0.5,0
	c-0.1,0-0.1,0-0.2,0h-0.1c-0.6,0-1.2,0.1-1.7,0.3C208.3,51.1,208.5,51,208.7,51z"/>
<path class="st1" d="M204.2,58.2l1,4.7h4.8c2.6,0,4.8-1.7,5.6-4c0-0.1,0.1-0.2,0.1-0.4c0-0.1,0-0.2,0.1-0.3c0-0.1,0-0.2,0.1-0.3
	c0-0.1,0-0.3,0.1-0.4c0,0,0-0.1,0-0.1c0-0.2,0-0.4,0-0.5c0,0,0,0,0,0c0-0.2,0-0.4,0-0.6c0,0,0,0,0,0c0-0.2,0-0.4-0.1-0.5l0-0.1
	c-0.7-3.2-3.9-5.3-7.2-4.6c-0.2,0-0.4,0.1-0.6,0.2c0,0,0,0-0.1,0c-0.2,0.1-0.3,0.1-0.5,0.2c-0.1,0.1-0.3,0.1-0.4,0.2
	c0,0-0.1,0-0.1,0.1c-0.1,0.1-0.3,0.2-0.4,0.3c0,0,0,0,0,0c-0.1,0.1-0.3,0.2-0.4,0.3c0,0,0,0,0,0c-0.1,0.1-0.3,0.3-0.4,0.4
	c0,0,0,0,0,0c-0.5,0.6-1,1.2-1.3,2l-0.1,0.1C204,55.9,203.9,57,204.2,58.2z"/>
<path class="st1" d="M89.9,159c0.1,0,0.2,0,0.2,0h5.8v-12l0,0c0,2.3-1.4,4.5-3.6,5.5c-0.8,0.3-1.6,0.5-2.4,0.5
	c-2.3,0-4.6-1.4-5.5-3.6l-0.5-1.1V165C83.9,161.7,86.6,159,89.9,159z"/>
<path class="st1" d="M95.4,144.6c0.2,0.4,0.3,0.8,0.4,1.2C95.7,145.4,95.6,144.9,95.4,144.6L95.4,144.6z"/>
<path class="st1" d="M89.9,159h0.2C90.1,159,90,159,89.9,159c-3.3,0-6,2.7-6,6v0C83.9,161.7,86.6,159,89.9,159z"/>
<path class="st1" d="M90.1,159c3.2,0.1,5.8,2.8,5.8,6v-6H90.1z"/>
<path class="st1" d="M90.1,159h-0.2c-3.3,0-6,2.7-6,6c0,3.3,2.7,6,6,6c3.3,0,6-2.7,6-6C95.9,161.7,93.3,159.1,90.1,159z"/>
<path class="st1" d="M89.9,153c0.8,0,1.6-0.1,2.4-0.5c2.3-1,3.6-3.2,3.6-5.5c0-0.4,0-0.8-0.1-1.2c-0.1-0.4-0.2-0.8-0.4-1.2l0,0
	c-0.9-2.1-3-3.6-5.5-3.6c-3.3,0-6,2.7-6,6v1.2l0.5,1.1C85.3,151.6,87.6,153,89.9,153z"/>
<path class="st1" d="M264.6,144.6L264.6,144.6c-0.2,0.3-0.3,0.7-0.4,1.2C264.3,145.4,264.4,145,264.6,144.6z"/>
<path class="st1" d="M270.1,153c-0.8,0-1.6-0.1-2.4-0.5c-2.3-1-3.6-3.2-3.6-5.5v12h6c3.3,0,6,2.7,6,6v-16.8l-0.5,1.1
	C274.7,151.6,272.4,153,270.1,153z"/>
<path class="st1" d="M270.1,159h-6v6C264.1,161.7,266.8,159,270.1,159z"/>
<ellipse class="st1" cx="270.1" cy="165" rx="6" ry="6"/>
<path class="st1" d="M270.1,141c-2.5,0-4.6,1.5-5.5,3.6l0,0c-0.2,0.4-0.3,0.8-0.4,1.2c-0.1,0.4-0.1,0.8-0.1,1.2v0
	c0,2.3,1.4,4.5,3.6,5.5c0.8,0.3,1.6,0.5,2.4,0.5c2.3,0,4.6-1.4,5.5-3.6l0.5-1.1V147C276.1,143.6,273.4,141,270.1,141z"/>
<path class="st1" d="M229.3,281.5c-2,2.6-1.5,6.4,1.2,8.4l3.5,2.6c3.4-2.3,6.7-4.9,9.8-7.7l-6.1-4.6
	C235,278.3,231.2,278.9,229.3,281.5z"/>
<path class="st1" d="M129.5,289.9c2.7-2,3.2-5.8,1.2-8.4c-2-2.7-5.8-3.2-8.4-1.2l-6.1,4.6c3.1,2.8,6.4,5.3,9.8,7.7L129.5,289.9z"/>
</svg>
