<svg id="Layer_1" data-name="Layer 1" xmlns="http://www.w3.org/2000/svg" viewBox="0 0 99.83 99.83"><title>gear</title><path d="M100,56.81V43.37c-6.87-2.45-11.21-3.13-13.39-8.4h0c-2.19-5.28.42-8.87,3.52-15.42L80.63,10c-6.49,3.09-10.12,5.72-15.42,3.52h0c-5.28-2.18-6-6.55-8.4-13.39H43.37C40.94,7,40.25,11.37,35,13.56h0c-5.28,2.2-8.86-.4-15.42-3.52L10,19.54c3.1,6.53,5.72,10.13,3.52,15.42S7,40.94.17,43.37V56.81c6.79,2.41,11.2,3.11,13.39,8.4s-.47,9-3.52,15.42l9.5,9.5C26,87,29.67,84.41,35,86.61h0c5.28,2.19,6,6.57,8.4,13.39H56.81c2.42-6.8,3.12-11.19,8.43-13.4h0c5.25-2.18,8.82.42,15.39,3.54l9.5-9.51C87,74.13,84.41,70.51,86.6,65.21S93.21,59.23,100,56.81ZM50.09,66.72A16.64,16.64,0,1,1,66.72,50.09,16.63,16.63,0,0,1,50.09,66.72Z" transform="translate(-0.17 -0.17)"/></svg>