<?xml version="1.0" standalone="no"?>
<!DOCTYPE svg PUBLIC "-//W3C//DTD SVG 20010904//EN"
 "http://www.w3.org/TR/2001/REC-SVG-20010904/DTD/svg10.dtd">
<svg version="1.0" xmlns="http://www.w3.org/2000/svg"
 width="1000.000000pt" height="1000.000000pt" viewBox="0 0 1000.000000 1000.000000"
 preserveAspectRatio="xMidYMid meet">
<metadata>
Created by potrace 1.11, written by Peter Selinger 2001-2013
</metadata>
<g transform="translate(0.000000,1000.000000) scale(0.100000,-0.100000)"
fill="#000000" stroke="none">
<path d="M2340 8438 c-52 -11 -104 -21 -115 -23 -11 -1 -56 -10 -100 -20 -44
-9 -91 -18 -105 -21 -14 -2 -36 -7 -50 -10 -14 -3 -38 -8 -55 -11 -16 -3 -61
-11 -100 -20 -38 -8 -83 -17 -100 -19 -16 -3 -37 -7 -45 -10 -8 -3 -33 -8 -55
-11 -22 -3 -58 -17 -80 -32 -44 -29 -57 -62 -124 -311 -17 -63 -108 -396 -202
-740 -94 -344 -174 -639 -179 -656 -10 -42 -18 -54 -37 -54 -31 0 -133 -64
-186 -116 -194 -192 -187 -511 14 -696 82 -75 173 -114 289 -124 88 -8 171 9
258 52 164 83 270 266 260 453 l-3 64 270 158 c149 87 272 159 275 159 3 -1
32 -65 64 -143 33 -78 72 -169 87 -202 14 -33 45 -105 68 -160 l41 -100 3
-990 c2 -544 6 -1001 9 -1015 3 -14 9 -50 13 -80 28 -243 128 -559 253 -805
188 -371 496 -721 850 -965 40 -27 75 -50 79 -50 3 0 14 -6 22 -14 26 -22 209
-119 313 -164 167 -74 398 -145 553 -171 33 -6 72 -12 86 -15 14 -2 57 -7 95
-11 38 -4 80 -9 94 -11 30 -5 359 -5 413 0 20 2 56 6 80 10 23 3 65 8 92 11
28 4 57 8 65 10 8 2 31 7 50 10 19 3 70 15 113 26 472 120 861 340 1197 678
167 168 260 283 368 456 53 86 174 318 198 380 85 220 129 376 158 560 9 55
19 118 23 140 3 22 8 484 10 1028 l4 987 159 373 c88 204 163 373 168 375 4 1
28 -11 53 -27 24 -16 130 -84 234 -151 l190 -121 -3 -77 c-7 -189 104 -375
273 -453 72 -34 98 -40 195 -44 277 -12 507 222 494 502 -9 180 -110 331 -277
413 l-80 39 -227 756 c-125 416 -234 768 -241 783 -26 48 -73 65 -344 119
-143 29 -273 55 -290 57 -16 3 -84 17 -150 31 -130 27 -179 31 -221 15 -15 -6
-309 -292 -652 -636 -344 -344 -629 -621 -633 -617 -7 7 -64 250 -76 318 -2
17 -11 57 -20 90 -8 33 -17 71 -20 85 -2 14 -11 54 -19 90 -9 36 -18 76 -20
90 -3 14 -16 72 -29 130 -13 58 -35 161 -50 230 -30 141 -54 188 -110 214 -34
16 -98 18 -875 18 -797 0 -841 -1 -876 -18 -60 -30 -85 -80 -108 -209 -11 -59
-15 -80 -25 -120 -15 -61 -65 -283 -77 -345 -3 -14 -11 -52 -19 -85 -15 -64
-26 -120 -27 -132 0 -5 -4 -17 -8 -29 -5 -11 -11 -38 -14 -60 -4 -21 -10 -52
-15 -69 -5 -16 -17 -69 -27 -117 -10 -49 -21 -88 -25 -88 -4 0 -285 278 -625
618 -341 339 -627 623 -636 631 -33 25 -81 28 -178 9z m3220 -316 c0 -5 -32
-89 -71 -188 -39 -98 -75 -192 -81 -209 -5 -16 -16 -43 -23 -60 -14 -35 -74
-187 -209 -540 -53 -137 -100 -256 -104 -264 -6 -10 -28 -15 -73 -15 l-65 -1
-194 500 c-107 275 -197 507 -201 515 -14 27 -99 253 -99 262 0 4 252 8 560 8
308 0 560 -4 560 -8z m-1740 -1425 c19 -8 49 -13 67 -11 44 3 106 40 127 74
13 22 75 283 120 500 3 14 23 106 46 205 22 99 43 194 46 210 3 17 9 33 13 38
6 6 401 -994 401 -1016 0 -4 -14 -26 -31 -50 -117 -161 -121 -389 -10 -551 96
-139 248 -217 413 -212 156 5 273 65 370 188 46 59 63 93 83 163 39 134 12
288 -72 408 -18 26 -33 51 -33 56 0 6 236 616 389 1005 12 30 18 15 36 -89 3
-16 11 -48 16 -70 12 -43 15 -55 29 -125 5 -25 18 -84 29 -132 11 -47 23 -101
26 -119 3 -18 7 -35 9 -38 2 -3 7 -22 10 -41 9 -59 63 -283 75 -314 32 -80
160 -117 229 -67 15 11 338 330 717 710 380 380 697 691 706 691 9 0 63 -9
120 -21 57 -12 115 -23 129 -25 69 -12 251 -52 256 -56 2 -3 -196 -473 -442
-1044 l-446 -1039 -2 -181 -1 -181 -2245 1 -2245 1 0 175 -1 176 -63 149 c-35
83 -74 173 -86 200 -12 28 -41 95 -65 150 -23 55 -53 124 -66 153 -13 29 -24
55 -24 57 0 2 -11 28 -24 57 -13 29 -49 114 -81 188 -31 74 -62 149 -70 165
-7 17 -61 143 -119 280 -59 138 -111 259 -116 270 -36 76 -179 419 -176 423 5
4 61 18 116 27 19 3 51 10 70 15 19 5 51 11 70 14 19 4 85 17 145 29 l110 24
705 -703 c475 -474 716 -708 740 -717z m4554 864 c10 -29 19 -60 21 -70 2 -9
40 -137 85 -286 45 -148 92 -306 105 -350 13 -44 33 -109 44 -145 11 -35 19
-65 18 -65 -1 -1 -24 -16 -51 -34 -57 -38 -47 -41 -181 49 -49 33 -97 64 -106
68 -38 18 -279 178 -279 185 0 5 71 173 157 375 111 260 159 360 163 346 4
-10 15 -43 24 -73z m-6607 -166 c31 -71 65 -150 76 -175 88 -197 196 -465 190
-471 -4 -4 -24 -16 -43 -27 -19 -11 -144 -83 -277 -161 -133 -77 -246 -141
-252 -141 -8 0 -69 37 -109 66 -2 1 26 110 63 242 36 133 68 249 70 259 3 10
21 77 40 148 30 109 75 272 128 469 l10 38 24 -58 c13 -33 49 -117 80 -189z
m3310 -893 c37 -20 72 -71 78 -115 21 -137 -133 -230 -246 -149 -106 75 -80
233 46 276 38 14 82 9 122 -12z m3860 -163 c12 -7 34 -30 49 -52 22 -34 26
-48 22 -92 -7 -82 -57 -137 -134 -148 -107 -14 -202 90 -174 193 29 106 137
151 237 99z m-7672 -191 c109 -129 -29 -317 -183 -248 -60 27 -87 72 -87 145
0 47 6 67 24 91 24 32 76 61 121 66 37 5 98 -22 125 -54z m5980 -988 l0 -75
-2245 0 -2245 0 0 78 0 77 2245 -2 2245 -3 0 -75z m-1 -775 c0 -341 -6 -503
-20 -587 -5 -32 -30 -162 -38 -203 -11 -50 -77 -256 -100 -308 -14 -32 -26
-64 -26 -72 0 -8 -4 -15 -10 -15 -5 0 -10 -6 -10 -12 -1 -14 -35 -84 -89 -182
-159 -289 -467 -609 -761 -792 -205 -128 -417 -218 -655 -278 -55 -13 -120
-27 -145 -31 -25 -3 -52 -8 -60 -10 -104 -26 -561 -26 -660 0 -8 2 -33 7 -55
10 -98 13 -264 59 -395 107 -571 211 -1044 660 -1283 1218 -47 111 -97 253
-97 278 0 10 -3 22 -7 26 -5 4 -8 11 -9 14 0 4 -3 21 -7 37 -15 63 -43 225
-53 305 -4 30 -7 238 -8 461 l-1 406 2245 -1 2245 -1 -1 -370z"/>
</g>
</svg>
