<?xml version="1.0" encoding="utf-8"?>
<!-- Generator: Adobe Illustrator 23.0.3, SVG Export Plug-In . SVG Version: 6.00 Build 0)  -->
<svg version="1.1" id="Layer_1" xmlns="http://www.w3.org/2000/svg" xmlns:xlink="http://www.w3.org/1999/xlink" x="0px" y="0px"
	 viewBox="0 0 360 360" style="enable-background:new 0 0 360 360;" xml:space="preserve">
<style type="text/css">
	.st0{fill:#353866;}
	.st1{fill:#FAF9F9;}
</style>
<g>
	<rect x="109.04" y="119.19" class="st0" width="141.92" height="5.06"/>
	<path class="st0" d="M109.04,154.67c0,39.13,31.83,70.96,70.96,70.96s70.96-31.83,70.96-70.96v-20.28H109.04V154.67z"/>
	<path class="st0" d="M68.21,82.27l18.48-10.82L74.63,43.31L64.63,79.99C65.93,80.59,67.13,81.36,68.21,82.27z"/>
	<path class="st0" d="M225.62,271.24h-23.66l-18.92,14.19c-0.04,0.03-0.08,0.06-0.12,0.09c-0.08,0.06-0.16,0.11-0.24,0.17
		c-0.12,0.08-0.25,0.15-0.38,0.22c-0.05,0.03-0.11,0.05-0.16,0.07c-0.12,0.05-0.24,0.1-0.36,0.15c-0.04,0.01-0.08,0.03-0.12,0.04
		c-0.17,0.06-0.34,0.11-0.51,0.15c-0.01,0-0.02,0-0.03,0.01c-0.16,0.04-0.33,0.06-0.49,0.08c-0.03,0-0.07,0.01-0.1,0.01
		c-0.17,0.02-0.35,0.03-0.52,0.03c0,0,0,0-0.01,0s0,0-0.01,0c-0.17,0-0.35-0.01-0.52-0.03c-0.03,0-0.07-0.01-0.1-0.01
		c-0.17-0.02-0.33-0.05-0.5-0.09c-0.01,0-0.01,0-0.02,0c-0.17-0.04-0.35-0.09-0.52-0.15c-0.03-0.01-0.06-0.02-0.09-0.03
		c-0.14-0.05-0.27-0.11-0.4-0.17c-0.04-0.02-0.08-0.04-0.12-0.05c-0.15-0.08-0.3-0.16-0.44-0.25c-0.04-0.03-0.08-0.05-0.12-0.08
		c-0.07-0.05-0.14-0.09-0.21-0.15l-18.92-14.19h-23.65c-2.8,0-5.07-2.27-5.07-5.07v-10.13l-15.21,0
		c-19.56,0-35.48,15.92-35.48,35.48l0.01,40.54h202.73v-40.54c0-19.56-15.92-35.48-35.48-35.48l-15.21-0.01v10.13
		C230.68,268.97,228.42,271.24,225.62,271.24z M180.15,326.99c-2.8,0-5.09-2.27-5.09-5.07c0-2.8,2.24-5.07,5.04-5.07h0.06
		c2.8,0,5.07,2.27,5.07,5.07C185.22,324.72,182.95,326.99,180.15,326.99z M180.15,306.71c-2.8,0-5.09-2.27-5.09-5.07
		s2.24-5.07,5.04-5.07h0.06c2.8,0,5.07,2.27,5.07,5.07S182.95,306.71,180.15,306.71z"/>
	<circle class="st0" cx="301.64" cy="88.77" r="5.07"/>
	<path class="st0" d="M137.19,241.67c1.17,0.78,1.98,2.03,2.2,3.47c0,0.02,0.01,0.04,0.01,0.05c0.02,0.13,0.03,0.26,0.04,0.4
		c0,0.04,0,0.08,0.01,0.12c0,0.06,0.01,0.11,0.01,0.17v5.08v10.13h20.27c0.08,0,0.15,0.01,0.23,0.01c0.02,0,0.03,0,0.05,0
		c0.15,0.01,0.31,0.02,0.46,0.04c0.01,0,0.01,0,0.02,0c0.95,0.14,1.81,0.54,2.51,1.12L180,275.04l17.05-12.78
		c0.19-0.16,0.4-0.3,0.61-0.43c0.01,0,0.01-0.01,0.02-0.01c0.13-0.08,0.27-0.15,0.41-0.22c0.02-0.01,0.04-0.02,0.05-0.03
		c0.13-0.06,0.25-0.11,0.38-0.16c0.03-0.01,0.06-0.02,0.1-0.03c0.12-0.04,0.23-0.08,0.35-0.11c0.05-0.01,0.09-0.02,0.14-0.04
		c0.11-0.03,0.22-0.05,0.32-0.06c0.06-0.01,0.12-0.02,0.18-0.03c0.1-0.01,0.2-0.02,0.3-0.03c0.07,0,0.14-0.01,0.21-0.01
		c0.05,0,0.1-0.01,0.15-0.01h20.27v-10.14v-5.07c0-0.03,0-0.05,0-0.08c0-0.11,0.01-0.22,0.02-0.33c0.01-0.07,0.01-0.13,0.02-0.2
		c0.01-0.09,0.03-0.18,0.04-0.27c0.01-0.08,0.03-0.16,0.05-0.24c0.02-0.07,0.03-0.14,0.05-0.2c0.03-0.1,0.05-0.19,0.08-0.29
		c0.02-0.05,0.04-0.1,0.06-0.16c0.04-0.1,0.08-0.21,0.12-0.31c0.02-0.04,0.04-0.09,0.06-0.13c0.05-0.11,0.1-0.21,0.16-0.31
		c0.02-0.04,0.04-0.07,0.07-0.11c0.06-0.11,0.13-0.21,0.2-0.31c0.02-0.03,0.04-0.06,0.06-0.08c0.08-0.11,0.16-0.21,0.25-0.32
		c0.02-0.02,0.03-0.04,0.05-0.05c0.1-0.11,0.21-0.22,0.32-0.32c0.01-0.01,0.01-0.01,0.02-0.02c0.17-0.16,0.35-0.31,0.54-0.44
		l14.71-11.04l-11.93-8.94c-12.99,8.84-28.66,14.02-45.52,14.02c-16.86,0-32.53-5.18-45.52-14.02l-11.93,8.95L137.19,241.67z"/>
	
		<ellipse transform="matrix(0.9732 -0.2298 0.2298 0.9732 -19.9991 15.9183)" class="st0" cx="58.36" cy="93.84" rx="5.07" ry="5.07"/>
	<path class="st0" d="M285.59,42.78l-10.18,23.76l16.51,10.55c1.01-0.84,2.13-1.55,3.33-2.11L285.59,42.78z"/>
	<path class="st0" d="M180,68.5c0.71,0,1.41,0.05,2.09,0.15l15.85-40.69h-35.87l15.84,40.69C178.59,68.55,179.29,68.5,180,68.5z"/>
	<path class="st0" d="M177.75,79.17c-0.19,0.13-0.39,0.24-0.6,0.34c-1.34,0.91-2.22,2.45-2.22,4.19c0,2.8,2.27,5.07,5.07,5.07
		s5.07-2.27,5.07-5.07c0-1.75-0.89-3.29-2.24-4.21c-0.2-0.1-0.39-0.21-0.57-0.33c-0.68-0.34-1.45-0.54-2.26-0.54
		C179.19,78.64,178.43,78.83,177.75,79.17z"/>
	<path class="st0" d="M219.06,72.08c-0.03,0.03-0.07,0.06-0.1,0.09c-0.08,0.07-0.16,0.15-0.24,0.22c-0.05,0.04-0.09,0.07-0.14,0.11
		c-0.09,0.07-0.17,0.13-0.26,0.19c-0.05,0.03-0.1,0.06-0.15,0.1c-0.09,0.06-0.18,0.11-0.28,0.16c-0.05,0.03-0.11,0.05-0.16,0.08
		c-0.09,0.05-0.19,0.09-0.29,0.13c-0.06,0.02-0.11,0.04-0.17,0.07c-0.1,0.04-0.2,0.07-0.3,0.11c-0.05,0.02-0.11,0.03-0.16,0.04
		c-0.08,0.02-0.15,0.05-0.23,0.06c-0.03,0.01-0.06,0.01-0.09,0.01c-0.1,0.02-0.21,0.03-0.31,0.05c-0.06,0.01-0.12,0.02-0.18,0.03
		c-0.17,0.02-0.35,0.03-0.52,0.03c0,0,0,0,0,0c0,0,0,0,0,0c-0.15,0-0.31-0.01-0.46-0.02c-0.04,0-0.09-0.01-0.13-0.02
		c-0.11-0.01-0.22-0.03-0.33-0.05c-0.06-0.01-0.12-0.03-0.18-0.04c-0.09-0.02-0.18-0.04-0.26-0.06c-0.07-0.02-0.13-0.04-0.2-0.06
		c-0.08-0.02-0.15-0.05-0.23-0.08c-0.07-0.03-0.14-0.05-0.21-0.08c-0.07-0.03-0.14-0.06-0.21-0.1c-0.07-0.03-0.13-0.06-0.2-0.1
		c-0.09-0.05-0.17-0.1-0.26-0.15c-0.04-0.03-0.09-0.05-0.14-0.08c-0.13-0.09-0.26-0.18-0.38-0.28c-0.02-0.02-0.04-0.04-0.06-0.06
		c-0.11-0.09-0.21-0.18-0.31-0.28c-0.01-0.01-0.02-0.02-0.03-0.02c-0.01-0.01-0.02-0.03-0.03-0.04c-0.1-0.1-0.19-0.21-0.29-0.32
		c-0.02-0.02-0.03-0.04-0.05-0.05c-0.1-0.12-0.19-0.25-0.28-0.38c0-0.01-0.01-0.01-0.01-0.02c-0.27-0.4-0.48-0.85-0.62-1.33
		c-0.01-0.02-0.01-0.04-0.02-0.06c-0.03-0.1-0.06-0.2-0.08-0.3l-6.52-29.32l-12.88,33.08c2.53,2.72,4.07,6.35,4.07,10.34
		c0,8.38-6.82,15.21-15.21,15.21s-15.21-6.82-15.21-15.21c0-3.99,1.55-7.63,4.07-10.34l-12.88-33.1l-6.49,29.19
		c0,0.01-0.01,0.02-0.01,0.03l-0.02,0.11c-0.01,0.04-0.02,0.07-0.03,0.1c-0.02,0.1-0.05,0.2-0.08,0.31
		c-0.02,0.06-0.04,0.12-0.06,0.18c-0.03,0.08-0.06,0.17-0.09,0.25c-0.06,0.14-0.12,0.28-0.19,0.41c-0.01,0.02-0.02,0.03-0.03,0.05
		c-0.07,0.13-0.14,0.25-0.22,0.37c-0.02,0.03-0.04,0.06-0.06,0.09c-0.07,0.11-0.15,0.21-0.23,0.31c-0.02,0.03-0.05,0.06-0.08,0.09
		c-0.08,0.1-0.17,0.19-0.26,0.28c-0.02,0.02-0.03,0.04-0.05,0.05c-0.01,0.01-0.02,0.02-0.04,0.03c-0.09,0.09-0.19,0.18-0.29,0.26
		c-0.03,0.02-0.06,0.05-0.08,0.07c-0.12,0.1-0.24,0.19-0.37,0.27c-0.05,0.03-0.1,0.06-0.15,0.09c-0.08,0.05-0.16,0.1-0.24,0.14
		c-0.07,0.04-0.14,0.07-0.2,0.1c-0.07,0.03-0.14,0.07-0.21,0.1c-0.07,0.03-0.14,0.06-0.21,0.08c-0.07,0.03-0.15,0.05-0.23,0.08
		c-0.07,0.02-0.13,0.04-0.2,0.06c-0.09,0.02-0.18,0.04-0.26,0.06c-0.06,0.01-0.12,0.03-0.18,0.04c-0.11,0.02-0.22,0.03-0.33,0.05
		c-0.04,0.01-0.09,0.01-0.13,0.02c-0.15,0.01-0.31,0.02-0.46,0.02c0,0,0,0,0,0c0,0,0,0,0,0c-0.17,0-0.35-0.01-0.52-0.03
		c-0.07-0.01-0.13-0.02-0.2-0.03c-0.09-0.01-0.19-0.03-0.28-0.04c-0.03-0.01-0.07-0.01-0.1-0.02c-0.09-0.02-0.18-0.05-0.27-0.08
		c-0.03-0.01-0.07-0.02-0.1-0.03c-0.13-0.04-0.25-0.08-0.37-0.13c-0.03-0.01-0.06-0.02-0.09-0.04c-0.13-0.05-0.25-0.11-0.37-0.17
		c-0.02-0.01-0.05-0.02-0.07-0.04c-0.13-0.07-0.25-0.14-0.37-0.22c-0.02-0.01-0.03-0.02-0.05-0.03c-0.13-0.09-0.25-0.18-0.37-0.27
		c-0.01-0.01-0.02-0.02-0.03-0.02c-0.13-0.1-0.25-0.21-0.36-0.33c0,0-0.01-0.01-0.01-0.01l-0.02-0.02c-0.03-0.03-0.07-0.06-0.1-0.1
		L97.24,28.38L80.68,31.7l27.93,65.18c0.14,0.33,0.26,0.68,0.33,1.04c0.07,0.33,0.1,0.66,0.1,0.99c0,0,0,0,0,0v10.15h141.92V98.92
		c0-0.34,0.03-0.69,0.1-1.04c0.07-0.35,0.18-0.69,0.32-1.01l27.94-65.18l-16.56-3.31L219.06,72.08z"/>
	<path class="st1" d="M180.15,296.58h-0.06c-2.8,0-5.04,2.27-5.04,5.07s2.29,5.07,5.09,5.07c2.8,0,5.07-2.27,5.07-5.07
		S182.95,296.58,180.15,296.58z"/>
	<path class="st1" d="M180.15,316.85h-0.06c-2.8,0-5.04,2.27-5.04,5.07c0,2.8,2.29,5.07,5.09,5.07c2.8,0,5.07-2.27,5.07-5.07
		C185.22,319.12,182.95,316.85,180.15,316.85z"/>
	<path class="st1" d="M73.56,286.45c2.8,0,5.07,2.27,5.07,5.07c0-19.56,15.92-35.48,35.48-35.48c-2.8,0-5.07-2.27-5.07-5.07
		c0-2.8,2.27-5.07,5.07-5.07c-25.15,0-45.62,20.46-45.62,45.62C68.5,288.72,70.76,286.45,73.56,286.45z"/>
	<path class="st1" d="M250.96,250.97c0,2.8-2.27,5.07-5.07,5.07c19.56,0,35.48,15.92,35.48,35.48c0-2.8,2.27-5.07,5.07-5.07
		c2.8,0,5.07,2.27,5.07,5.07c0-25.15-20.46-45.61-45.61-45.62C248.69,245.9,250.96,248.17,250.96,250.97z"/>
	<path class="st1" d="M119.18,250.97c0,2.8-2.27,5.07-5.07,5.07l15.21,0v-7.61l-3.37-2.53l-11.84,0
		C116.91,245.9,119.18,248.16,119.18,250.97z"/>
	
		<ellipse transform="matrix(0.9732 -0.2298 0.2298 0.9732 -54.6079 32.931)" class="st1" cx="114.11" cy="250.97" rx="5.07" ry="5.07"/>
	<path class="st1" d="M230.68,256.03l15.21,0.01c-2.8,0-5.07-2.27-5.07-5.07c0-2.8,2.27-5.07,5.07-5.07c0,0,0,0,0.01,0c0,0,0,0,0,0
		l-11.84-0.01l-3.37,2.53V256.03z"/>
	<path class="st1" d="M240.82,250.97c0,2.8,2.27,5.07,5.07,5.07c2.8,0,5.07-2.27,5.07-5.07c0-2.8-2.26-5.07-5.06-5.07
		c0,0,0,0-0.01,0C243.09,245.9,240.82,248.17,240.82,250.97z"/>
	<path class="st1" d="M73.57,326.99c2.8,0,5.07,2.27,5.07,5.07l-0.01-40.54c0,2.8-2.27,5.07-5.07,5.07c-2.8,0-5.07-2.27-5.07-5.07
		l0.01,40.54C68.5,329.25,70.77,326.99,73.57,326.99z"/>
	<path class="st1" d="M68.53,332.58c-0.01-0.17-0.03-0.34-0.03-0.52C68.5,332.23,68.51,332.41,68.53,332.58z"/>
	<circle class="st1" cx="73.56" cy="291.51" r="5.07"/>
	<path class="st1" d="M73.57,337.12c-2.62,0-4.78-1.99-5.04-4.55c0.26,5.17,4.42,9.33,9.59,9.59
		C75.56,341.91,73.57,339.75,73.57,337.12z"/>
	<path class="st1" d="M73.57,337.12c0-2.8,2.27-5.07,5.07-5.07c0-2.8-2.27-5.07-5.07-5.07c-2.8,0-5.07,2.27-5.07,5.07
		c0,0.18,0.02,0.35,0.03,0.52C68.79,335.13,70.95,337.12,73.57,337.12z"/>
	<path class="st1" d="M286.44,337.12c0,2.63-1.99,4.78-4.55,5.04c5.17-0.26,9.33-4.42,9.59-9.59
		C291.22,335.13,289.06,337.12,286.44,337.12z"/>
	<path class="st1" d="M286.44,296.59c-2.8,0-5.07-2.27-5.07-5.07v40.54h0.01c0-2.8,2.26-5.07,5.06-5.07c2.8,0,5.06,2.27,5.06,5.07
		v-40.54C291.5,294.32,289.24,296.59,286.44,296.59z"/>
	<path class="st1" d="M291.5,332.06c0,0.18-0.02,0.35-0.03,0.52C291.5,332.41,291.5,332.23,291.5,332.06z"/>
	<circle class="st1" cx="286.44" cy="291.52" r="5.07"/>
	<path class="st1" d="M286.44,326.99c-2.8,0-5.06,2.27-5.06,5.07h-0.01c2.8,0,5.07,2.27,5.07,5.07c2.63,0,4.78-1.99,5.04-4.55
		c0.01-0.17,0.03-0.34,0.03-0.52C291.5,329.25,289.24,326.99,286.44,326.99z"/>
	<path class="st1" d="M281.89,342.17c-0.17,0.01-0.34,0.03-0.52,0.03C281.54,342.19,281.72,342.18,281.89,342.17z"/>
	<path class="st1" d="M78.64,342.19c-0.18,0-0.35-0.02-0.52-0.03C78.29,342.18,78.46,342.19,78.64,342.19z"/>
	<path class="st1" d="M276.3,337.12c0-2.8,2.27-5.07,5.07-5.07H78.64v0.01c2.8,0,5.07,2.26,5.07,5.06c0,2.8-2.27,5.06-5.07,5.06
		h202.73C278.57,342.19,276.3,339.93,276.3,337.12z"/>
	<path class="st1" d="M83.71,337.13c0-2.8-2.27-5.06-5.07-5.06v-0.01c0,2.8-2.27,5.07-5.07,5.07c0,2.63,1.99,4.78,4.55,5.04
		c0.17,0.01,0.34,0.03,0.52,0.03C81.44,342.19,83.71,339.93,83.71,337.13z"/>
	<path class="st1" d="M73.57,337.12c2.8,0,5.07-2.27,5.07-5.07C75.83,332.06,73.57,334.32,73.57,337.12z"/>
	<path class="st1" d="M286.44,337.12c-2.8,0-5.07-2.27-5.07-5.07c-2.8,0-5.07,2.27-5.07,5.07c0,2.8,2.27,5.07,5.07,5.07
		c0.18,0,0.35-0.02,0.52-0.03C284.45,341.91,286.44,339.75,286.44,337.12z"/>
	<path class="st1" d="M286.44,337.12c0-2.8-2.27-5.07-5.07-5.07C281.37,334.86,283.63,337.12,286.44,337.12z"/>
	<path class="st1" d="M256.03,159.74c-2.8,0-5.07-2.27-5.07-5.07c0,39.13-31.83,70.96-70.96,70.96s-70.96-31.83-70.96-70.96
		c0,2.8-2.27,5.07-5.07,5.07c-2.8,0-5.07-2.27-5.07-5.07c0,24.09,10.56,45.76,27.3,60.62l5.14-3.86c2.24-1.68,5.41-1.23,7.09,1.01
		c1.68,2.24,1.23,5.41-1.01,7.09l-2.94,2.21c12.99,8.84,28.66,14.02,45.52,14.02c16.86,0,32.53-5.17,45.52-14.02l-2.94-2.21
		c-2.24-1.68-2.7-4.86-1.01-7.09c1.68-2.24,4.86-2.69,7.09-1.01l5.14,3.86c16.73-14.87,27.3-36.53,27.3-60.62
		C261.09,157.47,258.83,159.74,256.03,159.74z"/>
	<polygon class="st1" points="98.91,114.12 98.91,114.13 98.91,114.12 	"/>
	<path class="st1" d="M103.97,124.25h5.07v-5.06h-5.07c-2.8,0-5.07-2.27-5.07-5.07v15.2C98.91,126.52,101.17,124.25,103.97,124.25z"
		/>
	<path class="st1" d="M103.97,149.6c2.8,0,5.07,2.27,5.07,5.07v-20.28h-5.07c-2.8,0-5.07-2.27-5.07-5.07v25.35
		C98.91,151.86,101.17,149.6,103.97,149.6z"/>
	
		<ellipse transform="matrix(0.9732 -0.2298 0.2298 0.9732 -32.7538 28.0258)" class="st1" cx="103.97" cy="154.67" rx="5.07" ry="5.07"/>
	<path class="st1" d="M256.03,134.39h-5.07v20.28c0-2.8,2.27-5.07,5.07-5.07c2.8,0,5.07,2.27,5.07,5.07v-25.35
		C261.09,132.12,258.83,134.39,256.03,134.39z"/>
	<path class="st1" d="M256.03,119.19h-5.07v5.06h5.07c2.8,0,5.07,2.27,5.07,5.07v-15.2C261.09,116.93,258.83,119.19,256.03,119.19z"
		/>
	<circle class="st1" cx="256.03" cy="154.67" r="5.07"/>
	<rect x="109.04" y="124.25" class="st1" width="141.92" height="10.14"/>
	<path class="st1" d="M103.97,134.39h5.07v-10.14h-5.07c-2.8,0-5.07,2.27-5.07,5.07C98.91,132.12,101.17,134.39,103.97,134.39z"/>
	<path class="st1" d="M256.03,124.25h-5.07v10.14h5.07c2.8,0,5.07-2.27,5.07-5.07C261.09,126.52,258.83,124.25,256.03,124.25z"/>
	<polygon class="st1" points="109.04,114.12 109.04,119.19 250.96,119.19 250.96,114.13 250.96,109.06 109.04,109.06 	"/>
	<path class="st1" d="M103.97,119.19h5.07v-5.08c0,2.8-2.27,5.07-5.07,5.07c-2.8,0-5.07-2.26-5.07-5.06c0,0,0,0,0,0.01
		C98.91,116.93,101.17,119.19,103.97,119.19z"/>
	<path class="st1" d="M256.03,119.19c-2.8,0-5.07-2.27-5.07-5.07v5.07H256.03z"/>
	<path class="st1" d="M177.75,79.17c0.68-0.34,1.44-0.53,2.25-0.53c0.81,0,1.58,0.2,2.26,0.54c-1.94-1.29-2.79-3.79-1.91-6.06
		l1.74-4.47c-0.68-0.09-1.38-0.15-2.09-0.15c-0.71,0-1.41,0.05-2.09,0.15l1.74,4.48C180.53,75.38,179.68,77.88,177.75,79.17z"/>
	<path class="st1" d="M185.07,80.02c-0.61,0-1.23-0.11-1.83-0.34c-0.14-0.05-0.27-0.12-0.41-0.18c1.35,0.91,2.24,2.45,2.24,4.21
		c0,2.8-2.27,5.07-5.07,5.07s-5.07-2.27-5.07-5.07c0-1.74,0.88-3.28,2.22-4.19c-0.13,0.06-0.25,0.12-0.39,0.17
		c-0.6,0.24-1.22,0.35-1.83,0.35c-2.03,0-3.94-1.23-4.72-3.23l-1.34-3.44c-2.53,2.72-4.07,6.35-4.07,10.34
		c0,8.38,6.82,15.21,15.21,15.21s15.21-6.82,15.21-15.21c0-3.99-1.55-7.63-4.07-10.34l-1.34,3.44
		C189.01,78.8,187.1,80.02,185.07,80.02z"/>
	<path class="st1" d="M305.57,74.08l0.93,3.1c0.8,2.68-0.72,5.5-3.4,6.31c-0.49,0.14-0.97,0.21-1.45,0.21c2.8,0,5.07,2.27,5.07,5.07
		c0,2.8-2.27,5.07-5.07,5.07c-2.8,0-5.07-2.27-5.07-5.07c0-2.8,2.27-5.07,5.07-5.07c-1.77,0-3.43-0.93-4.34-2.45
		c0.87,1.57,0.87,3.56-0.17,5.18c-0.97,1.52-2.61,2.34-4.28,2.34c-0.94,0-1.88-0.26-2.72-0.8l-3.41-2.18
		c-0.19,0.96-0.29,1.95-0.29,2.97c0,8.38,6.82,15.21,15.21,15.21c8.38,0,15.21-6.82,15.21-15.21
		C316.85,81.75,312.05,75.82,305.57,74.08z"/>
	<path class="st1" d="M295.25,74.98c-1.2,0.56-2.32,1.27-3.33,2.11l3.67,2.34c0.73,0.47,1.3,1.09,1.69,1.79
		c-0.21-0.35-0.38-0.73-0.5-1.13L295.25,74.98z"/>
	<path class="st1" d="M140.95,72.09c0.12,0.11,0.24,0.22,0.36,0.33C141.19,72.32,141.07,72.21,140.95,72.09z"/>
	<path class="st1" d="M148.07,72.12c-0.09,0.09-0.19,0.18-0.29,0.26C147.88,72.29,147.98,72.21,148.07,72.12z"/>
	<path class="st1" d="M142.21,73.01c0.12,0.06,0.25,0.12,0.37,0.17C142.46,73.13,142.33,73.07,142.21,73.01z"/>
	<path class="st1" d="M141.76,72.75c0.12,0.08,0.25,0.15,0.37,0.22C142.01,72.9,141.89,72.83,141.76,72.75z"/>
	<path class="st1" d="M141.34,72.45c0.12,0.1,0.24,0.19,0.37,0.27C141.59,72.63,141.46,72.54,141.34,72.45z"/>
	<path class="st1" d="M150.08,20.71c-0.02,0.04-0.04,0.09-0.06,0.13c0.01-0.03,0.03-0.05,0.04-0.08
		C150.07,20.74,150.08,20.73,150.08,20.71z"/>
	<path class="st1" d="M149.88,21.2c0.01-0.02,0.02-0.05,0.03-0.07c-0.03,0.07-0.05,0.14-0.08,0.21c0-0.01,0.01-0.01,0.01-0.02
		C149.85,21.27,149.87,21.24,149.88,21.2z"/>
	<path class="st1" d="M143.52,73.47c-0.13-0.03-0.25-0.06-0.37-0.09c0.09,0.03,0.18,0.05,0.27,0.08
		C143.45,73.46,143.49,73.46,143.52,73.47z"/>
	<path class="st1" d="M149.5,69.46l6.49-29.19l-5.99-15.39c-0.01-0.02-0.02-0.04-0.03-0.07l-0.03-0.09
		c-0.01-0.02-0.01-0.04-0.02-0.06c-0.05-0.13-0.09-0.25-0.13-0.39c-0.01-0.05-0.03-0.1-0.04-0.15c-0.03-0.11-0.05-0.21-0.07-0.32
		c-0.01-0.08-0.02-0.15-0.03-0.23c-0.01-0.08-0.02-0.17-0.03-0.25c-0.01-0.1-0.01-0.2-0.02-0.3c0-0.05-0.01-0.09-0.01-0.14
		c0-0.02,0-0.04,0-0.06c0-0.1,0.01-0.21,0.02-0.31c0-0.07,0.01-0.14,0.02-0.2c0.01-0.09,0.02-0.17,0.04-0.26
		c0.01-0.08,0.03-0.17,0.04-0.25c0.01-0.06,0.03-0.12,0.05-0.18c0.01-0.02,0.01-0.05,0.02-0.07c-0.02,0.08-0.05,0.16-0.07,0.24
		l-8.13,36.6l6.53,6.53C149.34,66.15,149.81,67.86,149.5,69.46z"/>
	<path class="st1" d="M146.94,72.95c0.08-0.04,0.16-0.09,0.24-0.14C147.1,72.86,147.02,72.91,146.94,72.95z"/>
	<path class="st1" d="M142.67,73.22c0.12,0.05,0.25,0.09,0.37,0.13C142.92,73.31,142.8,73.27,142.67,73.22z"/>
	<path class="st1" d="M149.49,69.49c-0.01,0.07-0.03,0.14-0.05,0.21c0.01-0.03,0.02-0.07,0.03-0.1L149.49,69.49z"/>
	<path class="st1" d="M140.92,72.06l-0.1-0.1C140.85,72,140.89,72.03,140.92,72.06z"/>
	<path class="st1" d="M144.99,73.55c-0.15,0.01-0.31,0.02-0.46,0.02c0,0,0,0,0,0C144.68,73.57,144.83,73.56,144.99,73.55z"/>
	<path class="st1" d="M150.25,20.38c0.01-0.01,0.02-0.03,0.03-0.04C150.27,20.35,150.26,20.36,150.25,20.38z"/>
	<path class="st1" d="M145.62,73.44c0.09-0.02,0.18-0.04,0.26-0.06C145.79,73.4,145.71,73.42,145.62,73.44z"/>
	<path class="st1" d="M149.3,70.19c0.02-0.06,0.04-0.12,0.06-0.18C149.34,70.07,149.32,70.13,149.3,70.19z"/>
	<path class="st1" d="M146.52,73.15c0.07-0.03,0.14-0.06,0.21-0.1C146.66,73.09,146.59,73.12,146.52,73.15z"/>
	<path class="st1" d="M148.15,72.03c0.09-0.09,0.17-0.19,0.26-0.28C148.33,71.84,148.24,71.94,148.15,72.03z"/>
	<path class="st1" d="M149.01,70.85c0.07-0.13,0.13-0.27,0.19-0.41C149.15,70.58,149.08,70.71,149.01,70.85z"/>
	<path class="st1" d="M147.33,72.72c0.13-0.09,0.25-0.18,0.37-0.27C147.58,72.54,147.45,72.63,147.33,72.72z"/>
	<path class="st1" d="M148.48,71.66c0.08-0.1,0.15-0.2,0.23-0.31C148.64,71.45,148.56,71.56,148.48,71.66z"/>
	<path class="st1" d="M146.08,73.32c0.08-0.02,0.15-0.05,0.23-0.08C146.23,73.27,146.16,73.29,146.08,73.32z"/>
	<path class="st1" d="M143.8,73.51c0.07,0.01,0.13,0.02,0.2,0.03C143.93,73.53,143.87,73.52,143.8,73.51z"/>
	<path class="st1" d="M148.77,71.26c0.08-0.12,0.15-0.24,0.22-0.37C148.92,71.02,148.85,71.14,148.77,71.26z"/>
	<path class="st1" d="M145.11,73.53c0.11-0.01,0.22-0.03,0.33-0.05C145.33,73.5,145.22,73.52,145.11,73.53z"/>
	<path class="st1" d="M212.81,72.8c0.08,0.05,0.17,0.1,0.26,0.15C212.98,72.91,212.89,72.86,212.81,72.8z"/>
	<path class="st1" d="M213.27,73.05c0.07,0.03,0.14,0.07,0.21,0.1C213.41,73.12,213.34,73.09,213.27,73.05z"/>
	<path class="st1" d="M216.81,73.39c-0.11,0.03-0.21,0.06-0.32,0.08c0.03-0.01,0.06-0.01,0.09-0.01
		C216.65,73.43,216.73,73.41,216.81,73.39z"/>
	<path class="st1" d="M212.23,72.39c-0.11-0.09-0.21-0.18-0.31-0.28C212.02,72.21,212.13,72.3,212.23,72.39z"/>
	<path class="st1" d="M215.48,73.57c-0.15,0-0.31-0.01-0.46-0.02C215.17,73.56,215.32,73.57,215.48,73.57
		C215.47,73.57,215.48,73.57,215.48,73.57z"/>
	<path class="st1" d="M216,73.54c0.06-0.01,0.12-0.02,0.18-0.03C216.12,73.52,216.06,73.53,216,73.54z"/>
	<path class="st1" d="M217.89,72.95c0.09-0.05,0.19-0.11,0.28-0.16C218.08,72.85,217.99,72.9,217.89,72.95z"/>
	<path class="st1" d="M218.32,72.69c0.09-0.06,0.18-0.13,0.26-0.19C218.5,72.57,218.41,72.63,218.32,72.69z"/>
	<path class="st1" d="M217.44,73.17c0.1-0.04,0.19-0.09,0.29-0.13C217.64,73.08,217.54,73.13,217.44,73.17z"/>
	<path class="st1" d="M213.69,73.24c0.08,0.03,0.15,0.05,0.23,0.08C213.84,73.29,213.76,73.27,213.69,73.24z"/>
	<path class="st1" d="M218.72,72.39c0.08-0.07,0.16-0.14,0.24-0.22C218.88,72.25,218.8,72.32,218.72,72.39z"/>
	<path class="st1" d="M214.56,73.48c0.11,0.02,0.22,0.03,0.33,0.05C214.78,73.52,214.67,73.5,214.56,73.48z"/>
	<path class="st1" d="M216.97,73.34c0.1-0.03,0.2-0.07,0.3-0.11C217.17,73.27,217.07,73.31,216.97,73.34z"/>
	<path class="st1" d="M214.12,73.38c0.09,0.02,0.18,0.04,0.26,0.06C214.29,73.42,214.21,73.4,214.12,73.38z"/>
	<path class="st1" d="M212.3,72.44c0.12,0.1,0.25,0.19,0.38,0.28C212.55,72.63,212.42,72.54,212.3,72.44z"/>
	<path class="st1" d="M210.39,22.38c0.02,0.16,0.02,0.33,0.02,0.49c0,0,0,0.01,0,0.01c0,0.01,0,0.02,0,0.03
		c0,0.15-0.01,0.3-0.02,0.46c0,0.04-0.01,0.08-0.01,0.12c-0.01,0.12-0.03,0.24-0.05,0.36c-0.01,0.07-0.03,0.14-0.05,0.21
		c-0.02,0.08-0.04,0.17-0.06,0.25c-0.03,0.1-0.06,0.2-0.1,0.3c-0.01,0.04-0.03,0.08-0.04,0.12l-6.05,15.55l6.52,29.32
		c0.02,0.1,0.05,0.2,0.08,0.3c-0.49-1.71-0.06-3.63,1.29-4.98l6.53-6.53l-8.11-36.49c0.03,0.15,0.05,0.3,0.07,0.46
		C210.38,22.37,210.38,22.37,210.39,22.38z"/>
	<path class="st1" d="M211.58,71.73c0.09,0.11,0.19,0.21,0.29,0.32C211.76,71.94,211.67,71.84,211.58,71.73z"/>
	<path class="st1" d="M210.62,69.96c0.14,0.48,0.35,0.93,0.62,1.33C210.97,70.87,210.76,70.42,210.62,69.96z"/>
	<path class="st1" d="M211.25,71.3c0.09,0.13,0.18,0.25,0.28,0.38C211.43,71.55,211.34,71.43,211.25,71.3z"/>
	<path class="st1" d="M213.92,73.32c0.07,0.02,0.13,0.04,0.2,0.06C214.05,73.36,213.98,73.34,213.92,73.32z"/>
	<path class="st1" d="M214.89,73.53c0.04,0.01,0.09,0.01,0.13,0.02C214.97,73.54,214.93,73.53,214.89,73.53z"/>
	<path class="st1" d="M218.58,72.5c0.05-0.04,0.09-0.07,0.14-0.11C218.68,72.43,218.63,72.46,218.58,72.5z"/>
	<path class="st1" d="M211.92,72.11c-0.02-0.02-0.04-0.04-0.06-0.06c0.01,0.01,0.02,0.03,0.03,0.04
		C211.9,72.09,211.91,72.1,211.92,72.11z"/>
	<path class="st1" d="M214.38,73.44c0.06,0.01,0.12,0.03,0.18,0.04C214.5,73.47,214.44,73.46,214.38,73.44z"/>
	<path class="st1" d="M210.61,69.9c0.01,0.02,0.01,0.04,0.02,0.06C210.62,69.94,210.61,69.92,210.61,69.9z"/>
	<path class="st1" d="M217.73,73.04c0.05-0.03,0.11-0.05,0.16-0.08C217.84,72.98,217.79,73.01,217.73,73.04z"/>
	<path class="st1" d="M211.24,71.28c0,0.01,0.01,0.01,0.01,0.02C211.25,71.29,211.25,71.29,211.24,71.28z"/>
	<path class="st1" d="M216.81,73.39c0.05-0.01,0.11-0.03,0.16-0.04C216.92,73.36,216.86,73.37,216.81,73.39z"/>
	<path class="st1" d="M216.18,73.51c0.1-0.01,0.21-0.03,0.31-0.05C216.38,73.48,216.28,73.5,216.18,73.51z"/>
	<path class="st1" d="M213.07,72.95c0.07,0.04,0.13,0.07,0.2,0.1C213.2,73.02,213.13,72.99,213.07,72.95z"/>
	<path class="st1" d="M217.27,73.24c0.06-0.02,0.11-0.04,0.17-0.07C217.39,73.19,217.33,73.21,217.27,73.24z"/>
	<path class="st1" d="M211.53,71.67c0.01,0.02,0.03,0.04,0.05,0.05C211.56,71.71,211.54,71.69,211.53,71.67z"/>
	<path class="st1" d="M212.23,72.39c0.02,0.02,0.04,0.04,0.06,0.06C212.27,72.42,212.25,72.41,212.23,72.39z"/>
	<path class="st1" d="M216,73.54c-0.18,0.02-0.35,0.03-0.53,0.03c0,0,0,0,0,0C215.65,73.57,215.83,73.56,216,73.54z"/>
	<path class="st1" d="M212.67,72.72c0.04,0.03,0.09,0.05,0.14,0.08C212.77,72.77,212.72,72.75,212.67,72.72z"/>
	<path class="st1" d="M213.48,73.15c0.07,0.03,0.14,0.06,0.21,0.08C213.62,73.21,213.55,73.18,213.48,73.15z"/>
	<path class="st1" d="M218.17,72.79c0.05-0.03,0.1-0.06,0.15-0.1C218.27,72.73,218.22,72.76,218.17,72.79z"/>
	<path class="st1" d="M218.96,72.17c0.03-0.03,0.07-0.06,0.1-0.09l43.7-43.7l-2.66-0.53c-2.74-0.55-4.53-3.22-3.97-5.97
		c0.19-0.96,0.64-1.8,1.27-2.47l-38.97,38.97l2,9.02C220.82,69.2,220.21,70.99,218.96,72.17z"/>
	<path class="st1" d="M210.61,69.9c0.01,0.02,0.01,0.04,0.02,0.06c0.14,0.46,0.35,0.91,0.62,1.33c0,0.01,0.01,0.01,0.01,0.02
		c0.09,0.13,0.18,0.25,0.28,0.38c0.01,0.02,0.03,0.04,0.05,0.05c0.09,0.11,0.19,0.21,0.29,0.32c0.02,0.02,0.04,0.04,0.06,0.06
		c0.1,0.1,0.2,0.19,0.31,0.28c0.02,0.02,0.04,0.04,0.06,0.06c0.12,0.1,0.25,0.19,0.38,0.28c0.04,0.03,0.09,0.05,0.14,0.08
		c0.08,0.05,0.17,0.1,0.26,0.15c0.07,0.04,0.13,0.07,0.2,0.1c0.07,0.03,0.14,0.07,0.21,0.1c0.07,0.03,0.14,0.06,0.21,0.08
		c0.08,0.03,0.15,0.06,0.23,0.08c0.07,0.02,0.13,0.04,0.2,0.06c0.09,0.02,0.18,0.05,0.26,0.06c0.06,0.01,0.12,0.03,0.18,0.04
		c0.11,0.02,0.22,0.03,0.33,0.05c0.04,0.01,0.08,0.01,0.13,0.02c0.15,0.01,0.31,0.02,0.46,0.02c0.17,0,0.35-0.01,0.53-0.03
		c0.06-0.01,0.12-0.02,0.18-0.03c0.1-0.01,0.21-0.03,0.31-0.05c0.11-0.02,0.21-0.05,0.32-0.08c0.05-0.01,0.11-0.03,0.16-0.04
		c0.1-0.03,0.2-0.07,0.3-0.11c0.06-0.02,0.11-0.04,0.17-0.07c0.1-0.04,0.19-0.09,0.29-0.13c0.05-0.03,0.11-0.05,0.16-0.08
		c0.09-0.05,0.19-0.11,0.28-0.16c0.05-0.03,0.1-0.06,0.15-0.1c0.09-0.06,0.18-0.13,0.26-0.19c0.05-0.04,0.1-0.07,0.14-0.11
		c0.08-0.07,0.16-0.14,0.24-0.22c1.25-1.19,1.86-2.97,1.46-4.77l-2-9.02l-6.53,6.53C210.54,66.27,210.12,68.19,210.61,69.9z"/>
	<path class="st1" d="M250.96,98.92v-0.02c0-0.35,0.04-0.69,0.1-1.02C250.99,98.23,250.96,98.58,250.96,98.92z"/>
	<path class="st1" d="M287.44,22.98c0.08,0.02,0.16,0.04,0.24,0.06C287.59,23.02,287.52,23,287.44,22.98z"/>
	<path class="st1" d="M264.79,65.77c1.51-2.37,4.64-3.05,7-1.55l3.62,2.31l10.18-23.76l-3.14-10.46l-3.14-0.63l-27.94,65.18
		c0.78-1.79,2.56-3.04,4.64-3.04c2.8,0,5.07,2.27,5.07,5.07v1.04l10.27-23.96l-5.03-3.21C263.97,71.26,263.28,68.13,264.79,65.77z"
		/>
	<path class="st1" d="M291.51,27.97c0,0.02,0,0.05,0,0.07c0,0.14-0.01,0.28-0.02,0.42c-0.01,0.06-0.02,0.12-0.03,0.18
		c-0.01,0.1-0.02,0.2-0.04,0.3c0,0.01,0,0.01-0.01,0.02c0,0.01-0.01,0.02-0.01,0.04c-0.03,0.15-0.07,0.3-0.12,0.45
		c0,0.01-0.01,0.02-0.01,0.04c-0.05,0.15-0.1,0.3-0.17,0.45c0,0,0,0.01,0,0.01l-5.5,12.83l9.66,32.2c1.94-0.9,4.11-1.41,6.39-1.41
		c1.36,0,2.67,0.18,3.93,0.52l-14.26-47.52C291.44,27.02,291.51,27.49,291.51,27.97z"/>
	<path class="st1" d="M295.25,74.98l1.53,5.11c0.12,0.41,0.29,0.79,0.5,1.13c0.01,0.01,0.01,0.02,0.02,0.03
		c0.92,1.52,2.57,2.45,4.34,2.45c0.48,0,0.97-0.07,1.45-0.21c2.68-0.81,4.2-3.63,3.4-6.31l-0.93-3.1c-1.25-0.34-2.57-0.52-3.93-0.52
		C299.36,73.57,297.2,74.08,295.25,74.98z"/>
	<path class="st1" d="M291.4,28.97c0,0.01-0.01,0.02-0.01,0.04C291.4,28.99,291.4,28.98,291.4,28.97z"/>
	<path class="st1" d="M291.28,29.45c0,0.01-0.01,0.02-0.01,0.04C291.27,29.48,291.27,29.47,291.28,29.45z"/>
	<path class="st1" d="M291.48,28.46c-0.01,0.06-0.02,0.12-0.03,0.18C291.46,28.59,291.47,28.53,291.48,28.46z"/>
	<path class="st1" d="M291.51,27.97c0,0.02,0,0.05,0,0.07C291.5,28.02,291.51,28,291.51,27.97z"/>
	<path class="st1" d="M291.1,29.94c-0.79,1.86-2.63,3.08-4.66,3.08c-0.33,0-0.66-0.03-1-0.1l-2.99-0.6l3.14,10.46l5.5-12.83
		C291.1,29.95,291.1,29.94,291.1,29.94z"/>
	<path class="st1" d="M291.92,77.09l-16.51-10.55l-4.05,9.44l15.37,9.82C287.42,82.33,289.3,79.28,291.92,77.09z"/>
	<path class="st1" d="M292.86,88.77c1.67,0,3.31-0.83,4.28-2.34c1.03-1.62,1.03-3.6,0.17-5.18c-0.01-0.01-0.01-0.02-0.02-0.03
		c-0.4-0.71-0.96-1.33-1.69-1.79l-3.67-2.34c-2.62,2.19-4.5,5.24-5.19,8.71l3.41,2.18C290.98,88.51,291.92,88.77,292.86,88.77z"/>
	<path class="st1" d="M271.79,64.23c-2.36-1.51-5.49-0.82-7,1.55c-1.51,2.36-0.82,5.49,1.55,7l5.03,3.21l4.05-9.44L271.79,64.23z"/>
	<path class="st1" d="M297.3,81.26c-0.01-0.01-0.01-0.02-0.02-0.03C297.29,81.24,297.29,81.25,297.3,81.26z"/>
	<path class="st1" d="M288.42,23.29c0,0,0.01,0,0.01,0.01c0.04,0.02,0.08,0.04,0.13,0.06c0.1,0.05,0.21,0.1,0.31,0.15
		c0.06,0.03,0.12,0.07,0.18,0.11c0.08,0.05,0.16,0.1,0.24,0.15c0.06,0.04,0.12,0.09,0.18,0.13c0.07,0.05,0.15,0.11,0.22,0.17
		c0.05,0.05,0.11,0.09,0.16,0.14c0.07,0.06,0.14,0.13,0.21,0.2c0.04,0.04,0.08,0.09,0.12,0.14c0.07,0.08,0.14,0.15,0.21,0.24
		c0.03,0.04,0.06,0.09,0.1,0.13c0.07,0.09,0.13,0.18,0.2,0.27c0.03,0.04,0.05,0.09,0.08,0.13c0.06,0.1,0.12,0.19,0.17,0.29
		c0.03,0.06,0.05,0.11,0.08,0.17c0.04,0.09,0.09,0.18,0.12,0.27c0.04,0.1,0.07,0.2,0.11,0.3c0.02,0.05,0.04,0.1,0.05,0.15l0.01,0.03
		c0,0,0,0,0,0.01l0.01,0.03c-0.48-1.69-1.83-3.07-3.64-3.53c0.18,0.05,0.37,0.11,0.55,0.17C288.29,23.24,288.35,23.26,288.42,23.29z
		"/>
	<path class="st1" d="M264.68,19.3c1.98,1.98,1.98,5.18,0,7.17l-1.92,1.92l16.56,3.31l2.46-5.74c0.04-0.1,0.1-0.2,0.15-0.3
		c0.02-0.04,0.04-0.08,0.06-0.12c0.06-0.12,0.13-0.23,0.2-0.33c0.02-0.03,0.03-0.06,0.05-0.08c0.07-0.11,0.15-0.21,0.23-0.31
		c0.02-0.03,0.04-0.05,0.06-0.08c0.08-0.1,0.16-0.19,0.25-0.28c0.03-0.03,0.06-0.06,0.09-0.09c0.08-0.08,0.17-0.16,0.25-0.23
		c0.04-0.03,0.08-0.07,0.12-0.1c0.08-0.07,0.17-0.13,0.26-0.19c0.05-0.03,0.1-0.07,0.14-0.1c0.09-0.06,0.18-0.11,0.28-0.17
		c0.05-0.03,0.1-0.06,0.15-0.09c0.11-0.06,0.22-0.11,0.33-0.16c0.04-0.02,0.07-0.04,0.11-0.05c0.91-0.38,1.93-0.49,2.93-0.28
		c0,0,0,0,0,0l-25.34-5.07c-1.78-0.37-3.54,0.26-4.7,1.51l0.12-0.12C259.49,17.32,262.7,17.32,264.68,19.3z"/>
	<path class="st1" d="M260.1,27.85l2.66,0.53l1.92-1.92c1.98-1.98,1.98-5.18,0-7.17c-1.98-1.98-5.18-1.98-7.17,0l-0.12,0.12
		c-0.62,0.67-1.08,1.51-1.27,2.47C255.57,24.63,257.36,27.3,260.1,27.85z"/>
	<path class="st1" d="M290.39,24.78c0.03,0.04,0.06,0.09,0.1,0.13C290.45,24.87,290.42,24.82,290.39,24.78z"/>
	<path class="st1" d="M288.87,23.51c0.06,0.03,0.12,0.07,0.18,0.11C288.99,23.58,288.93,23.54,288.87,23.51z"/>
	<path class="st1" d="M291.3,26.53L291.3,26.53C291.3,26.53,291.3,26.53,291.3,26.53z"/>
	<path class="st1" d="M283.64,23.73c0.09-0.06,0.18-0.11,0.28-0.17C283.82,23.61,283.73,23.67,283.64,23.73z"/>
	<path class="st1" d="M290.06,24.41c0.04,0.04,0.08,0.09,0.12,0.14C290.14,24.5,290.1,24.45,290.06,24.41z"/>
	<path class="st1" d="M289.3,23.77c0.06,0.04,0.12,0.09,0.18,0.13C289.42,23.86,289.36,23.81,289.3,23.77z"/>
	<path class="st1" d="M284.07,23.47c0.11-0.06,0.22-0.11,0.33-0.16C284.29,23.37,284.17,23.42,284.07,23.47z"/>
	<path class="st1" d="M283.24,24.02c0.08-0.07,0.17-0.13,0.26-0.19C283.41,23.89,283.32,23.95,283.24,24.02z"/>
	<path class="st1" d="M284.51,23.26c0.15-0.06,0.31-0.12,0.47-0.17c1.11-0.33,2.24-0.26,3.24,0.12c-0.18-0.07-0.36-0.13-0.55-0.17
		c-0.08-0.02-0.16-0.04-0.24-0.06C286.44,22.78,285.42,22.89,284.51,23.26z"/>
	<path class="st1" d="M289.69,24.07c0.05,0.05,0.11,0.09,0.16,0.14C289.8,24.16,289.75,24.11,289.69,24.07z"/>
	<path class="st1" d="M290.68,25.18c0.03,0.04,0.05,0.09,0.08,0.13C290.73,25.27,290.71,25.23,290.68,25.18z"/>
	<path class="st1" d="M288.43,23.29c0,0-0.01,0-0.01-0.01c0.05,0.02,0.09,0.05,0.14,0.07C288.52,23.34,288.48,23.31,288.43,23.29z"
		/>
	<path class="st1" d="M291.13,26.05c0.04,0.1,0.07,0.2,0.11,0.3C291.2,26.24,291.17,26.14,291.13,26.05z"/>
	<path class="st1" d="M282.24,25.12c0.07-0.11,0.15-0.21,0.23-0.31C282.39,24.91,282.31,25.01,282.24,25.12z"/>
	<path class="st1" d="M281.98,25.54c0.06-0.11,0.13-0.23,0.2-0.33C282.11,25.31,282.04,25.42,281.98,25.54z"/>
	<path class="st1" d="M281.92,25.66c-0.05,0.1-0.1,0.2-0.15,0.3l-2.46,5.74l3.14,0.63l-0.87-2.91
		C281.19,28.11,281.35,26.78,281.92,25.66z"/>
	<path class="st1" d="M290.93,25.61c0.03,0.06,0.05,0.11,0.08,0.17C290.98,25.72,290.96,25.66,290.93,25.61z"/>
	<path class="st1" d="M282.87,24.36c0.08-0.08,0.17-0.16,0.25-0.23C283.03,24.2,282.95,24.28,282.87,24.36z"/>
	<path class="st1" d="M282.53,24.73c0.08-0.1,0.16-0.19,0.25-0.28C282.69,24.54,282.61,24.63,282.53,24.73z"/>
	<path class="st1" d="M283.91,23.56c0.05-0.03,0.1-0.06,0.15-0.09C284.01,23.5,283.97,23.53,283.91,23.56z"/>
	<path class="st1" d="M282.47,24.81c0.02-0.03,0.04-0.05,0.06-0.08C282.51,24.75,282.49,24.78,282.47,24.81z"/>
	<path class="st1" d="M284.4,23.32c0.04-0.02,0.07-0.04,0.11-0.05C284.47,23.28,284.44,23.3,284.4,23.32z"/>
	<path class="st1" d="M288.22,23.22c0.07,0.03,0.13,0.05,0.2,0.07C288.35,23.26,288.29,23.24,288.22,23.22z"/>
	<path class="st1" d="M288.56,23.36c0.11,0.05,0.21,0.1,0.31,0.15C288.77,23.45,288.67,23.41,288.56,23.36z"/>
	<path class="st1" d="M289.05,23.62c0.08,0.05,0.16,0.1,0.24,0.15C289.22,23.72,289.13,23.67,289.05,23.62z"/>
	<path class="st1" d="M283.12,24.13c0.04-0.03,0.08-0.07,0.12-0.1C283.2,24.06,283.16,24.09,283.12,24.13z"/>
	<path class="st1" d="M291.39,29c-0.03,0.15-0.07,0.3-0.12,0.45C291.32,29.31,291.36,29.16,291.39,29z"/>
	<path class="st1" d="M291.41,28.95c0.02-0.1,0.03-0.2,0.04-0.3c-0.01,0.11-0.03,0.21-0.05,0.32
		C291.4,28.96,291.41,28.95,291.41,28.95z"/>
	<path class="st1" d="M291.5,28.05c0,0.14-0.01,0.28-0.02,0.42C291.49,28.32,291.5,28.18,291.5,28.05z"/>
	<path class="st1" d="M281.92,25.66c0.02-0.04,0.04-0.08,0.06-0.12C281.96,25.58,281.94,25.62,281.92,25.66z"/>
	<path class="st1" d="M282.18,25.21c0.02-0.03,0.03-0.06,0.05-0.08C282.22,25.15,282.2,25.18,282.18,25.21z"/>
	<path class="st1" d="M291.51,27.97c0-0.48-0.07-0.96-0.19-1.41l-0.01-0.03C291.44,27,291.51,27.48,291.51,27.97z"/>
	<path class="st1" d="M291.26,29.49c-0.05,0.15-0.1,0.3-0.17,0.45C291.16,29.79,291.22,29.64,291.26,29.49z"/>
	<path class="st1" d="M283.5,23.83c0.05-0.03,0.1-0.07,0.14-0.1C283.59,23.76,283.54,23.8,283.5,23.83z"/>
	<path class="st1" d="M291.01,25.78c0.04,0.09,0.09,0.18,0.12,0.27C291.09,25.95,291.05,25.87,291.01,25.78z"/>
	<path class="st1" d="M289.85,24.21c0.07,0.06,0.14,0.13,0.21,0.2C289.99,24.34,289.92,24.28,289.85,24.21z"/>
	<path class="st1" d="M290.49,24.91c0.07,0.09,0.13,0.18,0.2,0.27C290.62,25.09,290.55,25,290.49,24.91z"/>
	<path class="st1" d="M290.18,24.55c0.07,0.08,0.14,0.16,0.21,0.24C290.32,24.7,290.25,24.62,290.18,24.55z"/>
	<path class="st1" d="M289.48,23.9c0.07,0.05,0.15,0.11,0.22,0.17C289.62,24.01,289.55,23.96,289.48,23.9z"/>
	<path class="st1" d="M282.78,24.45c0.03-0.03,0.06-0.06,0.09-0.09C282.84,24.39,282.81,24.42,282.78,24.45z"/>
	<path class="st1" d="M291.29,26.5c-0.02-0.05-0.04-0.1-0.05-0.15c0.02,0.06,0.05,0.12,0.06,0.18L291.29,26.5z"/>
	<path class="st1" d="M290.76,25.31c0.06,0.1,0.12,0.19,0.17,0.29C290.88,25.51,290.82,25.41,290.76,25.31z"/>
	<path class="st1" d="M286.44,33.02c2.03,0,3.86-1.22,4.66-3.08c0.06-0.15,0.12-0.3,0.17-0.45c0-0.01,0.01-0.02,0.01-0.04
		c0.05-0.15,0.09-0.3,0.12-0.45c0-0.01,0.01-0.02,0.01-0.04c0.02-0.11,0.03-0.21,0.05-0.32c0.01-0.06,0.02-0.12,0.03-0.18
		c0.01-0.14,0.02-0.28,0.02-0.42c0-0.02,0-0.05,0-0.07c0-0.49-0.07-0.98-0.2-1.44l0-0.01c-0.02-0.06-0.04-0.12-0.06-0.18
		c-0.03-0.1-0.07-0.2-0.11-0.3c-0.04-0.09-0.08-0.18-0.12-0.27c-0.03-0.06-0.05-0.12-0.08-0.17c-0.05-0.1-0.11-0.2-0.17-0.29
		c-0.03-0.04-0.05-0.09-0.08-0.13c-0.06-0.09-0.13-0.18-0.2-0.27c-0.03-0.04-0.06-0.09-0.1-0.13c-0.07-0.08-0.14-0.16-0.21-0.24
		c-0.04-0.05-0.08-0.09-0.12-0.14c-0.07-0.07-0.14-0.13-0.21-0.2c-0.05-0.05-0.1-0.1-0.16-0.14c-0.07-0.06-0.14-0.11-0.22-0.17
		c-0.06-0.04-0.12-0.09-0.18-0.13c-0.08-0.05-0.16-0.1-0.24-0.15c-0.06-0.04-0.12-0.07-0.18-0.11c-0.1-0.05-0.21-0.1-0.31-0.15
		c-0.05-0.02-0.09-0.05-0.14-0.07c-0.07-0.03-0.13-0.05-0.2-0.07c-1-0.38-2.13-0.45-3.24-0.12c-0.16,0.05-0.32,0.11-0.47,0.17
		c-0.04,0.02-0.07,0.03-0.11,0.05c-0.11,0.05-0.23,0.1-0.33,0.16c-0.05,0.03-0.1,0.06-0.15,0.09c-0.09,0.05-0.19,0.11-0.28,0.17
		c-0.05,0.03-0.1,0.07-0.14,0.1c-0.09,0.06-0.17,0.13-0.26,0.19c-0.04,0.03-0.08,0.07-0.12,0.1c-0.09,0.08-0.17,0.15-0.25,0.23
		c-0.03,0.03-0.06,0.06-0.09,0.09c-0.09,0.09-0.17,0.18-0.25,0.28c-0.02,0.03-0.04,0.05-0.06,0.08c-0.08,0.1-0.16,0.21-0.23,0.31
		c-0.02,0.03-0.03,0.06-0.05,0.08c-0.07,0.11-0.14,0.22-0.2,0.33c-0.02,0.04-0.04,0.08-0.06,0.12c-0.57,1.12-0.73,2.45-0.34,3.75
		l0.87,2.91l2.99,0.6C285.78,32.99,286.11,33.02,286.44,33.02z"/>
	<path class="st1" d="M67.14,93.84c-1.74,0-3.44-0.9-4.38-2.51c-1.41-2.42-0.6-5.52,1.81-6.93l3.63-2.13
		c-1.08-0.92-2.28-1.69-3.58-2.28l-1.38,5.04c-0.61,2.26-2.66,3.74-4.89,3.74c-0.45,0-0.89-0.06-1.34-0.18
		c-2.7-0.74-4.3-3.52-3.56-6.22l0.87-3.19c-6.44,1.77-11.18,7.67-11.18,14.66c0,8.38,6.82,15.21,15.21,15.21
		c8.38,0,15.21-6.82,15.21-15.21c0-0.96-0.09-1.89-0.26-2.8l-3.6,2.11C68.9,93.62,68.01,93.84,67.14,93.84z M58.36,98.91
		c-2.8,0-5.07-2.27-5.07-5.07c0-2.8,2.27-5.07,5.07-5.07c2.8,0,5.07,2.27,5.07,5.07C63.43,96.64,61.16,98.91,58.36,98.91z"/>
	<path class="st1" d="M148.99,70.9c0.01-0.02,0.02-0.03,0.03-0.05C149,70.87,148.99,70.88,148.99,70.9z"/>
	<path class="st1" d="M140.95,72.09c-0.01-0.01-0.02-0.02-0.03-0.03l0.02,0.02C140.94,72.09,140.95,72.09,140.95,72.09z"/>
	<path class="st1" d="M145.44,73.48c0.06-0.01,0.12-0.03,0.18-0.04C145.56,73.46,145.5,73.47,145.44,73.48z"/>
	<path class="st1" d="M148.71,71.35c0.02-0.03,0.04-0.06,0.06-0.09C148.75,71.29,148.73,71.32,148.71,71.35z"/>
	<path class="st1" d="M144.52,73.57c-0.17,0-0.35-0.01-0.52-0.03C144.17,73.56,144.35,73.57,144.52,73.57
		C144.52,73.57,144.52,73.57,144.52,73.57z"/>
	<path class="st1" d="M142.58,73.18c0.03,0.01,0.06,0.02,0.09,0.04C142.64,73.21,142.61,73.19,142.58,73.18z"/>
	<path class="st1" d="M148.15,72.03c-0.03,0.03-0.06,0.06-0.08,0.08c0.01-0.01,0.02-0.02,0.04-0.03
		C148.12,72.07,148.14,72.05,148.15,72.03z"/>
	<path class="st1" d="M143.05,73.35c0.03,0.01,0.07,0.02,0.1,0.03C143.11,73.37,143.08,73.36,143.05,73.35z"/>
	<path class="st1" d="M144.99,73.55c0.04,0,0.09-0.01,0.13-0.02C145.07,73.53,145.03,73.54,144.99,73.55z"/>
	<path class="st1" d="M141.72,72.72c0.02,0.01,0.03,0.02,0.05,0.03C141.75,72.74,141.73,72.73,141.72,72.72z"/>
	<path class="st1" d="M142.14,72.97c0.02,0.01,0.05,0.02,0.07,0.04C142.19,73,142.16,72.98,142.14,72.97z"/>
	<path class="st1" d="M148.41,71.75c0.03-0.03,0.05-0.06,0.08-0.09C148.46,71.69,148.43,71.72,148.41,71.75z"/>
	<path class="st1" d="M147.7,72.45c0.03-0.02,0.06-0.05,0.08-0.07C147.75,72.4,147.73,72.42,147.7,72.45z"/>
	<path class="st1" d="M145.88,73.38c0.07-0.02,0.13-0.04,0.2-0.06C146.02,73.34,145.95,73.36,145.88,73.38z"/>
	<path class="st1" d="M97.93,17.91c0.03-0.01,0.05-0.01,0.08-0.01C97.98,17.9,97.96,17.9,97.93,17.91z"/>
	<path class="st1" d="M146.31,73.24c0.07-0.03,0.14-0.05,0.21-0.08C146.45,73.18,146.38,73.21,146.31,73.24z"/>
	<path class="st1" d="M143.52,73.47c0.09,0.02,0.19,0.03,0.28,0.04C143.71,73.5,143.61,73.48,143.52,73.47z"/>
	<path class="st1" d="M146.73,73.06c0.07-0.03,0.14-0.07,0.2-0.1C146.87,72.99,146.8,73.02,146.73,73.06z"/>
	<path class="st1" d="M149.49,69.49c0-0.01,0.01-0.02,0.01-0.03L149.49,69.49z"/>
	<path class="st1" d="M141.31,72.42c0.01,0.01,0.02,0.02,0.03,0.02C141.33,72.44,141.32,72.43,141.31,72.42z"/>
	<path class="st1" d="M147.18,72.81c0.05-0.03,0.1-0.06,0.15-0.09C147.28,72.75,147.23,72.78,147.18,72.81z"/>
	<path class="st1" d="M149.36,70.01c0.03-0.1,0.06-0.2,0.08-0.31C149.42,69.81,149.39,69.91,149.36,70.01z"/>
	<path class="st1" d="M99.9,27.85l-2.67,0.53l43.58,43.58c-1.1-1.18-1.63-2.87-1.25-4.56l2-9.02l-38.86-38.86
		c0.57,0.65,0.98,1.45,1.16,2.36C104.43,24.63,102.65,27.3,99.9,27.85z"/>
	<path class="st1" d="M149.21,70.43c0.03-0.08,0.06-0.16,0.09-0.25C149.27,70.27,149.24,70.35,149.21,70.43z"/>
	<path class="st1" d="M140.82,71.97l0.1,0.1c0.01,0.01,0.02,0.02,0.03,0.03c0.12,0.12,0.24,0.22,0.36,0.33
		c0.01,0.01,0.02,0.02,0.03,0.02c0.12,0.1,0.24,0.19,0.37,0.27c0.02,0.01,0.03,0.02,0.05,0.03c0.12,0.08,0.25,0.15,0.37,0.22
		c0.02,0.01,0.05,0.02,0.07,0.04c0.12,0.06,0.25,0.12,0.37,0.17c0.03,0.01,0.06,0.02,0.09,0.04c0.12,0.05,0.25,0.09,0.37,0.13
		c0.03,0.01,0.07,0.02,0.1,0.03c0.12,0.03,0.25,0.07,0.37,0.09c0.09,0.02,0.19,0.03,0.28,0.04c0.07,0.01,0.13,0.02,0.2,0.03
		c0.18,0.02,0.35,0.03,0.52,0.03c0.15,0,0.31-0.01,0.46-0.02c0.04,0,0.09-0.01,0.13-0.02c0.11-0.01,0.22-0.03,0.33-0.05
		c0.06-0.01,0.12-0.03,0.18-0.04c0.09-0.02,0.18-0.04,0.26-0.06c0.07-0.02,0.13-0.04,0.2-0.06c0.08-0.02,0.15-0.05,0.23-0.08
		c0.07-0.03,0.14-0.05,0.21-0.08c0.07-0.03,0.14-0.06,0.21-0.1c0.07-0.03,0.14-0.07,0.2-0.1c0.08-0.04,0.16-0.09,0.24-0.14
		c0.05-0.03,0.1-0.06,0.15-0.09c0.13-0.08,0.25-0.18,0.37-0.27c0.03-0.02,0.06-0.05,0.08-0.07c0.1-0.08,0.19-0.17,0.29-0.26
		c0.03-0.03,0.06-0.06,0.08-0.08c0.09-0.09,0.17-0.19,0.26-0.28c0.03-0.03,0.05-0.06,0.08-0.09c0.08-0.1,0.15-0.2,0.23-0.31
		c0.02-0.03,0.04-0.06,0.06-0.09c0.08-0.12,0.15-0.24,0.22-0.37c0.01-0.02,0.02-0.03,0.03-0.05c0.07-0.14,0.13-0.27,0.19-0.41
		c0.03-0.08,0.06-0.16,0.09-0.25c0.02-0.06,0.04-0.12,0.06-0.18c0.03-0.1,0.06-0.2,0.08-0.31c0.02-0.07,0.04-0.14,0.05-0.21
		l0.01-0.03c0.31-1.59-0.16-3.31-1.39-4.54l-6.53-6.53l-2,9.02C139.19,69.1,139.72,70.79,140.82,71.97z"/>
	<path class="st1" d="M68.86,26.07c0-0.01,0.01-0.02,0.01-0.02C68.86,26.06,68.86,26.07,68.86,26.07z"/>
	<path class="st1" d="M70.68,23.78c-0.01,0.01-0.02,0.01-0.02,0.02C70.67,23.8,70.67,23.79,70.68,23.78
		C70.68,23.79,70.68,23.79,70.68,23.78z"/>
	<path class="st1" d="M70.3,24.08c-0.01,0.01-0.02,0.02-0.03,0.02C70.28,24.1,70.28,24.09,70.3,24.08
		C70.29,24.08,70.3,24.08,70.3,24.08z"/>
	<path class="st1" d="M71.1,23.52c0,0-0.01,0.01-0.01,0.01c0,0,0,0,0,0C71.1,23.53,71.1,23.52,71.1,23.52z"/>
	<path class="st1" d="M103.97,93.84c2.08,0,3.86,1.25,4.64,3.04L80.68,31.7l-3.05,0.61l-3,11l12.06,28.15l3.86-2.26
		c2.4-1.41,5.51-0.61,6.93,1.81c1.41,2.42,0.6,5.52-1.81,6.93l-4.95,2.9l8.19,19.11v-1.04C98.91,96.11,101.17,93.84,103.97,93.84z"
		/>
	<path class="st1" d="M72.57,22.98l0.05-0.01c-0.05,0.01-0.1,0.02-0.16,0.03c0.02,0,0.04-0.01,0.06-0.01
		C72.54,22.99,72.56,22.98,72.57,22.98z"/>
	<path class="st1" d="M108.94,97.91c0.06,0.32,0.1,0.65,0.1,0.99C109.04,98.58,109.01,98.25,108.94,97.91z"/>
	<path class="st1" d="M72.17,23.08c0.02-0.01,0.05-0.01,0.07-0.02c-0.08,0.02-0.16,0.04-0.23,0.07c0.01,0,0.02,0,0.02-0.01
		C72.07,23.11,72.12,23.1,72.17,23.08z"/>
	<path class="st1" d="M68.72,26.48c-0.01,0.03-0.02,0.05-0.02,0.08c0.01-0.02,0.01-0.04,0.02-0.06
		C68.71,26.49,68.72,26.49,68.72,26.48z"/>
	<path class="st1" d="M70.66,23.8c-0.05,0.04-0.1,0.08-0.15,0.12c0.02-0.01,0.04-0.03,0.05-0.04C70.59,23.85,70.63,23.82,70.66,23.8
		z"/>
	<path class="st1" d="M68.86,26.07c-0.04,0.1-0.07,0.2-0.1,0.3c0-0.01,0.01-0.03,0.01-0.04C68.8,26.25,68.82,26.16,68.86,26.07z"/>
	<path class="st1" d="M64.63,79.99l10.01-36.69l-5.72-13.36c-0.01-0.02-0.01-0.04-0.02-0.05c-0.04-0.09-0.07-0.18-0.1-0.27
		c-0.03-0.07-0.05-0.14-0.07-0.22c-0.01-0.03-0.02-0.06-0.02-0.1c-0.17-0.63-0.23-1.26-0.16-1.88c0-0.01,0-0.01,0-0.02
		c0.02-0.15,0.04-0.3,0.07-0.46c0.01-0.04,0.02-0.07,0.03-0.11c0.02-0.1,0.04-0.19,0.07-0.28c-0.01,0.02-0.01,0.04-0.02,0.06
		L54.34,79.18c1.28-0.35,2.63-0.54,4.02-0.54C60.59,78.64,62.71,79.12,64.63,79.99z"/>
	<path class="st1" d="M69.09,25.58c0,0,0-0.01,0.01-0.02c-0.06,0.12-0.12,0.24-0.17,0.36c0.01-0.02,0.02-0.05,0.03-0.07
		C69,25.77,69.04,25.68,69.09,25.58z"/>
	<path class="st1" d="M68.88,26.02c0,0.01-0.01,0.02-0.01,0.03C68.87,26.04,68.88,26.03,68.88,26.02
		C68.88,26.02,68.88,26.02,68.88,26.02z"/>
	<path class="st1" d="M72.24,23.06c0.08-0.02,0.15-0.04,0.23-0.06C72.39,23.02,72.31,23.04,72.24,23.06z"/>
	<path class="st1" d="M71.32,23.41c0.07-0.04,0.15-0.07,0.22-0.11C71.47,23.34,71.4,23.38,71.32,23.41z"/>
	<path class="st1" d="M69.33,25.17c0-0.01,0.01-0.01,0.01-0.02c-0.08,0.12-0.15,0.24-0.22,0.37c0.02-0.03,0.03-0.06,0.05-0.08
		C69.23,25.34,69.28,25.25,69.33,25.17z"/>
	<path class="st1" d="M72,23.13c-0.09,0.03-0.18,0.07-0.27,0.1c0.04-0.02,0.08-0.03,0.12-0.04C71.9,23.17,71.95,23.15,72,23.13z"/>
	<path class="st1" d="M70.27,24.1c-0.06,0.05-0.12,0.11-0.18,0.17c0.01-0.01,0.02-0.02,0.03-0.03C70.17,24.2,70.22,24.15,70.27,24.1
		z"/>
	<path class="st1" d="M71.09,23.53c-0.06,0.03-0.11,0.07-0.17,0.1C70.97,23.6,71.03,23.57,71.09,23.53
		C71.08,23.53,71.09,23.53,71.09,23.53z"/>
	<path class="st1" d="M69.62,24.77c0,0,0-0.01,0.01-0.01c-0.09,0.11-0.17,0.22-0.25,0.34c0.02-0.03,0.04-0.05,0.06-0.08
		C69.5,24.94,69.56,24.85,69.62,24.77z"/>
	<path class="st1" d="M69.94,24.41C69.94,24.41,69.94,24.41,69.94,24.41c-0.08,0.08-0.16,0.18-0.24,0.27
		c0.02-0.02,0.03-0.04,0.05-0.05C69.81,24.55,69.87,24.48,69.94,24.41z"/>
	<path class="st1" d="M57.03,88.6c0.45,0.12,0.89,0.18,1.34,0.18c2.23,0,4.27-1.48,4.89-3.74l1.38-5.04
		c-1.91-0.87-4.03-1.36-6.27-1.36c-1.39,0-2.74,0.19-4.02,0.54l-0.87,3.19C52.73,85.07,54.32,87.86,57.03,88.6z"/>
	<path class="st1" d="M70.29,24.08c-0.01,0.01-0.02,0.01-0.03,0.02c-0.05,0.05-0.1,0.1-0.15,0.14
		C70.18,24.19,70.23,24.13,70.29,24.08z"/>
	<path class="st1" d="M69.44,25.02c0.06-0.08,0.12-0.17,0.18-0.25C69.56,24.85,69.5,24.94,69.44,25.02z"/>
	<path class="st1" d="M69.75,24.63c0.06-0.07,0.13-0.15,0.19-0.22C69.87,24.48,69.81,24.55,69.75,24.63z"/>
	<path class="st1" d="M68.71,26.5c-0.01,0.02-0.01,0.04-0.02,0.06c-0.03,0.09-0.05,0.19-0.07,0.28
		C68.65,26.72,68.68,26.61,68.71,26.5z"/>
	<path class="st1" d="M69.18,25.43c0.05-0.09,0.1-0.18,0.16-0.27C69.28,25.25,69.23,25.34,69.18,25.43z"/>
	<path class="st1" d="M68.78,29.62c-0.02-0.07-0.05-0.14-0.07-0.22C68.73,29.48,68.76,29.55,68.78,29.62z"/>
	<path class="st1" d="M68.53,27.4c0.02-0.15,0.04-0.31,0.07-0.46C68.57,27.1,68.54,27.25,68.53,27.4z"/>
	<path class="st1" d="M68.95,25.87c0.04-0.09,0.09-0.19,0.13-0.28C69.04,25.68,69,25.77,68.95,25.87z"/>
	<path class="st1" d="M68.88,26.02c0,0.01-0.01,0.02-0.01,0.03c0,0.01-0.01,0.02-0.01,0.02c-0.03,0.08-0.06,0.17-0.09,0.26
		C68.8,26.23,68.84,26.12,68.88,26.02z"/>
	<path class="st1" d="M70.67,23.79c0,0-0.01,0.01-0.01,0.01c-0.04,0.02-0.07,0.05-0.1,0.08C70.6,23.85,70.63,23.82,70.67,23.79z"/>
	<path class="st1" d="M72.03,23.12c-0.01,0-0.02,0-0.02,0.01c-0.05,0.02-0.1,0.04-0.15,0.06C71.91,23.17,71.97,23.14,72.03,23.12z"
		/>
	<path class="st1" d="M73.56,33.02c-2.04,0-3.9-1.24-4.67-3.13c0.01,0.02,0.01,0.04,0.02,0.05l5.72,13.36l3-11l-3.07,0.61
		C74.22,32.99,73.88,33.02,73.56,33.02z"/>
	<path class="st1" d="M72.53,22.99c-0.02,0-0.04,0.01-0.06,0.01c-0.08,0.02-0.15,0.04-0.23,0.06c-0.02,0.01-0.05,0.01-0.07,0.02
		C72.29,23.05,72.41,23.02,72.53,22.99z"/>
	<polygon class="st1" points="71.09,23.53 71.09,23.53 71.08,23.53 	"/>
	<path class="st1" d="M68.52,27.43c-0.07,0.62-0.01,1.26,0.16,1.88c-0.03-0.12-0.06-0.24-0.09-0.36
		C68.49,28.43,68.47,27.92,68.52,27.43z"/>
	<path class="st1" d="M68.21,82.27c2.6,2.21,4.44,5.28,5.09,8.76l17.42-10.2l-4.02-9.39L68.21,82.27z"/>
	<path class="st1" d="M68.21,82.27l-3.63,2.13c-2.41,1.41-3.22,4.52-1.81,6.93c0.94,1.61,2.64,2.51,4.38,2.51
		c0.87,0,1.75-0.22,2.55-0.69l3.6-2.11C72.65,87.55,70.8,84.49,68.21,82.27z"/>
	<path class="st1" d="M97.49,71.01c-1.42-2.42-4.53-3.23-6.93-1.81l-3.86,2.26l4.02,9.39l4.95-2.9
		C98.08,76.53,98.9,73.43,97.49,71.01z"/>
	<path class="st1" d="M68.75,26.37c-0.01,0.04-0.03,0.07-0.04,0.11c0.01-0.02,0.02-0.04,0.02-0.07
		C68.74,26.4,68.75,26.39,68.75,26.37z"/>
	<path class="st1" d="M69.09,25.57c0.01-0.02,0.02-0.04,0.03-0.05C69.11,25.53,69.1,25.55,69.09,25.57z"/>
	<path class="st1" d="M69.34,25.15c0.01-0.02,0.02-0.03,0.04-0.05C69.37,25.12,69.36,25.13,69.34,25.15z"/>
	<path class="st1" d="M70.51,23.92c-0.07,0.05-0.14,0.11-0.21,0.16c0.03-0.02,0.05-0.04,0.08-0.06
		C70.42,23.98,70.46,23.95,70.51,23.92z"/>
	<path class="st1" d="M69.94,24.41c0.05-0.05,0.09-0.09,0.14-0.13C70.04,24.32,69.99,24.36,69.94,24.41z"/>
	<path class="st1" d="M69.63,24.76c0.02-0.03,0.05-0.05,0.07-0.08C69.68,24.71,69.65,24.73,69.63,24.76z"/>
	<path class="st1" d="M70.92,23.63c-0.08,0.05-0.16,0.1-0.24,0.15c0.03-0.02,0.06-0.03,0.08-0.05
		C70.82,23.7,70.87,23.67,70.92,23.63z"/>
	<path class="st1" d="M68.88,26.02c0.01-0.03,0.03-0.06,0.04-0.09C68.91,25.96,68.89,25.99,68.88,26.02z"/>
	<path class="st1" d="M72.95,22.92c0.1-0.01,0.21-0.02,0.31-0.03c0.06,0,0.12-0.01,0.18-0.01c0.11,0,0.22,0,0.33,0.01
		c0.06,0,0.11,0,0.17,0.01c0.12,0.01,0.24,0.02,0.36,0.04c0.04,0.01,0.08,0.01,0.13,0.02c0.16,0.03,0.31,0.06,0.47,0.1
		c0,0,0.01,0,0.01,0c0,0,0,0,0,0c0.17,0.05,0.33,0.1,0.49,0.16c0,0,0,0,0,0c0.15,0.06,0.3,0.12,0.44,0.2c0.01,0,0.02,0.01,0.03,0.01
		c0.13,0.07,0.25,0.14,0.37,0.21c0.02,0.01,0.04,0.02,0.06,0.04c0.1,0.07,0.2,0.14,0.3,0.21c0.03,0.03,0.07,0.05,0.11,0.08
		c0.07,0.05,0.13,0.11,0.19,0.17c0.06,0.05,0.12,0.1,0.18,0.16c0.04,0.04,0.08,0.08,0.12,0.12c0.08,0.08,0.15,0.15,0.22,0.24
		c0.03,0.03,0.05,0.07,0.08,0.1c0.08,0.1,0.16,0.19,0.23,0.3c0.02,0.02,0.03,0.05,0.05,0.07c0.08,0.12,0.16,0.24,0.23,0.36
		C78,25.5,78,25.51,78.01,25.53c0.07,0.14,0.14,0.28,0.21,0.42c0,0,0,0.01,0,0.01l2.46,5.74l16.56-3.31l-1.92-1.92
		c-1.98-1.98-1.98-5.18,0-7.17c0.74-0.74,1.65-1.2,2.61-1.39c-0.01,0-0.01,0-0.02,0l-25.29,5.06c0.05-0.01,0.09-0.01,0.14-0.02
		C72.82,22.94,72.89,22.93,72.95,22.92z"/>
	<path class="st1" d="M102.49,19.3l0.22,0.22c-1.13-1.29-2.88-1.97-4.7-1.63C99.59,17.61,101.27,18.08,102.49,19.3z"/>
	<path class="st1" d="M71.57,23.29c0.03-0.01,0.05-0.02,0.08-0.03c0.03-0.01,0.06-0.02,0.09-0.03c-0.06,0.02-0.13,0.05-0.19,0.07
		c0,0,0.01,0,0.01,0C71.56,23.3,71.56,23.3,71.57,23.29z"/>
	<path class="st1" d="M71.32,23.41c-0.07,0.04-0.15,0.07-0.22,0.11c0.02-0.01,0.05-0.02,0.07-0.03
		C71.22,23.46,71.27,23.44,71.32,23.41z"/>
	<path class="st1" d="M95.32,26.47l1.92,1.92l2.67-0.53c2.74-0.55,4.52-3.22,3.97-5.97c-0.18-0.91-0.6-1.71-1.16-2.36l-0.22-0.22
		c-1.22-1.22-2.9-1.69-4.48-1.4c-0.03,0.01-0.05,0.01-0.08,0.01c-0.96,0.19-1.87,0.65-2.61,1.39
		C93.34,21.28,93.34,24.49,95.32,26.47z"/>
	<path class="st1" d="M78.22,25.95c0.44,1.02,0.55,2.18,0.24,3.34l-0.82,3.02l3.05-0.61L78.22,25.95
		C78.22,25.95,78.22,25.95,78.22,25.95z"/>
	<path class="st1" d="M77.99,25.48C78,25.5,78,25.51,78.01,25.53C78,25.51,78,25.5,77.99,25.48z"/>
	<path class="st1" d="M73.44,22.88c0.11,0,0.22,0,0.33,0.01C73.66,22.88,73.55,22.88,73.44,22.88z"/>
	<path class="st1" d="M74.9,23.06c0.17,0.05,0.33,0.1,0.49,0.16C75.23,23.16,75.06,23.11,74.9,23.06z"/>
	<path class="st1" d="M76.7,23.97c0.07,0.05,0.13,0.11,0.19,0.17C76.83,24.08,76.76,24.02,76.7,23.97z"/>
	<path class="st1" d="M73.93,22.89c0.12,0.01,0.24,0.02,0.36,0.04C74.17,22.92,74.06,22.9,73.93,22.89z"/>
	<path class="st1" d="M75.86,23.43c0.13,0.07,0.25,0.14,0.37,0.21C76.11,23.57,75.99,23.5,75.86,23.43z"/>
	<path class="st1" d="M76.29,23.68c0.1,0.07,0.2,0.14,0.3,0.21C76.5,23.82,76.4,23.75,76.29,23.68z"/>
	<path class="st1" d="M74.42,22.95c0.16,0.03,0.31,0.06,0.47,0.1C74.73,23.02,74.58,22.98,74.42,22.95z"/>
	<path class="st1" d="M71.17,23.49c-0.02,0.01-0.05,0.02-0.07,0.03c0,0-0.01,0.01-0.01,0.01C71.12,23.51,71.14,23.5,71.17,23.49z"/>
	<path class="st1" d="M70.77,23.73c-0.03,0.02-0.06,0.03-0.08,0.05c0,0-0.01,0-0.01,0.01C70.7,23.77,70.74,23.75,70.77,23.73z"/>
	<path class="st1" d="M68.74,26.41c-0.01,0.02-0.02,0.04-0.02,0.07c0,0.01,0,0.01,0,0.02C68.72,26.47,68.73,26.44,68.74,26.41z"/>
	<path class="st1" d="M72.53,22.99c0.08-0.02,0.15-0.03,0.23-0.04c-0.05,0.01-0.09,0.01-0.14,0.02l-0.05,0.01
		C72.56,22.98,72.54,22.99,72.53,22.99z"/>
	<path class="st1" d="M75.39,23.22c0.15,0.06,0.3,0.12,0.44,0.2C75.69,23.35,75.54,23.28,75.39,23.22z"/>
	<path class="st1" d="M70.38,24.02c-0.03,0.02-0.05,0.04-0.08,0.06c0,0,0,0,0,0C70.32,24.06,70.35,24.04,70.38,24.02z"/>
	<path class="st1" d="M71.57,23.29c0,0-0.01,0-0.01,0.01c0.03-0.01,0.06-0.02,0.09-0.04C71.62,23.28,71.59,23.28,71.57,23.29z"/>
	<path class="st1" d="M77.07,24.29c0.04,0.04,0.08,0.08,0.12,0.12C77.15,24.37,77.11,24.33,77.07,24.29z"/>
	<path class="st1" d="M72.95,22.92c0.1-0.01,0.21-0.02,0.31-0.03C73.16,22.9,73.05,22.91,72.95,22.92z"/>
	<path class="st1" d="M77.72,25.05c0.02,0.02,0.03,0.05,0.05,0.07C77.75,25.1,77.73,25.07,77.72,25.05z"/>
	<path class="st1" d="M77.41,24.65c0.03,0.03,0.05,0.07,0.08,0.1C77.46,24.72,77.44,24.68,77.41,24.65z"/>
	<path class="st1" d="M72.03,23.12c0.05-0.01,0.09-0.03,0.14-0.04C72.12,23.1,72.07,23.11,72.03,23.12z"/>
	<path class="st1" d="M68.77,26.33c0,0.01-0.01,0.03-0.01,0.04c0,0.01-0.01,0.03-0.01,0.04C68.75,26.39,68.76,26.36,68.77,26.33z"/>
	<path class="st1" d="M69.18,25.43c-0.02,0.03-0.03,0.06-0.05,0.08c-0.01,0.02-0.02,0.04-0.03,0.05c0,0,0,0.01-0.01,0.02
		C69.11,25.53,69.15,25.48,69.18,25.43z"/>
	<path class="st1" d="M68.95,25.87c-0.01,0.02-0.02,0.04-0.03,0.07c-0.01,0.03-0.03,0.06-0.04,0.09c0,0,0,0,0,0
		C68.9,25.97,68.93,25.92,68.95,25.87z"/>
	<path class="st1" d="M68.71,29.4c-0.01-0.03-0.02-0.06-0.02-0.1C68.69,29.34,68.7,29.37,68.71,29.4z"/>
	<path class="st1" d="M70.12,24.24c-0.01,0.01-0.02,0.02-0.03,0.03c-0.05,0.04-0.1,0.09-0.14,0.13c0,0,0,0,0,0
		C70,24.35,70.06,24.3,70.12,24.24z"/>
	<path class="st1" d="M68.89,29.89c-0.04-0.09-0.07-0.18-0.1-0.27C68.82,29.71,68.85,29.8,68.89,29.89z"/>
	<path class="st1" d="M69.75,24.63c-0.02,0.02-0.03,0.04-0.05,0.05c-0.02,0.03-0.05,0.05-0.07,0.08c0,0,0,0.01-0.01,0.01
		C69.66,24.72,69.71,24.67,69.75,24.63z"/>
	<path class="st1" d="M69.44,25.02c-0.02,0.03-0.04,0.05-0.06,0.08c-0.01,0.02-0.02,0.03-0.04,0.05c0,0.01-0.01,0.01-0.01,0.02
		C69.37,25.12,69.4,25.07,69.44,25.02z"/>
	<polygon class="st1" points="74.9,23.06 74.89,23.06 74.9,23.06 	"/>
	<path class="st1" d="M73.77,22.89c0.06,0,0.11,0,0.17,0.01C73.88,22.89,73.82,22.89,73.77,22.89z"/>
	<path class="st1" d="M72.76,22.95c0.06-0.01,0.13-0.02,0.19-0.03C72.89,22.93,72.82,22.94,72.76,22.95z"/>
	<path class="st1" d="M74.29,22.94c0.04,0.01,0.08,0.01,0.13,0.02C74.38,22.95,74.34,22.94,74.29,22.94z"/>
	<path class="st1" d="M75.83,23.42c0.01,0,0.02,0.01,0.03,0.01C75.85,23.43,75.84,23.42,75.83,23.42z"/>
	<path class="st1" d="M73.26,22.89c0.06,0,0.12-0.01,0.18-0.01C73.38,22.88,73.32,22.89,73.26,22.89z"/>
	<path class="st1" d="M68.6,26.95c0.01-0.04,0.02-0.07,0.03-0.11C68.62,26.88,68.61,26.91,68.6,26.95z"/>
	<path class="st1" d="M68.52,27.43c0-0.01,0-0.01,0-0.02C68.53,27.41,68.53,27.42,68.52,27.43z"/>
	<path class="st1" d="M75.39,23.22C75.39,23.22,75.39,23.22,75.39,23.22C75.39,23.22,75.39,23.22,75.39,23.22z"/>
	<path class="st1" d="M76.89,24.13c0.06,0.05,0.12,0.1,0.18,0.16C77.01,24.24,76.95,24.19,76.89,24.13z"/>
	<path class="st1" d="M78.01,25.53c0.07,0.14,0.14,0.27,0.21,0.42C78.16,25.8,78.09,25.66,78.01,25.53z"/>
	<path class="st1" d="M77.19,24.41c0.08,0.08,0.15,0.15,0.22,0.24C77.34,24.57,77.26,24.49,77.19,24.41z"/>
	<path class="st1" d="M76.23,23.65c0.02,0.01,0.04,0.02,0.06,0.04C76.27,23.67,76.25,23.66,76.23,23.65z"/>
	<path class="st1" d="M71.85,23.19c-0.04,0.01-0.08,0.03-0.12,0.04c-0.03,0.01-0.06,0.02-0.09,0.03
		C71.71,23.24,71.78,23.21,71.85,23.19z"/>
	<path class="st1" d="M77.76,25.12c0.08,0.12,0.16,0.24,0.23,0.36C77.92,25.36,77.84,25.24,77.76,25.12z"/>
	<path class="st1" d="M76.59,23.89c0.03,0.03,0.07,0.05,0.11,0.08C76.66,23.94,76.63,23.92,76.59,23.89z"/>
	<path class="st1" d="M71.08,23.53c-0.06,0.03-0.11,0.07-0.16,0.1c-0.05,0.03-0.1,0.06-0.15,0.1C70.87,23.66,70.97,23.6,71.08,23.53
		z"/>
	<path class="st1" d="M77.49,24.75c0.08,0.1,0.16,0.19,0.23,0.3C77.65,24.94,77.57,24.85,77.49,24.75z"/>
	<path class="st1" d="M70.56,23.88c-0.02,0.01-0.04,0.03-0.05,0.04c-0.04,0.03-0.09,0.07-0.13,0.1
		C70.44,23.97,70.5,23.92,70.56,23.88z"/>
	<path class="st1" d="M71.55,23.3c0,0-0.01,0-0.01,0c-0.08,0.03-0.15,0.07-0.22,0.11c-0.05,0.03-0.1,0.05-0.15,0.08
		C71.29,23.42,71.42,23.36,71.55,23.3z"/>
	<path class="st1" d="M78.22,25.95c-0.06-0.14-0.13-0.28-0.21-0.42C78,25.51,78,25.5,77.99,25.48c-0.07-0.13-0.15-0.24-0.23-0.36
		c-0.02-0.02-0.03-0.05-0.05-0.07c-0.07-0.1-0.15-0.2-0.23-0.3c-0.03-0.03-0.05-0.07-0.08-0.1c-0.07-0.08-0.15-0.16-0.22-0.24
		c-0.04-0.04-0.08-0.08-0.12-0.12c-0.06-0.06-0.12-0.11-0.18-0.16c-0.06-0.06-0.12-0.11-0.19-0.17c-0.03-0.03-0.07-0.05-0.11-0.08
		c-0.1-0.07-0.2-0.15-0.3-0.21c-0.02-0.01-0.04-0.02-0.06-0.04c-0.12-0.08-0.25-0.15-0.37-0.21c-0.01,0-0.02-0.01-0.03-0.01
		c-0.14-0.07-0.29-0.14-0.44-0.2c0,0,0,0,0,0c-0.16-0.06-0.32-0.11-0.49-0.16c0,0-0.01,0-0.01,0c-0.16-0.04-0.31-0.08-0.47-0.1
		c-0.04-0.01-0.08-0.01-0.13-0.02c-0.12-0.02-0.24-0.03-0.36-0.04c-0.06,0-0.11,0-0.17-0.01c-0.11,0-0.22-0.01-0.33-0.01
		c-0.06,0-0.12,0.01-0.18,0.01c-0.1,0.01-0.21,0.01-0.31,0.03c-0.06,0.01-0.13,0.02-0.19,0.03c-0.08,0.01-0.15,0.03-0.23,0.04
		c-0.12,0.03-0.25,0.06-0.37,0.09c-0.05,0.01-0.09,0.03-0.14,0.04c-0.06,0.02-0.12,0.04-0.18,0.06c-0.07,0.03-0.14,0.05-0.21,0.08
		c-0.03,0.01-0.06,0.02-0.09,0.04c-0.13,0.06-0.26,0.12-0.38,0.19c-0.03,0.01-0.05,0.03-0.08,0.04c0,0-0.01,0-0.01,0.01
		c-0.11,0.06-0.21,0.13-0.32,0.2c-0.03,0.02-0.06,0.04-0.09,0.06c-0.04,0.03-0.08,0.06-0.12,0.09c-0.06,0.05-0.12,0.09-0.18,0.14
		c-0.03,0.02-0.06,0.04-0.08,0.07c-0.06,0.05-0.12,0.11-0.18,0.16c-0.06,0.05-0.12,0.11-0.17,0.16c-0.07,0.07-0.13,0.14-0.19,0.22
		c-0.04,0.05-0.09,0.1-0.13,0.15c-0.06,0.08-0.12,0.16-0.18,0.25c-0.03,0.05-0.07,0.1-0.1,0.15c-0.06,0.09-0.11,0.18-0.16,0.27
		c-0.03,0.05-0.06,0.1-0.09,0.15c-0.05,0.09-0.09,0.19-0.13,0.28c-0.02,0.05-0.05,0.1-0.07,0.16c-0.04,0.1-0.08,0.2-0.11,0.31
		c-0.01,0.03-0.02,0.06-0.03,0.08c-0.01,0.03-0.02,0.06-0.03,0.08c-0.03,0.11-0.06,0.23-0.09,0.34c-0.01,0.04-0.02,0.07-0.03,0.11
		c-0.03,0.15-0.05,0.3-0.07,0.46c0,0.01,0,0.01,0,0.02c-0.05,0.5-0.03,1.01,0.07,1.52c0.02,0.12,0.06,0.24,0.09,0.36
		c0.01,0.03,0.02,0.06,0.02,0.1c0.02,0.07,0.05,0.14,0.07,0.22c0.03,0.09,0.06,0.18,0.1,0.27c0.78,1.89,2.63,3.13,4.67,3.13
		c0.32,0,0.66-0.03,1-0.1l3.07-0.61l0.82-3.02C78.77,28.13,78.66,26.96,78.22,25.95z"/>
	<path class="st1" d="M150.3,20.31c0,0.01-0.01,0.02-0.01,0.02c0,0,0-0.01,0.01-0.01C150.29,20.32,150.29,20.31,150.3,20.31z"/>
	<path class="st1" d="M151.1,19.28c0.06-0.06,0.13-0.12,0.2-0.18C151.23,19.16,151.16,19.21,151.1,19.28z"/>
	<path class="st1" d="M154.84,17.82c-0.23-0.01-0.45,0-0.68,0.03c0.17-0.02,0.33-0.03,0.5-0.03H154.84z"/>
	<path class="st1" d="M150.25,20.38c-0.01,0.01-0.02,0.03-0.03,0.04c0.01-0.01,0.01-0.02,0.02-0.03
		C150.25,20.39,150.25,20.38,150.25,20.38z"/>
	<path class="st1" d="M150.77,19.63c0.05-0.06,0.11-0.12,0.17-0.18C150.88,19.51,150.82,19.57,150.77,19.63z"/>
	<path class="st1" d="M150.48,20.01c0.04-0.05,0.08-0.1,0.11-0.15C150.56,19.91,150.52,19.96,150.48,20.01z"/>
	<path class="st1" d="M177.15,79.51c0.21-0.1,0.41-0.22,0.6-0.34C177.55,79.27,177.34,79.38,177.15,79.51z"/>
	<path class="st1" d="M153.22,18.02c0.1-0.03,0.2-0.06,0.31-0.08C153.43,17.97,153.33,17.99,153.22,18.02z"/>
	<path class="st1" d="M153.68,17.91c0.14-0.03,0.28-0.05,0.42-0.06C153.96,17.86,153.82,17.88,153.68,17.91z"/>
	<path class="st1" d="M152.82,18.16c-0.02,0.01-0.03,0.01-0.05,0.02c0.06-0.02,0.12-0.04,0.18-0.07
		C152.91,18.13,152.86,18.14,152.82,18.16z"/>
	<path class="st1" d="M151.46,18.95c0.06-0.05,0.13-0.1,0.2-0.15C151.59,18.85,151.53,18.9,151.46,18.95z"/>
	<path class="st1" d="M177.91,68.65l-15.84-40.69h-3.34l-2.74,12.31l12.88,33.1C171.2,70.86,174.36,69.14,177.91,68.65z"/>
	<path class="st1" d="M150.02,20.84c0,0.01,0,0.01-0.01,0.02c0,0,0,0,0,0C150.02,20.85,150.02,20.84,150.02,20.84z"/>
	<path class="st1" d="M151.87,18.65c0.06-0.04,0.12-0.07,0.18-0.11C151.99,18.58,151.92,18.62,151.87,18.65z"/>
	<path class="st1" d="M152.3,18.4c0.05-0.03,0.11-0.05,0.16-0.08C152.41,18.34,152.36,18.37,152.3,18.4z"/>
	<path class="st1" d="M174.93,80.04c0.61,0,1.23-0.11,1.83-0.35c0.13-0.05,0.26-0.11,0.39-0.17c0.19-0.13,0.39-0.24,0.6-0.34
		c1.93-1.29,2.77-3.79,1.9-6.04l-1.74-4.48c-3.55,0.49-6.71,2.21-9.04,4.71l1.34,3.44C170.99,78.81,172.9,80.04,174.93,80.04z"/>
	<path class="st1" d="M149.93,24.72l0.03,0.09c-0.02-0.05-0.04-0.1-0.05-0.15C149.92,24.68,149.93,24.7,149.93,24.72z"/>
	<path class="st1" d="M149.79,24.27c-0.01-0.05-0.03-0.1-0.04-0.15C149.76,24.17,149.77,24.22,149.79,24.27z"/>
	<path class="st1" d="M149.59,22.82c0-0.1,0.01-0.21,0.02-0.31C149.6,22.62,149.59,22.72,149.59,22.82z"/>
	<path class="st1" d="M149.62,22.31c0.01-0.09,0.03-0.17,0.04-0.26C149.65,22.14,149.63,22.22,149.62,22.31z"/>
	<path class="st1" d="M149.61,23.32c-0.01-0.1-0.01-0.2-0.02-0.3C149.6,23.12,149.6,23.22,149.61,23.32z"/>
	<path class="st1" d="M154.66,27.95c-2.1,0-3.89-1.27-4.66-3.08l5.99,15.39l2.74-12.31H154.66z"/>
	<path class="st1" d="M149.68,23.8c-0.01-0.08-0.02-0.15-0.03-0.23C149.65,23.65,149.66,23.73,149.68,23.8z"/>
	<path class="st1" d="M150.29,20.32c0,0,0,0.01-0.01,0.01c-0.01,0.01-0.02,0.03-0.03,0.04c0,0,0,0.01-0.01,0.01
		C150.26,20.37,150.27,20.35,150.29,20.32z"/>
	<path class="st1" d="M150.06,20.76c-0.01,0.03-0.03,0.05-0.04,0.08c0,0,0,0.01-0.01,0.01C150.03,20.82,150.04,20.79,150.06,20.76z"
		/>
	<path class="st1" d="M149.71,21.8c0.01-0.06,0.03-0.12,0.05-0.18C149.74,21.68,149.72,21.74,149.71,21.8z"/>
	<path class="st1" d="M149.84,21.32c0.01-0.04,0.03-0.08,0.04-0.12C149.87,21.24,149.85,21.27,149.84,21.32z"/>
	<path class="st1" d="M182.26,79.17c0.18,0.12,0.37,0.23,0.57,0.33C182.65,79.38,182.46,79.27,182.26,79.17z"/>
	<path class="st1" d="M208.41,18.86c0.04,0.03,0.08,0.06,0.11,0.08C208.49,18.91,208.45,18.89,208.41,18.86z"/>
	<path class="st1" d="M206,17.86c0.09,0.01,0.19,0.03,0.28,0.04C206.18,17.89,206.09,17.87,206,17.86z"/>
	<path class="st1" d="M205.19,17.82h0.05C205.22,17.82,205.21,17.81,205.19,17.82z"/>
	<path class="st1" d="M206.6,17.98c0.04,0.01,0.08,0.02,0.12,0.03C206.68,18,206.64,17.99,206.6,17.98z"/>
	<path class="st1" d="M205.42,17.82c0.13,0,0.26,0.01,0.38,0.02C205.68,17.83,205.55,17.82,205.42,17.82z"/>
	<path class="st1" d="M208.06,18.61c0.02,0.01,0.03,0.02,0.05,0.03C208.09,18.63,208.08,18.62,208.06,18.61z"/>
	<path class="st1" d="M209.04,19.43c0.07,0.07,0.13,0.14,0.2,0.22C209.18,19.57,209.11,19.5,209.04,19.43z"/>
	<path class="st1" d="M209.85,20.57c0.05,0.11,0.11,0.21,0.16,0.32C209.96,20.78,209.9,20.68,209.85,20.57z"/>
	<path class="st1" d="M191.13,73.36l12.88-33.08l-2.74-12.32h-3.34l-15.85,40.69C185.64,69.14,188.8,70.86,191.13,73.36z"/>
	<path class="st1" d="M209.61,20.15c0.06,0.1,0.13,0.2,0.18,0.3C209.73,20.35,209.67,20.25,209.61,20.15z"/>
	<polygon class="st1" points="210.31,21.9 210.31,21.9 210.31,21.9 	"/>
	<path class="st1" d="M208.74,19.13c0.06,0.05,0.11,0.1,0.17,0.15C208.85,19.23,208.79,19.18,208.74,19.13z"/>
	<path class="st1" d="M210.05,21c0.05,0.12,0.09,0.24,0.13,0.36C210.14,21.24,210.09,21.12,210.05,21z"/>
	<path class="st1" d="M209.34,19.77c0.07,0.09,0.14,0.18,0.2,0.27C209.47,19.94,209.4,19.85,209.34,19.77z"/>
	<path class="st1" d="M210.2,21.44c0.04,0.14,0.08,0.27,0.11,0.41C210.28,21.71,210.24,21.58,210.2,21.44z"/>
	<path class="st1" d="M182.09,68.65l-1.74,4.47c-0.88,2.27-0.03,4.77,1.91,6.06c0.2,0.1,0.39,0.2,0.57,0.33
		c0.13,0.06,0.27,0.13,0.41,0.18c0.6,0.24,1.22,0.34,1.83,0.34c2.03,0,3.94-1.23,4.72-3.22l1.34-3.44
		C188.8,70.86,185.64,69.14,182.09,68.65z"/>
	<path class="st1" d="M210.38,22.36c-0.02-0.15-0.04-0.31-0.07-0.46l0,0C210.34,22.05,210.37,22.2,210.38,22.36z"/>
	<path class="st1" d="M205.34,27.95h-4.07l2.74,12.32l6.05-15.55c0.02-0.04,0.03-0.08,0.04-0.12
		C209.4,26.56,207.54,27.95,205.34,27.95z"/>
	<path class="st1" d="M210.39,22.38c0.02,0.16,0.02,0.33,0.02,0.49C210.41,22.71,210.4,22.54,210.39,22.38z"/>
	<path class="st1" d="M210.27,24.05c-0.02,0.08-0.04,0.17-0.06,0.25C210.23,24.22,210.25,24.14,210.27,24.05z"/>
	<path class="st1" d="M210.37,23.48c-0.01,0.12-0.03,0.24-0.05,0.36C210.34,23.72,210.36,23.6,210.37,23.48z"/>
	<path class="st1" d="M210.41,22.91c0,0.15-0.01,0.31-0.02,0.46C210.4,23.22,210.41,23.06,210.41,22.91z"/>
	<path class="st1" d="M150.3,20.31c0.06-0.1,0.12-0.2,0.19-0.3C150.41,20.11,150.36,20.21,150.3,20.31z"/>
	<path class="st1" d="M149.77,21.55c0.02-0.07,0.04-0.15,0.06-0.22C149.81,21.41,149.79,21.48,149.77,21.55z"/>
	<path class="st1" d="M210.31,21.85c0,0.01,0,0.03,0.01,0.04C210.31,21.88,210.31,21.87,210.31,21.85z"/>
	<path class="st1" d="M151.66,18.8c0.07-0.05,0.13-0.1,0.2-0.15C151.8,18.7,151.73,18.75,151.66,18.8z"/>
	<path class="st1" d="M151.29,19.1c0.06-0.05,0.11-0.1,0.17-0.15C151.4,19,151.35,19.05,151.29,19.1z"/>
	<path class="st1" d="M150.6,19.86c0.06-0.08,0.11-0.15,0.17-0.23C150.71,19.7,150.65,19.78,150.6,19.86z"/>
	<path class="st1" d="M210,20.89c0.02,0.04,0.03,0.07,0.04,0.11C210.03,20.96,210.02,20.93,210,20.89z"/>
	<path class="st1" d="M150.94,19.45c0.05-0.06,0.1-0.12,0.16-0.17C151.04,19.33,150.99,19.39,150.94,19.45z"/>
	<path class="st1" d="M210.18,21.36c0.01,0.03,0.01,0.05,0.02,0.08C210.19,21.41,210.19,21.39,210.18,21.36z"/>
	<path class="st1" d="M209.79,20.45c0.02,0.04,0.04,0.08,0.06,0.12C209.83,20.53,209.81,20.49,209.79,20.45z"/>
	<path class="st1" d="M205.81,17.84c0.06,0.01,0.13,0.01,0.19,0.02C205.93,17.85,205.87,17.84,205.81,17.84z"/>
	<path class="st1" d="M154.1,17.85c0.02,0,0.03,0,0.05-0.01C154.14,17.84,154.12,17.85,154.1,17.85z"/>
	<path class="st1" d="M208.11,18.64c0.11,0.07,0.21,0.14,0.31,0.22C208.32,18.78,208.21,18.71,208.11,18.64z"/>
	<path class="st1" d="M205.34,17.82h-0.1c0.06,0,0.12,0,0.18,0C205.4,17.82,205.37,17.82,205.34,17.82z"/>
	<path class="st1" d="M152.05,18.54c0.09-0.05,0.17-0.1,0.26-0.15C152.22,18.44,152.13,18.49,152.05,18.54z"/>
	<path class="st1" d="M208.53,18.94c0.07,0.06,0.14,0.12,0.21,0.19C208.67,19.06,208.6,19,208.53,18.94z"/>
	<path class="st1" d="M206.27,17.9c0.11,0.02,0.22,0.05,0.33,0.07C206.49,17.95,206.38,17.92,206.27,17.9z"/>
	<path class="st1" d="M152.46,18.32c0.1-0.05,0.2-0.1,0.31-0.14C152.67,18.22,152.56,18.27,152.46,18.32z"/>
	<path class="st1" d="M208.91,19.28c0.05,0.05,0.09,0.1,0.14,0.15C209,19.38,208.95,19.33,208.91,19.28z"/>
	<path class="st1" d="M209.54,20.03c0.03,0.04,0.05,0.08,0.07,0.12C209.58,20.11,209.56,20.07,209.54,20.03z"/>
	<path class="st1" d="M209.24,19.64c0.03,0.04,0.06,0.08,0.1,0.12C209.3,19.73,209.27,19.68,209.24,19.64z"/>
	<path class="st1" d="M152.95,18.11c0.09-0.03,0.18-0.06,0.27-0.09C153.13,18.05,153.04,18.08,152.95,18.11z"/>
	<path class="st1" d="M153.53,17.95c0.05-0.01,0.1-0.02,0.15-0.03C153.63,17.92,153.58,17.93,153.53,17.95z"/>
	<path class="st1" d="M150.01,20.85c-0.04,0.09-0.07,0.18-0.1,0.27c0.03-0.08,0.06-0.15,0.09-0.23
		C150,20.88,150.01,20.87,150.01,20.85z"/>
	<path class="st1" d="M150.23,20.42c-0.05,0.09-0.1,0.19-0.14,0.29c0.01-0.02,0.02-0.04,0.03-0.07
		C150.15,20.57,150.19,20.49,150.23,20.42z"/>
	<path class="st1" d="M159.3,20.87c0.02,0.06,0.05,0.11,0.07,0.17c0,0,0,0,0,0.01l2.69,6.91h35.87l2.64-6.78
		c0.25-0.68,0.63-1.3,1.13-1.82c0,0,0.01-0.01,0.01-0.01c0.11-0.11,0.23-0.22,0.35-0.32c0.01-0.01,0.02-0.01,0.03-0.02
		c0.12-0.1,0.24-0.19,0.36-0.28c0.01-0.01,0.03-0.02,0.04-0.03c0.12-0.08,0.24-0.16,0.37-0.23c0.03-0.02,0.06-0.03,0.1-0.05
		c0.11-0.06,0.22-0.12,0.33-0.17c0.13-0.06,0.26-0.11,0.39-0.15c0.02-0.01,0.04-0.02,0.06-0.02c0.46-0.16,0.95-0.24,1.45-0.26
		h-50.36C156.74,17.88,158.51,19.03,159.3,20.87z"/>
	<path class="st1" d="M208.06,18.61c-0.41-0.26-0.86-0.46-1.34-0.6c0.15,0.04,0.31,0.09,0.46,0.15
		C207.5,18.29,207.79,18.44,208.06,18.61z"/>
	<path class="st1" d="M149.84,21.32c0,0.01-0.01,0.01-0.01,0.02c-0.02,0.07-0.04,0.14-0.06,0.22c-0.01,0.02-0.01,0.05-0.02,0.07
		C149.78,21.52,149.81,21.42,149.84,21.32z"/>
	<path class="st1" d="M150,20.89c-0.03,0.07-0.06,0.15-0.09,0.23c-0.01,0.02-0.02,0.05-0.03,0.07
		C149.92,21.09,149.96,20.99,150,20.89z"/>
	<path class="st1" d="M149.99,24.87l-0.03-0.07C149.98,24.83,149.98,24.85,149.99,24.87z"/>
	<path class="st1" d="M150.12,20.64c-0.01,0.02-0.02,0.04-0.03,0.07c-0.01,0.02-0.02,0.04-0.03,0.05
		C150.08,20.72,150.1,20.68,150.12,20.64z"/>
	<path class="st1" d="M149.91,24.66c-0.05-0.13-0.09-0.26-0.13-0.39C149.82,24.4,149.87,24.53,149.91,24.66z"/>
	<path class="st1" d="M149.59,22.88c0,0.05,0.01,0.09,0.01,0.14c0-0.07,0-0.13,0-0.2C149.59,22.84,149.59,22.86,149.59,22.88z"/>
	<path class="st1" d="M159.3,20.87c0.02,0.06,0.05,0.11,0.07,0.17C159.35,20.98,159.32,20.93,159.3,20.87z"/>
	<path class="st1" d="M149.75,24.12c-0.03-0.11-0.05-0.22-0.07-0.32C149.7,23.91,149.72,24.02,149.75,24.12z"/>
	<path class="st1" d="M149.64,23.57c-0.01-0.08-0.02-0.17-0.03-0.25C149.62,23.41,149.63,23.49,149.64,23.57z"/>
	<path class="st1" d="M149.61,22.51c0.01-0.07,0.01-0.14,0.02-0.2C149.62,22.38,149.61,22.44,149.61,22.51z"/>
	<path class="st1" d="M149.66,22.05c0.01-0.08,0.03-0.17,0.04-0.25C149.69,21.88,149.68,21.97,149.66,22.05z"/>
	<path class="st1" d="M210.32,23.84c-0.01,0.07-0.03,0.14-0.05,0.21C210.29,23.98,210.3,23.91,210.32,23.84z"/>
	<path class="st1" d="M210.39,23.37c0,0.04-0.01,0.08-0.01,0.12C210.38,23.44,210.38,23.41,210.39,23.37z"/>
	<path class="st1" d="M210.21,24.31c-0.03,0.1-0.06,0.2-0.1,0.3C210.14,24.5,210.18,24.41,210.21,24.31z"/>
	<path class="st1" d="M210.41,22.88c0,0,0-0.01,0-0.01c0,0.01,0,0.03,0,0.04C210.41,22.9,210.41,22.89,210.41,22.88z"/>
	<path class="st1" d="M201.71,19.35c-0.5,0.52-0.89,1.14-1.13,1.82l0.05-0.12C200.88,20.4,201.25,19.83,201.71,19.35z"/>
	<path class="st1" d="M201.72,19.34c0.11-0.11,0.23-0.22,0.35-0.32C201.95,19.12,201.83,19.23,201.72,19.34z"/>
	<path class="st1" d="M202.49,18.7c0.12-0.08,0.24-0.16,0.37-0.23C202.74,18.54,202.61,18.61,202.49,18.7z"/>
	<path class="st1" d="M202.09,19c0.12-0.1,0.24-0.19,0.36-0.28C202.33,18.81,202.21,18.9,202.09,19z"/>
	<path class="st1" d="M202.96,18.42c0.11-0.06,0.22-0.12,0.33-0.17C203.18,18.3,203.07,18.36,202.96,18.42z"/>
	<path class="st1" d="M210.38,22.36c0,0.01,0,0.01,0,0.02C210.38,22.37,210.38,22.37,210.38,22.36z"/>
	<path class="st1" d="M203.68,18.1c0.02-0.01,0.04-0.02,0.06-0.02C203.72,18.08,203.7,18.09,203.68,18.1z"/>
	<path class="st1" d="M159.6,23.98l-0.88,3.97h3.34l-2.69-6.91c0,0,0,0,0-0.01C159.73,21.94,159.83,22.96,159.6,23.98z"/>
	<path class="st1" d="M150.02,20.85C150.01,20.85,150.01,20.85,150.02,20.85c-0.01,0.02-0.01,0.03-0.02,0.04
		C150,20.88,150.01,20.87,150.02,20.85z"/>
	<path class="st1" d="M150.25,20.39c-0.01,0.01-0.01,0.02-0.02,0.03c-0.04,0.07-0.07,0.15-0.11,0.22
		C150.16,20.56,150.2,20.47,150.25,20.39z"/>
	<path class="st1" d="M155.75,17.94c1.65,0.37,2.92,1.5,3.55,2.93c-0.79-1.84-2.56-2.99-4.46-3.06h-0.18c-0.17,0-0.34,0.01-0.5,0.03
		c-0.02,0-0.03,0-0.05,0.01c-0.14,0.02-0.29,0.04-0.42,0.06c-0.05,0.01-0.1,0.02-0.15,0.03c-0.1,0.02-0.21,0.05-0.31,0.08
		c-0.09,0.03-0.18,0.06-0.27,0.09c-0.06,0.02-0.12,0.04-0.18,0.07c-0.1,0.04-0.21,0.09-0.31,0.14c-0.05,0.03-0.11,0.05-0.16,0.08
		c-0.09,0.05-0.17,0.1-0.26,0.15c-0.06,0.04-0.12,0.07-0.18,0.11c-0.07,0.05-0.14,0.1-0.2,0.15c-0.07,0.05-0.13,0.1-0.2,0.15
		c-0.06,0.05-0.11,0.1-0.17,0.15c-0.07,0.06-0.13,0.12-0.2,0.18c-0.06,0.05-0.11,0.11-0.16,0.17c-0.06,0.06-0.11,0.12-0.17,0.18
		c-0.06,0.07-0.12,0.15-0.17,0.23c-0.04,0.05-0.08,0.1-0.11,0.15c-0.07,0.1-0.13,0.2-0.19,0.3c0,0-0.01,0.01-0.01,0.01
		C151.38,18.49,153.56,17.48,155.75,17.94z"/>
	<path class="st1" d="M154.66,27.95h4.06l0.88-3.97c0.23-1.02,0.13-2.04-0.23-2.95c-0.02-0.06-0.05-0.11-0.07-0.17
		c-0.63-1.44-1.9-2.57-3.55-2.93c-2.19-0.46-4.38,0.55-5.47,2.39c-0.01,0.02-0.03,0.04-0.04,0.07c-0.05,0.08-0.09,0.17-0.13,0.25
		c-0.02,0.04-0.04,0.08-0.06,0.12c-0.01,0.03-0.03,0.06-0.04,0.09c-0.01,0.01-0.01,0.03-0.02,0.04c-0.04,0.1-0.08,0.2-0.12,0.3
		c-0.01,0.04-0.03,0.08-0.04,0.12c-0.03,0.1-0.06,0.2-0.08,0.3c-0.02,0.06-0.03,0.12-0.05,0.18c-0.02,0.08-0.03,0.17-0.04,0.25
		c-0.01,0.09-0.03,0.17-0.04,0.26c-0.01,0.07-0.01,0.14-0.02,0.2c-0.01,0.1-0.01,0.21-0.02,0.31c0,0.07,0,0.13,0,0.2
		c0,0.1,0.01,0.2,0.02,0.3c0.01,0.08,0.02,0.17,0.03,0.25c0.01,0.08,0.02,0.15,0.03,0.23c0.02,0.11,0.04,0.22,0.07,0.32
		c0.01,0.05,0.02,0.1,0.04,0.15c0.04,0.13,0.08,0.26,0.13,0.39c0.02,0.05,0.03,0.1,0.05,0.15l0.03,0.07
		C150.77,26.68,152.56,27.95,154.66,27.95z"/>
	<path class="st1" d="M202.07,19.02c0.01-0.01,0.02-0.01,0.03-0.02C202.08,19.01,202.07,19.01,202.07,19.02z"/>
	<path class="st1" d="M201.71,19.35c0,0,0.01-0.01,0.01-0.01C201.72,19.35,201.71,19.35,201.71,19.35z"/>
	<path class="st1" d="M200.39,23.98c-0.21-0.97-0.13-1.94,0.18-2.81l-2.64,6.78h3.34L200.39,23.98z"/>
	<path class="st1" d="M202.45,18.72c0.01-0.01,0.03-0.02,0.04-0.03C202.48,18.7,202.47,18.71,202.45,18.72z"/>
	<path class="st1" d="M202.86,18.46c0.03-0.02,0.06-0.03,0.1-0.05C202.93,18.43,202.9,18.45,202.86,18.46z"/>
	<path class="st1" d="M203.29,18.25c0.13-0.06,0.26-0.11,0.39-0.15C203.55,18.14,203.42,18.19,203.29,18.25z"/>
	<path class="st1" d="M204.24,17.94c2.73-0.58,5.44,1.12,6.05,3.85l0.02,0.11c0,0,0,0,0-0.01c0-0.01,0-0.03-0.01-0.04
		c-0.03-0.14-0.07-0.28-0.11-0.41c-0.01-0.03-0.01-0.05-0.02-0.08c-0.04-0.12-0.08-0.24-0.13-0.36c-0.01-0.04-0.03-0.07-0.04-0.11
		c-0.05-0.11-0.1-0.22-0.16-0.32c-0.02-0.04-0.04-0.08-0.06-0.12c-0.06-0.1-0.12-0.2-0.18-0.3c-0.03-0.04-0.05-0.08-0.07-0.12
		c-0.06-0.09-0.13-0.18-0.2-0.27c-0.03-0.04-0.06-0.08-0.1-0.12c-0.06-0.07-0.13-0.14-0.2-0.22c-0.05-0.05-0.09-0.1-0.14-0.15
		c-0.05-0.05-0.11-0.1-0.17-0.15c-0.07-0.06-0.14-0.13-0.21-0.19c-0.04-0.03-0.08-0.06-0.11-0.08c-0.1-0.08-0.2-0.15-0.31-0.22
		c-0.02-0.01-0.03-0.02-0.05-0.03c-0.27-0.17-0.57-0.32-0.88-0.45c-0.15-0.06-0.3-0.11-0.46-0.15c-0.04-0.01-0.08-0.02-0.12-0.03
		c-0.11-0.03-0.22-0.05-0.33-0.07c-0.09-0.02-0.18-0.03-0.28-0.04c-0.06-0.01-0.13-0.02-0.19-0.02c-0.13-0.01-0.25-0.02-0.38-0.02
		c-0.06,0-0.12-0.01-0.18,0h-0.05c-0.5,0.01-0.98,0.1-1.45,0.26C203.91,18.02,204.07,17.97,204.24,17.94z"/>
	<path class="st1" d="M200.39,23.98l0.88,3.97h4.07c2.2,0,4.06-1.4,4.76-3.35c0.04-0.1,0.07-0.2,0.1-0.3
		c0.02-0.08,0.04-0.17,0.06-0.25c0.02-0.07,0.03-0.14,0.05-0.21c0.02-0.12,0.04-0.24,0.05-0.36c0-0.04,0.01-0.08,0.01-0.12
		c0.01-0.15,0.02-0.3,0.02-0.46c0-0.01,0-0.03,0-0.04c0-0.17-0.01-0.33-0.02-0.49c0-0.01,0-0.01,0-0.02
		c-0.02-0.16-0.04-0.31-0.07-0.46l-0.02-0.11c-0.61-2.73-3.32-4.43-6.05-3.85c-0.17,0.04-0.34,0.08-0.5,0.14
		c-0.02,0.01-0.04,0.02-0.06,0.02c-0.13,0.05-0.26,0.1-0.39,0.15c-0.11,0.05-0.22,0.11-0.33,0.17c-0.03,0.02-0.06,0.03-0.1,0.05
		c-0.13,0.07-0.25,0.15-0.37,0.23c-0.01,0.01-0.03,0.02-0.04,0.03c-0.12,0.09-0.25,0.18-0.36,0.28c-0.01,0.01-0.02,0.01-0.03,0.02
		c-0.12,0.1-0.24,0.21-0.35,0.32c0,0-0.01,0.01-0.01,0.01c-0.46,0.47-0.83,1.04-1.09,1.7l-0.05,0.12
		C200.26,22.05,200.18,23.01,200.39,23.98z"/>
	<path class="st1" d="M103.97,109.05c0.07,0,0.13,0.01,0.2,0.01h4.87V98.91c0,0,0,0,0,0c0,1.96-1.15,3.83-3.07,4.66
		c-0.65,0.28-1.33,0.41-2,0.41c-1.97,0-3.84-1.15-4.66-3.07l-0.41-0.96v14.17C98.91,111.31,101.17,109.05,103.97,109.05z"/>
	<path class="st1" d="M108.63,96.91c0.14,0.33,0.24,0.66,0.31,1c-0.07-0.36-0.18-0.71-0.33-1.04L108.63,96.91z"/>
	<path class="st1" d="M103.97,109.06h0.2c-0.07,0-0.13-0.01-0.2-0.01c-2.8,0-5.07,2.27-5.07,5.07c0,0,0,0,0,0.01
		C98.91,111.32,101.17,109.06,103.97,109.06z"/>
	<path class="st1" d="M104.18,109.06c2.71,0.11,4.87,2.32,4.87,5.06v-5.06H104.18z"/>
	<path class="st1" d="M104.18,109.06h-0.2c-2.8,0-5.07,2.26-5.07,5.06c0,2.8,2.27,5.06,5.07,5.06c2.8,0,5.07-2.27,5.07-5.07
		C109.04,111.38,106.88,109.16,104.18,109.06z"/>
	<path class="st1" d="M103.97,103.98c0.67,0,1.35-0.13,2-0.41c1.92-0.82,3.07-2.69,3.07-4.66c0-0.34-0.03-0.67-0.1-0.99
		c-0.07-0.34-0.17-0.67-0.31-1l-0.02-0.04c-0.78-1.79-2.56-3.04-4.64-3.04c-2.8,0-5.07,2.27-5.07,5.07v1.04l0.41,0.96
		C100.14,102.83,102.01,103.98,103.97,103.98z"/>
	<path class="st1" d="M251.37,96.91l0.02-0.04c-0.14,0.32-0.25,0.66-0.32,1.01C251.13,97.56,251.23,97.23,251.37,96.91z"/>
	<path class="st1" d="M256.03,103.98c-0.67,0-1.35-0.13-2-0.41c-1.92-0.82-3.06-2.68-3.07-4.64v10.13h5.07
		c2.8,0,5.07,2.27,5.07,5.07V99.95l-0.41,0.96C259.86,102.83,257.99,103.98,256.03,103.98z"/>
	<path class="st1" d="M256.03,109.06h-5.07v5.07C250.96,111.32,253.22,109.06,256.03,109.06z"/>
	
		<ellipse transform="matrix(0.9732 -0.2298 0.2298 0.9732 -19.3716 61.8755)" class="st1" cx="256.03" cy="114.13" rx="5.07" ry="5.07"/>
	<path class="st1" d="M256.03,93.84c-2.08,0-3.86,1.25-4.64,3.04l-0.02,0.04c-0.14,0.32-0.24,0.65-0.31,0.98
		c-0.07,0.33-0.1,0.67-0.1,1.02v0.02c0.01,1.96,1.15,3.82,3.07,4.64c0.65,0.28,1.33,0.41,2,0.41c1.97,0,3.84-1.15,4.66-3.07
		l0.41-0.96v-1.04C261.09,96.11,258.83,93.84,256.03,93.84z"/>
	<path class="st1" d="M180.01,286.44c0.17,0,0.35-0.01,0.52-0.03C180.35,286.43,180.18,286.44,180.01,286.44
		C180,286.44,180,286.44,180.01,286.44z"/>
	<path class="st1" d="M182.67,285.68c-0.12,0.08-0.25,0.15-0.38,0.22C182.42,285.83,182.54,285.76,182.67,285.68z"/>
	<path class="st1" d="M181.12,286.31c-0.16,0.04-0.33,0.06-0.49,0.08C180.79,286.38,180.96,286.35,181.12,286.31z"/>
	<path class="st1" d="M179.48,286.41c-0.03,0-0.07-0.01-0.1-0.01C179.41,286.4,179.44,286.41,179.48,286.41z"/>
	<path class="st1" d="M178.87,286.31c-0.01,0-0.01,0-0.02,0C178.86,286.31,178.87,286.31,178.87,286.31z"/>
	<path class="st1" d="M182.13,285.97c-0.12,0.05-0.24,0.11-0.36,0.15C181.89,286.07,182.01,286.02,182.13,285.97z"/>
	<path class="st1" d="M181.66,286.16c-0.17,0.06-0.34,0.11-0.51,0.15C181.32,286.27,181.49,286.22,181.66,286.16z"/>
	<path class="st1" d="M177.29,285.65c-0.04-0.03-0.08-0.05-0.12-0.08C177.21,285.6,177.25,285.63,177.29,285.65z"/>
	<path class="st1" d="M197.65,261.83c0.01,0,0.01-0.01,0.02-0.01C197.66,261.83,197.66,261.83,197.65,261.83z"/>
	<path class="st1" d="M199.91,261.12c0.07,0,0.14-0.01,0.21-0.01C200.05,261.11,199.98,261.11,199.91,261.12z"/>
	<path class="st1" d="M184.05,284.41c-0.33,0.44-0.71,0.8-1.14,1.1c0.04-0.03,0.08-0.05,0.12-0.09l18.92-14.19h-1.68
		c-2.8,0-5.07-2.27-5.07-5.07c0-1.57,0.71-2.98,1.84-3.91L180,275.04l3.04,2.28C185.28,279,185.73,282.18,184.05,284.41z"/>
	<path class="st1" d="M198.52,261.42c0.03-0.01,0.06-0.02,0.1-0.03C198.58,261.39,198.55,261.4,198.52,261.42z"/>
	<path class="st1" d="M198.08,261.6c0.02-0.01,0.04-0.02,0.05-0.03C198.12,261.58,198.1,261.59,198.08,261.6z"/>
	<path class="st1" d="M178.34,286.16c-0.03-0.01-0.06-0.02-0.09-0.03C178.28,286.14,178.31,286.15,178.34,286.16z"/>
	<path class="st1" d="M199.43,261.17c0.06-0.01,0.12-0.02,0.18-0.03C199.55,261.15,199.49,261.16,199.43,261.17z"/>
	<path class="st1" d="M198.97,261.27c0.05-0.01,0.09-0.02,0.14-0.04C199.06,261.25,199.02,261.26,198.97,261.27z"/>
	<path class="st1" d="M177.85,285.96c-0.04-0.02-0.08-0.03-0.12-0.05C177.77,285.92,177.81,285.94,177.85,285.96z"/>
	<path class="st1" d="M197.65,261.83c-0.21,0.13-0.42,0.27-0.61,0.43l0.19-0.14C197.37,262.01,197.51,261.92,197.65,261.83z"/>
	<path class="st1" d="M204.32,263.13c1.68,2.24,1.23,5.41-1.01,7.09l-1.35,1.01h23.66c-2.8,0-5.07-2.27-5.07-5.07v-5.07h-20.27
		c-0.05,0-0.1,0.01-0.15,0.01C201.71,261.06,203.3,261.76,204.32,263.13z"/>
	<path class="st1" d="M198.14,261.58c0.13-0.06,0.25-0.11,0.38-0.16C198.39,261.46,198.26,261.52,198.14,261.58z"/>
	<path class="st1" d="M198.62,261.38c0.12-0.04,0.24-0.08,0.35-0.11C198.85,261.31,198.73,261.34,198.62,261.38z"/>
	<path class="st1" d="M199.61,261.15c0.1-0.01,0.2-0.02,0.3-0.03C199.81,261.12,199.71,261.13,199.61,261.15z"/>
	<path class="st1" d="M199.11,261.24c0.11-0.03,0.22-0.05,0.32-0.06C199.32,261.19,199.22,261.21,199.11,261.24z"/>
	<path class="st1" d="M197.67,261.82c0.13-0.08,0.27-0.15,0.41-0.22C197.94,261.67,197.8,261.74,197.67,261.82z"/>
	<path class="st1" d="M195.21,266.17c0,2.8,2.27,5.07,5.07,5.07h1.68l1.35-1.01c2.24-1.68,2.7-4.86,1.01-7.09
		c-1.03-1.37-2.61-2.07-4.2-2.02c-0.07,0-0.14,0.01-0.21,0.01c-0.1,0.01-0.2,0.02-0.3,0.03c-0.06,0.01-0.12,0.02-0.18,0.03
		c-0.11,0.02-0.22,0.04-0.32,0.06c-0.05,0.01-0.09,0.02-0.14,0.04c-0.12,0.03-0.24,0.07-0.35,0.11c-0.03,0.01-0.06,0.02-0.1,0.03
		c-0.13,0.05-0.26,0.1-0.38,0.16c-0.02,0.01-0.04,0.02-0.05,0.03c-0.14,0.07-0.28,0.14-0.41,0.22c-0.01,0-0.01,0.01-0.02,0.01
		c-0.14,0.09-0.28,0.18-0.42,0.28l-0.19,0.14C195.92,263.19,195.21,264.59,195.21,266.17z"/>
	<path class="st1" d="M220.73,244.57c0.03-0.1,0.05-0.19,0.08-0.29C220.78,244.38,220.75,244.48,220.73,244.57z"/>
	<path class="st1" d="M222.57,241.84l0.16-0.12c-0.19,0.13-0.37,0.28-0.54,0.44C222.31,242.05,222.44,241.95,222.57,241.84z"/>
	<path class="st1" d="M220.57,245.48c0.01-0.07,0.01-0.13,0.02-0.2C220.58,245.35,220.57,245.42,220.57,245.48z"/>
	<path class="st1" d="M220.63,245.02c0.01-0.08,0.03-0.16,0.05-0.24C220.66,244.86,220.64,244.94,220.63,245.02z"/>
	<path class="st1" d="M220.55,250.96v10.14h5.07c2.8,0,5.07,2.27,5.07,5.07v-10.13l-5.07,0
		C222.81,256.03,220.55,253.76,220.55,250.96z"/>
	<path class="st1" d="M221.85,242.51c0.1-0.11,0.21-0.22,0.32-0.32C222.06,242.29,221.95,242.39,221.85,242.51z"/>
	<path class="st1" d="M220.87,244.13c0.04-0.1,0.08-0.21,0.12-0.31C220.95,243.92,220.91,244.03,220.87,244.13z"/>
	<path class="st1" d="M221.05,243.69c0.05-0.11,0.1-0.21,0.16-0.31C221.16,243.48,221.1,243.59,221.05,243.69z"/>
	<path class="st1" d="M221.55,242.88c0.08-0.11,0.16-0.21,0.25-0.32C221.71,242.66,221.63,242.77,221.55,242.88z"/>
	<path class="st1" d="M221.28,243.27c0.06-0.11,0.13-0.21,0.2-0.31C221.41,243.06,221.35,243.17,221.28,243.27z"/>
	<path class="st1" d="M220.55,245.82c0,0.03,0,0.05,0,0.08v5.07c0-0.92,0.25-1.79,0.68-2.53
		C220.76,247.62,220.54,246.71,220.55,245.82z"/>
	<path class="st1" d="M225.62,250.96c-1.55,0-3.06-0.7-4.06-2.03c-0.12-0.16-0.23-0.33-0.33-0.51c-0.43,0.75-0.68,1.61-0.68,2.53
		c0,2.8,2.27,5.07,5.06,5.07l5.07,0v-7.61l-2.03,1.52C227.74,250.63,226.68,250.96,225.62,250.96z"/>
	<path class="st1" d="M225.62,271.24c2.8,0,5.07-2.27,5.07-5.07s-2.27-5.07-5.07-5.07h-5.07v5.07
		C220.55,268.97,222.81,271.24,225.62,271.24z"/>
	<path class="st1" d="M249.9,233.78c-0.09,0.12-0.19,0.24-0.29,0.35C249.71,234.01,249.81,233.9,249.9,233.78z"/>
	<path class="st1" d="M250.95,230.69c0,0.08,0,0.16,0,0.24C250.95,230.85,250.95,230.77,250.95,230.69z"/>
	<path class="st1" d="M249.43,234.31c-0.06,0.06-0.12,0.12-0.19,0.17C249.3,234.43,249.36,234.37,249.43,234.31z"/>
	<path class="st1" d="M248.82,226.56l0.11,0.08C248.89,226.61,248.85,226.58,248.82,226.56z"/>
	<path class="st1" d="M242.85,234.74l-5.4-4.05l-14.71,11.04c0.82-0.57,1.81-0.9,2.88-0.9c2.8,0,5.07,2.27,5.07,5.07v0l3.37,0
		l14.87-11.15c0.02-0.01,0.03-0.03,0.05-0.04c-0.89,0.69-1.98,1.05-3.09,1.05C244.82,235.76,243.76,235.43,242.85,234.74z"/>
	<path class="st1" d="M249.94,227.65c-0.02-0.03-0.04-0.05-0.06-0.07c0.02,0.03,0.05,0.06,0.07,0.09
		C249.95,227.66,249.94,227.66,249.94,227.65z"/>
	<path class="st1" d="M250.18,228.01c0.02,0.03,0.04,0.06,0.06,0.09C250.22,228.07,250.2,228.04,250.18,228.01z"/>
	<path class="st1" d="M249.43,227.08c0.07,0.07,0.14,0.14,0.21,0.21C249.57,227.22,249.5,227.15,249.43,227.08z"/>
	<path class="st1" d="M250.4,228.39c0.03,0.05,0.06,0.11,0.08,0.16C250.45,228.5,250.42,228.45,250.4,228.39z"/>
	<path class="st1" d="M250.7,229.12c0.09,0.28,0.16,0.57,0.2,0.86C250.86,229.69,250.79,229.4,250.7,229.12z"/>
	<path class="st1" d="M250.57,228.76c0.04,0.09,0.07,0.17,0.11,0.26C250.64,228.93,250.6,228.85,250.57,228.76z"/>
	<path class="st1" d="M250.9,229.98c0.02,0.16,0.04,0.31,0.04,0.47C250.94,230.3,250.93,230.14,250.9,229.98z"/>
	<path class="st1" d="M248.93,226.64c0.13,0.1,0.25,0.2,0.37,0.31C249.18,226.84,249.06,226.74,248.93,226.64z"/>
	<path class="st1" d="M250.4,232.99c-0.05,0.1-0.1,0.2-0.16,0.29C250.3,233.19,250.35,233.09,250.4,232.99z"/>
	<path class="st1" d="M220.81,244.29c0.02-0.05,0.04-0.1,0.06-0.16C220.85,244.18,220.83,244.23,220.81,244.29z"/>
	<path class="st1" d="M250.18,233.37c-0.07,0.11-0.15,0.23-0.23,0.34C250.03,233.6,250.11,233.49,250.18,233.37z"/>
	<path class="st1" d="M250.57,232.62c-0.03,0.07-0.05,0.14-0.09,0.21C250.51,232.76,250.54,232.69,250.57,232.62z"/>
	<path class="st1" d="M220.67,244.78c0.02-0.07,0.03-0.14,0.05-0.2C220.71,244.64,220.69,244.71,220.67,244.78z"/>
	<path class="st1" d="M221.49,242.96c0.02-0.03,0.04-0.06,0.06-0.08C221.53,242.9,221.51,242.93,221.49,242.96z"/>
	<path class="st1" d="M222.17,242.18c0.01-0.01,0.01-0.01,0.02-0.02C222.18,242.17,222.17,242.18,222.17,242.18z"/>
	<path class="st1" d="M220.99,243.82c0.02-0.04,0.04-0.09,0.06-0.13C221.03,243.74,221.01,243.78,220.99,243.82z"/>
	<path class="st1" d="M221.8,242.56c0.02-0.02,0.03-0.03,0.05-0.05C221.83,242.52,221.82,242.54,221.8,242.56z"/>
	<path class="st1" d="M221.22,243.38c0.02-0.04,0.04-0.07,0.07-0.11C221.26,243.31,221.24,243.34,221.22,243.38z"/>
	<path class="st1" d="M250.9,231.4C250.9,231.4,250.9,231.4,250.9,231.4C250.9,231.4,250.9,231.4,250.9,231.4z"/>
	<path class="st1" d="M250.7,232.27c-0.01,0.03-0.02,0.06-0.03,0.09C250.68,232.33,250.69,232.3,250.7,232.27z"/>
	<path class="st1" d="M220.59,245.29c0.01-0.09,0.03-0.18,0.04-0.27C220.61,245.11,220.6,245.2,220.59,245.29z"/>
	<path class="st1" d="M220.55,245.82c0-0.11,0.01-0.22,0.02-0.33C220.56,245.6,220.55,245.71,220.55,245.82z"/>
	<polygon class="st1" points="230.68,248.42 234.05,245.9 230.68,245.9 	"/>
	<path class="st1" d="M222.19,242.17c-0.01,0.01-0.01,0.01-0.02,0.02c-0.11,0.1-0.22,0.21-0.32,0.32c-0.02,0.02-0.03,0.03-0.05,0.05
		c-0.09,0.1-0.17,0.21-0.25,0.32c-0.02,0.03-0.04,0.06-0.06,0.08c-0.07,0.1-0.14,0.21-0.2,0.31c-0.02,0.04-0.04,0.07-0.07,0.11
		c-0.06,0.1-0.11,0.21-0.16,0.31c-0.02,0.04-0.04,0.08-0.06,0.13c-0.05,0.1-0.09,0.2-0.12,0.31c-0.02,0.05-0.04,0.1-0.06,0.16
		c-0.03,0.09-0.06,0.19-0.08,0.29c-0.02,0.07-0.04,0.14-0.05,0.2c-0.02,0.08-0.03,0.16-0.05,0.24c-0.02,0.09-0.03,0.18-0.04,0.27
		c-0.01,0.06-0.01,0.13-0.02,0.2c-0.01,0.11-0.02,0.22-0.02,0.33c-0.01,0.89,0.21,1.8,0.68,2.61c0.88-1.52,2.51-2.54,4.39-2.54
		c0,0,0,0,0.01,0l5.06,0v0c0-2.8-2.27-5.07-5.07-5.07c-1.07,0-2.07,0.33-2.88,0.9l-0.16,0.12
		C222.44,241.95,222.31,242.05,222.19,242.17z"/>
	<path class="st1" d="M225.62,245.89c-1.88,0-3.51,1.02-4.39,2.54c0.1,0.17,0.21,0.34,0.33,0.51c1,1.33,2.51,2.03,4.06,2.03
		c1.06,0,2.12-0.33,3.03-1.01l2.03-1.52v-2.53L225.62,245.89C225.62,245.89,225.62,245.89,225.62,245.89z"/>
	<path class="st1" d="M249.3,226.95c0.05,0.04,0.09,0.09,0.13,0.13C249.39,227.04,249.35,226.99,249.3,226.95z"/>
	<path class="st1" d="M249.24,234.48c-0.09,0.08-0.17,0.15-0.26,0.22C249.06,234.63,249.15,234.56,249.24,234.48z"/>
	<path class="st1" d="M250.9,231.41c-0.04,0.29-0.11,0.58-0.2,0.86C250.79,231.98,250.86,231.7,250.9,231.41z"/>
	<path class="st1" d="M249.6,234.13c-0.06,0.06-0.12,0.12-0.18,0.18C249.49,234.25,249.55,234.19,249.6,234.13z"/>
	<path class="st1" d="M250.67,229.02c0.01,0.03,0.02,0.06,0.03,0.09C250.69,229.09,250.68,229.05,250.67,229.02z"/>
	<path class="st1" d="M249.94,233.73c0,0,0.01-0.01,0.01-0.02c-0.02,0.02-0.03,0.04-0.05,0.06
		C249.91,233.76,249.93,233.75,249.94,233.73z"/>
	<polygon class="st1" points="248.93,226.64 248.92,226.64 248.93,226.64 	"/>
	<path class="st1" d="M250.95,230.93c-0.01,0.16-0.02,0.31-0.04,0.47C250.93,231.24,250.94,231.09,250.95,230.93z"/>
	<path class="st1" d="M250.48,232.83c-0.03,0.05-0.06,0.11-0.08,0.16C250.42,232.93,250.45,232.88,250.48,232.83z"/>
	<path class="st1" d="M250.24,228.1c0.06,0.1,0.11,0.2,0.16,0.29C250.35,228.29,250.3,228.19,250.24,228.1z"/>
	<path class="st1" d="M249.64,227.29c0.08,0.09,0.16,0.19,0.24,0.29C249.8,227.48,249.72,227.38,249.64,227.29z"/>
	<path class="st1" d="M250.48,228.55c0.03,0.07,0.06,0.14,0.09,0.21C250.54,228.69,250.51,228.62,250.48,228.55z"/>
	<path class="st1" d="M249.95,227.67c0.08,0.11,0.16,0.22,0.23,0.34C250.11,227.89,250.03,227.78,249.95,227.67z"/>
	<path class="st1" d="M250.95,230.45c0,0.08,0,0.16,0,0.24C250.95,230.61,250.95,230.53,250.95,230.45z"/>
	<path class="st1" d="M250.67,232.36c-0.03,0.09-0.07,0.18-0.11,0.26C250.6,232.53,250.64,232.45,250.67,232.36z"/>
	<path class="st1" d="M250.24,233.28c-0.02,0.03-0.04,0.06-0.06,0.09C250.2,233.34,250.22,233.31,250.24,233.28z"/>
	<path class="st1" d="M250.9,229.97C250.9,229.98,250.9,229.98,250.9,229.97C250.9,229.98,250.9,229.98,250.9,229.97z"/>
	<path class="st1" d="M237.45,230.69l5.4-4.05c1.8-1.36,4.22-1.32,5.97-0.08l-15.02-11.26c-2.61,2.32-5.38,4.48-8.28,6.45
		L237.45,230.69z"/>
	<path class="st1" d="M221.56,212.45c-1.68,2.24-1.23,5.41,1.01,7.09l2.94,2.21c2.9-1.97,5.66-4.13,8.28-6.45l-5.14-3.86
		C226.42,209.76,223.24,210.21,221.56,212.45z"/>
	<path class="st1" d="M242.85,226.64l-5.4,4.05l5.4,4.05c0.91,0.68,1.98,1.01,3.04,1.01c1.11,0,2.19-0.36,3.09-1.05
		c0.09-0.07,0.18-0.14,0.26-0.22c0.06-0.06,0.13-0.11,0.19-0.17c0.06-0.06,0.12-0.12,0.18-0.18c0.1-0.11,0.2-0.23,0.29-0.35
		c0.02-0.02,0.03-0.04,0.05-0.06c0.08-0.11,0.16-0.22,0.23-0.34c0.02-0.03,0.04-0.06,0.06-0.09c0.06-0.1,0.11-0.2,0.16-0.29
		c0.03-0.05,0.06-0.11,0.08-0.16c0.03-0.07,0.06-0.14,0.09-0.21c0.04-0.09,0.07-0.17,0.11-0.26c0.01-0.03,0.02-0.06,0.03-0.09
		c0.09-0.28,0.16-0.57,0.2-0.86c0,0,0-0.01,0-0.01c0.02-0.16,0.04-0.31,0.04-0.47c0-0.08,0-0.16,0-0.24c0-0.08,0-0.16,0-0.24
		c-0.01-0.16-0.02-0.31-0.04-0.47c0,0,0-0.01,0-0.01c-0.04-0.29-0.11-0.58-0.2-0.86c-0.01-0.03-0.02-0.06-0.03-0.09
		c-0.03-0.09-0.07-0.18-0.11-0.26c-0.03-0.07-0.05-0.14-0.09-0.21c-0.03-0.05-0.06-0.11-0.08-0.16c-0.05-0.1-0.1-0.2-0.16-0.29
		c-0.02-0.03-0.04-0.06-0.06-0.09c-0.07-0.11-0.15-0.23-0.23-0.34c-0.02-0.03-0.05-0.06-0.07-0.09c-0.08-0.1-0.16-0.2-0.24-0.29
		c-0.07-0.07-0.14-0.14-0.21-0.21c-0.04-0.04-0.09-0.09-0.13-0.13c-0.12-0.11-0.24-0.21-0.37-0.31c0,0,0,0-0.01-0.01l-0.11-0.08
		C247.07,225.31,244.65,225.28,242.85,226.64z"/>
	<path class="st1" d="M179.37,286.4c-0.17-0.02-0.33-0.05-0.5-0.09C179.04,286.35,179.21,286.38,179.37,286.4z"/>
	<path class="st1" d="M181.15,286.31c-0.01,0-0.02,0-0.03,0.01C181.13,286.31,181.14,286.31,181.15,286.31z"/>
	<path class="st1" d="M180.63,286.4c-0.03,0-0.07,0.01-0.1,0.01C180.56,286.41,180.59,286.4,180.63,286.4z"/>
	<path class="st1" d="M178.85,286.31c-0.17-0.04-0.35-0.09-0.52-0.15C178.51,286.22,178.68,286.27,178.85,286.31z"/>
	<path class="st1" d="M178.25,286.12c-0.14-0.05-0.27-0.11-0.4-0.17C177.98,286.02,178.11,286.07,178.25,286.12z"/>
	<path class="st1" d="M177.73,285.9c-0.15-0.08-0.3-0.16-0.44-0.25C177.43,285.75,177.58,285.83,177.73,285.9z"/>
	<path class="st1" d="M159.96,261.11c0.02,0,0.03,0,0.05,0C159.99,261.11,159.97,261.11,159.96,261.11z"/>
	<path class="st1" d="M160.46,261.16c0.01,0,0.01,0,0.02,0C160.47,261.16,160.46,261.16,160.46,261.16z"/>
	<path class="st1" d="M181.77,286.12c-0.04,0.01-0.08,0.03-0.12,0.04C181.69,286.15,181.73,286.13,181.77,286.12z"/>
	<path class="st1" d="M182.91,285.51c-0.08,0.06-0.16,0.11-0.24,0.17C182.75,285.63,182.83,285.57,182.91,285.51z"/>
	<path class="st1" d="M182.29,285.89c-0.05,0.03-0.11,0.05-0.16,0.07C182.18,285.94,182.23,285.92,182.29,285.89z"/>
	<path class="st1" d="M179.99,286.44C180,286.44,180,286.44,179.99,286.44c-0.17,0-0.35-0.01-0.52-0.03
		C179.65,286.43,179.82,286.44,179.99,286.44z"/>
	<path class="st1" d="M164.79,266.17c0,2.8-2.27,5.07-5.07,5.07h-1.69l18.92,14.19c0.07,0.05,0.14,0.1,0.21,0.15
		c-0.46-0.31-0.88-0.69-1.23-1.16c-1.68-2.24-1.23-5.41,1.01-7.09l3.04-2.28l-17.02-12.76C164.09,263.21,164.79,264.6,164.79,266.17
		z"/>
	<path class="st1" d="M175.95,284.41c0.35,0.47,0.77,0.85,1.23,1.16c0.04,0.03,0.08,0.06,0.12,0.08c0.14,0.09,0.29,0.17,0.44,0.25
		c0.04,0.02,0.08,0.04,0.12,0.05c0.13,0.06,0.26,0.12,0.4,0.17c0.03,0.01,0.06,0.02,0.09,0.03c0.17,0.06,0.34,0.11,0.52,0.15
		c0.01,0,0.01,0,0.02,0c0.16,0.04,0.33,0.06,0.5,0.09c0.03,0,0.07,0.01,0.1,0.01c0.17,0.02,0.35,0.03,0.52,0.03
		c0.18,0,0.35-0.01,0.52-0.03c0.03,0,0.07-0.01,0.1-0.01c0.17-0.02,0.33-0.05,0.49-0.08c0.01,0,0.02,0,0.03-0.01
		c0.17-0.04,0.34-0.09,0.51-0.15c0.04-0.01,0.08-0.03,0.12-0.04c0.12-0.04,0.24-0.1,0.36-0.15c0.05-0.02,0.11-0.05,0.16-0.07
		c0.13-0.07,0.26-0.14,0.38-0.22c0.08-0.05,0.16-0.11,0.24-0.17c0.42-0.3,0.81-0.66,1.14-1.1c1.68-2.24,1.23-5.41-1.01-7.09
		l-3.04-2.28l-3.04,2.28C174.72,279,174.26,282.18,175.95,284.41z"/>
	<path class="st1" d="M134.38,271.24h23.65l-1.35-1.01c-2.24-1.68-2.7-4.86-1.01-7.09c1.04-1.39,2.67-2.09,4.28-2.02
		c-0.08,0-0.15-0.01-0.23-0.01h-20.27v5.07C139.45,268.97,137.19,271.24,134.38,271.24z"/>
	<path class="st1" d="M160,261.11c0.15,0.01,0.3,0.02,0.46,0.04C160.31,261.14,160.16,261.12,160,261.11z"/>
	<path class="st1" d="M162.98,262.28c-0.7-0.59-1.56-0.98-2.51-1.12c0.81,0.12,1.59,0.44,2.29,0.96L162.98,262.28z"/>
	<path class="st1" d="M155.67,263.13c-1.68,2.24-1.23,5.41,1.01,7.09l1.35,1.01h1.69c2.8,0,5.07-2.27,5.07-5.07
		c0-1.56-0.71-2.96-1.81-3.89l-0.22-0.16c-0.7-0.52-1.48-0.84-2.29-0.96c-0.01,0-0.01,0-0.02,0c-0.15-0.02-0.3-0.04-0.46-0.04
		c-0.02,0-0.03,0-0.05,0C158.34,261.04,156.72,261.74,155.67,263.13z"/>
	<path class="st1" d="M134.38,261.1h5.07v-10.13c0,2.8-2.27,5.07-5.07,5.07l-5.07,0v10.13C129.32,263.36,131.58,261.1,134.38,261.1z
		"/>
	<path class="st1" d="M139.4,245.2c0.02,0.13,0.03,0.26,0.04,0.4C139.43,245.47,139.42,245.33,139.4,245.2z"/>
	<path class="st1" d="M139.39,245.15c-0.21-1.45-1.03-2.7-2.2-3.47l0.23,0.17C138.53,242.68,139.2,243.88,139.39,245.15z"/>
	<path class="st1" d="M139.45,250.97v-5.08c0-0.06-0.01-0.12-0.01-0.17c0.03,0.93-0.19,1.87-0.68,2.71
		C139.2,249.18,139.45,250.04,139.45,250.97z"/>
	<path class="st1" d="M139.45,250.97c0-0.93-0.25-1.79-0.69-2.54c-0.1,0.17-0.21,0.34-0.33,0.5c-0.99,1.33-2.51,2.03-4.05,2.03
		c-1.06,0-2.12-0.33-3.04-1.01l-2.03-1.52v7.61l5.07,0C137.18,256.04,139.45,253.77,139.45,250.97z"/>
	<path class="st1" d="M129.32,266.17c0,2.8,2.27,5.07,5.07,5.07s5.07-2.27,5.07-5.07v-5.07h-5.07
		C131.58,261.1,129.32,263.36,129.32,266.17z"/>
	<path class="st1" d="M139.39,245.15c0,0.02,0.01,0.04,0.01,0.05C139.4,245.18,139.39,245.17,139.39,245.15z"/>
	<path class="st1" d="M139.44,245.6c0,0.04,0,0.08,0.01,0.12C139.44,245.68,139.44,245.64,139.44,245.6z"/>
	<path class="st1" d="M129.32,245.89c0-2.8,2.27-5.07,5.07-5.07c1.04,0,2.01,0.31,2.81,0.85l-14.64-10.98l-5.4,4.05
		c-0.91,0.68-1.97,1.01-3.03,1.01c-1.12,0-2.23-0.37-3.13-1.09c0.03,0.02,0.06,0.05,0.09,0.07l14.88,11.16L129.32,245.89
		L129.32,245.89z"/>
	<path class="st1" d="M110.72,226.93c0.07-0.06,0.14-0.12,0.22-0.18C110.86,226.81,110.79,226.87,110.72,226.93z"/>
	<path class="st1" d="M110.06,227.65c0,0-0.01,0.01-0.01,0.01c0.02-0.03,0.04-0.05,0.06-0.08
		C110.09,227.61,110.07,227.63,110.06,227.65z"/>
	<path class="st1" d="M109.32,232.36c-0.01-0.03-0.02-0.06-0.03-0.09C109.31,232.3,109.31,232.33,109.32,232.36z"/>
	<path class="st1" d="M109.51,228.55c0.03-0.05,0.06-0.11,0.08-0.16C109.57,228.45,109.54,228.5,109.51,228.55z"/>
	<path class="st1" d="M109.05,230.93c0-0.08,0-0.15,0-0.23C109.05,230.78,109.04,230.85,109.05,230.93z"/>
	<path class="st1" d="M109.51,232.83c-0.03-0.07-0.06-0.14-0.08-0.2C109.46,232.69,109.48,232.76,109.51,232.83z"/>
	<path class="st1" d="M109.09,229.97c0.02-0.16,0.05-0.32,0.09-0.47C109.15,229.66,109.11,229.82,109.09,229.97z"/>
	<path class="st1" d="M109.32,229.02c0.03-0.09,0.07-0.17,0.1-0.26C109.39,228.85,109.35,228.93,109.32,229.02z"/>
	<path class="st1" d="M109.18,229.5c0.03-0.13,0.07-0.25,0.11-0.38C109.25,229.24,109.21,229.37,109.18,229.5z"/>
	<path class="st1" d="M109.76,233.28c-0.06-0.1-0.11-0.19-0.16-0.29C109.65,233.09,109.7,233.19,109.76,233.28z"/>
	<path class="st1" d="M109.05,230.45c0.01-0.16,0.02-0.31,0.04-0.47C109.07,230.14,109.05,230.3,109.05,230.45z"/>
	<path class="st1" d="M109.76,228.1c0.02-0.03,0.04-0.06,0.06-0.09C109.8,228.04,109.78,228.07,109.76,228.1z"/>
	<path class="st1" d="M110.8,234.52c-0.09-0.08-0.18-0.16-0.27-0.25C110.62,234.36,110.71,234.44,110.8,234.52z"/>
	<path class="st1" d="M110.41,234.15c-0.11-0.12-0.22-0.24-0.32-0.38C110.19,233.9,110.3,234.02,110.41,234.15z"/>
	<path class="st1" d="M110.37,227.28c0.04-0.05,0.09-0.09,0.13-0.13C110.45,227.19,110.41,227.23,110.37,227.28z"/>
	<path class="st1" d="M110.05,233.71c-0.08-0.11-0.16-0.22-0.23-0.34C109.89,233.49,109.96,233.6,110.05,233.71z"/>
	<polygon class="st1" points="129.32,245.9 125.95,245.9 129.32,248.43 	"/>
	<path class="st1" d="M138.76,248.43c0.49-0.84,0.71-1.78,0.68-2.71c0-0.04,0-0.08-0.01-0.12c-0.01-0.13-0.02-0.27-0.04-0.4
		c0-0.02-0.01-0.04-0.01-0.05c-0.19-1.27-0.86-2.47-1.97-3.3l-0.23-0.17c-0.8-0.54-1.77-0.85-2.81-0.85c-2.8,0-5.07,2.27-5.07,5.07
		v0.01l5.07,0C136.26,245.9,137.89,246.92,138.76,248.43z"/>
	<path class="st1" d="M134.38,250.96c1.55,0,3.07-0.7,4.05-2.03c0.12-0.16,0.23-0.33,0.33-0.5c-0.88-1.51-2.51-2.53-4.38-2.53
		l-5.07,0v2.53l2.03,1.52C132.26,250.63,133.32,250.96,134.38,250.96z"/>
	<path class="st1" d="M109.82,228.01c0.07-0.12,0.15-0.23,0.23-0.34C109.96,227.78,109.89,227.89,109.82,228.01z"/>
	<path class="st1" d="M117.15,226.64l5.4,4.05l11.93-8.95c-2.9-1.97-5.66-4.13-8.28-6.46l-15.13,11.35
		c-0.05,0.04-0.09,0.08-0.14,0.11C112.7,225.33,115.26,225.22,117.15,226.64z"/>
	<path class="st1" d="M109.6,228.39c0.05-0.1,0.1-0.2,0.16-0.3C109.7,228.2,109.65,228.29,109.6,228.39z"/>
	<path class="st1" d="M109.29,229.12c0.01-0.03,0.02-0.06,0.03-0.1C109.31,229.05,109.31,229.09,109.29,229.12z"/>
	<path class="st1" d="M109.43,228.76c0.03-0.07,0.05-0.14,0.09-0.21C109.48,228.62,109.46,228.69,109.43,228.76z"/>
	<path class="st1" d="M110.11,227.59c0.08-0.11,0.17-0.21,0.26-0.31C110.27,227.38,110.19,227.48,110.11,227.59z"/>
	<path class="st1" d="M109.18,229.5C109.18,229.5,109.18,229.5,109.18,229.5C109.18,229.5,109.18,229.5,109.18,229.5z"/>
	<path class="st1" d="M109.82,233.38c-0.02-0.03-0.04-0.06-0.06-0.09C109.78,233.31,109.8,233.34,109.82,233.38z"/>
	<path class="st1" d="M110.06,233.73c0.01,0.01,0.02,0.03,0.04,0.04c-0.01-0.02-0.03-0.04-0.05-0.06
		C110.05,233.72,110.05,233.72,110.06,233.73z"/>
	<path class="st1" d="M110.5,227.15c0.07-0.07,0.14-0.15,0.22-0.22C110.64,227,110.57,227.08,110.5,227.15z"/>
	<path class="st1" d="M110.98,234.67c-0.06-0.05-0.12-0.1-0.18-0.15C110.86,234.57,110.92,234.62,110.98,234.67z"/>
	<path class="st1" d="M110.53,234.27c-0.04-0.04-0.08-0.08-0.12-0.12C110.45,234.19,110.49,234.23,110.53,234.27z"/>
	<path class="st1" d="M109.05,230.7c0-0.08,0-0.17,0-0.25C109.04,230.53,109.05,230.62,109.05,230.7z"/>
	<path class="st1" d="M109.09,229.98C109.09,229.98,109.09,229.98,109.09,229.98C109.09,229.98,109.09,229.98,109.09,229.98z"/>
	<path class="st1" d="M109.3,232.27c-0.14-0.43-0.23-0.88-0.25-1.34C109.07,231.38,109.15,231.83,109.3,232.27z"/>
	<path class="st1" d="M109.43,232.62c-0.04-0.09-0.08-0.18-0.11-0.27C109.36,232.45,109.39,232.54,109.43,232.62z"/>
	<path class="st1" d="M109.6,232.99c-0.03-0.05-0.06-0.11-0.08-0.16C109.54,232.88,109.57,232.94,109.6,232.99z"/>
	<path class="st1" d="M137.42,219.54c2.24-1.68,2.7-4.86,1.01-7.09c-1.68-2.25-4.86-2.7-7.09-1.01l-5.14,3.86
		c2.61,2.32,5.38,4.48,8.28,6.46L137.42,219.54z"/>
	<path class="st1" d="M117.15,234.74l5.4-4.05l-5.4-4.05c-1.89-1.42-4.45-1.31-6.21,0.11c-0.07,0.06-0.15,0.12-0.22,0.18
		c-0.08,0.07-0.15,0.14-0.22,0.22c-0.04,0.04-0.09,0.09-0.13,0.13c-0.09,0.1-0.18,0.2-0.26,0.31c-0.02,0.03-0.04,0.05-0.06,0.08
		c-0.08,0.11-0.16,0.23-0.23,0.34c-0.02,0.03-0.04,0.06-0.06,0.09c-0.06,0.1-0.11,0.2-0.16,0.3c-0.03,0.05-0.06,0.11-0.08,0.16
		c-0.03,0.07-0.06,0.14-0.09,0.21c-0.04,0.09-0.07,0.17-0.1,0.26c-0.01,0.03-0.02,0.06-0.03,0.1c-0.04,0.12-0.08,0.25-0.11,0.38
		c0,0,0,0,0,0c-0.04,0.16-0.07,0.32-0.09,0.47c0,0,0,0.01,0,0.01c-0.02,0.16-0.04,0.31-0.04,0.47c0,0.08,0,0.17,0,0.25
		c0,0.08,0,0.15,0,0.23c0.02,0.46,0.11,0.91,0.25,1.34c0.01,0.03,0.02,0.06,0.03,0.09c0.03,0.09,0.07,0.18,0.11,0.27
		c0.03,0.07,0.05,0.14,0.08,0.2c0.03,0.06,0.06,0.11,0.08,0.16c0.05,0.1,0.1,0.2,0.16,0.29c0.02,0.03,0.04,0.06,0.06,0.09
		c0.07,0.11,0.15,0.23,0.23,0.34c0.01,0.02,0.03,0.04,0.05,0.06c0.1,0.13,0.21,0.26,0.32,0.38c0.04,0.04,0.08,0.08,0.12,0.12
		c0.09,0.09,0.18,0.17,0.27,0.25c0.06,0.05,0.12,0.1,0.18,0.15c0.9,0.71,2.01,1.09,3.13,1.09
		C115.18,235.76,116.24,235.43,117.15,234.74z"/>
</g>
</svg>
